<mxfile host="app.diagrams.net" modified="2024-05-10T09:36:06.685Z" agent="Mozilla/5.0 (Windows NT 10.0; Win64; x64) AppleWebKit/537.36 (KHTML, like Gecko) Chrome/124.0.0.0 Safari/537.36" etag="Twosn1roNqIgTVbfjJC-" version="24.3.1" type="device">
  <diagram name="Page-1" id="vfCcffqZ3EvsOJyKTZvr">
    <mxGraphModel dx="2772" dy="1329" grid="0" gridSize="10" guides="1" tooltips="1" connect="1" arrows="1" fold="1" page="1" pageScale="1" pageWidth="827" pageHeight="1169" math="0" shadow="0">
      <root>
        <mxCell id="0" />
        <mxCell id="1" parent="0" />
        <mxCell id="6Q_wfIdElCOlgVAC6Y2N-2" value="" style="shape=image;verticalLabelPosition=bottom;labelBackgroundColor=default;verticalAlign=top;aspect=fixed;imageAspect=0;image=data:image/svg+xml,PHN2ZyB4bWxucz0iaHR0cDovL3d3dy53My5vcmcvMjAwMC9zdmciIGZpbGw9Im5vbmUiIHZpZXdCb3g9IjAgMCA0OSAyMyIgaGVpZ2h0PSIyMyIgd2lkdGg9IjQ5Ij4mI3hhOzxyZWN0IGZpbGw9IiNGQ0ZDRkMiIHJ4PSIzIiBoZWlnaHQ9IjIxIiB3aWR0aD0iNDciIHk9IjEiIHg9IjEiLz4mI3hhOzxyZWN0IHN0cm9rZS13aWR0aD0iMiIgc3Ryb2tlPSJibGFjayIgcng9IjMiIGhlaWdodD0iMjEiIHdpZHRoPSI0NyIgeT0iMSIgeD0iMSIvPiYjeGE7PHBhdGggZmlsbD0iYmxhY2siIGQ9Ik04LjY3MDc0IDE2LjIxTDEyLjUyMDcgNS44N0gxMy45NTA3TDEwLjEwMDcgMTYuMjFIOC42NzA3NFpNMTcuMzU2NCAxNS4xMUMxNi43Njk4IDE1LjExIDE2LjI5MzEgMTQuOTAxIDE1LjkyNjQgMTQuNDgzQzE1LjU2NzEgMTQuMDY1IDE1LjM4NzQgMTMuNTA0IDE1LjM4NzQgMTIuOFYxMS4xNjFDMTUuMzg3NCAxMC40NDk3IDE1LjU2NzEgOS44ODUgMTUuOTI2NCA5LjQ2N0MxNi4yODU4IDkuMDQ5IDE2Ljc2MjQgOC44NCAxNy4zNTY0IDguODRDMTcuNzc0NCA4Ljg0IDE4LjEyNjQgOC45NDYzMyAxOC40MTI0IDkuMTU5QzE4LjcwNTggOS4zNzE2NyAxOC45MTExIDkuNjY4NjcgMTkuMDI4NCAxMC4wNUwxOC45ODQ0IDguNjY0VjYuOTdIMjAuMzU5NFYxNUgxOS4wMTc0VjEzLjlDMTguOTA3NCAxNC4yODEzIDE4LjcwOTQgMTQuNTc4MyAxOC40MjM0IDE0Ljc5MUMxOC4xMzc0IDE1LjAwMzcgMTcuNzgxOCAxNS4xMSAxNy4zNTY0IDE1LjExWk0xNy44NzM0IDEzLjkyMkMxOC4yMjU0IDEzLjkyMiAxOC40OTY4IDEzLjgxNTcgMTguNjg3NCAxMy42MDNDMTguODg1NCAxMy4zOTAzIDE4Ljk4NDQgMTMuMDg5NyAxOC45ODQ0IDEyLjcwMVYxMS4yNDlDMTguOTg0NCAxMC44NjAzIDE4Ljg4NTQgMTAuNTU5NyAxOC42ODc0IDEwLjM0N0MxOC40OTY4IDEwLjEzNDMgMTguMjI1NCAxMC4wMjggMTcuODczNCAxMC4wMjhDMTcuNTIxNCAxMC4wMjggMTcuMjQ2NCAxMC4xMjMzIDE3LjA0ODQgMTAuMzE0QzE2Ljg1NzggMTAuNTA0NyAxNi43NjI0IDEwLjc5OCAxNi43NjI0IDExLjE5NFYxMi43NTZDMTYuNzYyNCAxMy4xNTIgMTYuODU3OCAxMy40NDUzIDE3LjA0ODQgMTMuNjM2QzE3LjI0NjQgMTMuODI2NyAxNy41MjE0IDEzLjkyMiAxNy44NzM0IDEzLjkyMlpNMjIuMDM4MSAxNVYxMy43NTdIMjQuMTA2MVYxMC4xOTNIMjIuMjU4MVY4Ljk1SDI1LjQ4MTFWMTMuNzU3SDI3LjM0MDFWMTVIMjIuMDM4MVpNMjQuNzAwMSA3LjkzOEMyNC40MjE1IDcuOTM4IDI0LjIwMTUgNy44NjgzMyAyNC4wNDAxIDcuNzI5QzIzLjg3ODggNy41ODIzMyAyMy43OTgxIDcuMzg4IDIzLjc5ODEgNy4xNDZDMjMuNzk4MSA2LjkwNCAyMy44Nzg4IDYuNzEzMzMgMjQuMDQwMSA2LjU3NEMyNC4yMDE1IDYuNDI3MzMgMjQuNDIxNSA2LjM1NCAyNC43MDAxIDYuMzU0QzI0Ljk3ODggNi4zNTQgMjUuMTk4OCA2LjQyNzMzIDI1LjM2MDEgNi41NzRDMjUuNTIxNSA2LjcxMzMzIDI1LjYwMjEgNi45MDQgMjUuNjAyMSA3LjE0NkMyNS42MDIxIDcuMzg4IDI1LjUyMTUgNy41ODIzMyAyNS4zNjAxIDcuNzI5QzI1LjE5ODggNy44NjgzMyAyNC45Nzg4IDcuOTM4IDI0LjcwMDEgNy45MzhaTTMwLjg0NDkgMTUuMDk5QzMwLjEyNjIgMTUuMDk5IDI5LjU1NzkgMTQuOTM3NyAyOS4xMzk5IDE0LjYxNUMyOC43MjE5IDE0LjI4NSAyOC41MTI5IDEzLjg0MTMgMjguNTEyOSAxMy4yODRIMjkuODY1OUMyOS44NjU5IDEzLjUxODcgMjkuOTUwMiAxMy42OTgzIDMwLjExODkgMTMuODIzQzMwLjI5NDkgMTMuOTQ3NyAzMC41MzY5IDE0LjAxIDMwLjg0NDkgMTQuMDFIMzEuMzI4OUMzMS42NTg5IDE0LjAxIDMxLjkxMTkgMTMuOTQ3NyAzMi4wODc5IDEzLjgyM0MzMi4yNzEyIDEzLjY5ODMgMzIuMzYyOSAxMy41MTg3IDMyLjM2MjkgMTMuMjg0QzMyLjM2MjkgMTMuMDY0IDMyLjMwMDUgMTIuOTAyNyAzMi4xNzU5IDEyLjhDMzIuMDUxMiAxMi42OSAzMS44NjA1IDEyLjYxNjcgMzEuNjAzOSAxMi41OEwzMC4wOTY5IDEyLjM4MkMyOS42MTI5IDEyLjMxNiAyOS4yMzg5IDEyLjEyOSAyOC45NzQ5IDExLjgyMUMyOC43MTgyIDExLjUxMyAyOC41ODk5IDExLjExMzMgMjguNTg5OSAxMC42MjJDMjguNTg5OSAxMC4wNSAyOC43ODA1IDkuNjEzNjcgMjkuMTYxOSA5LjMxM0MyOS41NDMyIDkuMDA1IDMwLjA5MzIgOC44NTEgMzAuODExOSA4Ljg1MUgzMS4zMTc5QzMxLjk5MjUgOC44NTEgMzIuNTM1MiA5LjAwNSAzMi45NDU5IDkuMzEzQzMzLjM1NjUgOS42MjEgMzMuNTY5MiAxMC4wMzE3IDMzLjU4MzkgMTAuNTQ1SDMyLjIxOTlDMzIuMjEyNSAxMC4zNTQzIDMyLjEyODIgMTAuMjA0IDMxLjk2NjkgMTAuMDk0QzMxLjgwNTUgOS45NzY2NyAzMS41ODkyIDkuOTE4IDMxLjMxNzkgOS45MThIMzAuODExOUMzMC41MTg1IDkuOTE4IDMwLjI5NDkgOS45ODAzMyAzMC4xNDA5IDEwLjEwNUMyOS45ODY5IDEwLjIyMjMgMjkuOTA5OSAxMC4zODM3IDI5LjkwOTkgMTAuNTg5QzI5LjkwOTkgMTAuNzcyMyAyOS45NjQ5IDEwLjkwOCAzMC4wNzQ5IDEwLjk5NkMzMC4xOTIyIDExLjA4NCAzMC4zNjA5IDExLjEzOSAzMC41ODA5IDExLjE2MUwzMS45OTk5IDExLjM1OUMzMi41NTcyIDExLjQyNSAzMi45NzUyIDExLjYyMyAzMy4yNTM5IDExLjk1M0MzMy41Mzk5IDEyLjI3NTcgMzMuNjgyOSAxMi43MTIgMzMuNjgyOSAxMy4yNjJDMzMuNjgyOSAxMy44NDg3IDMzLjQ4MTIgMTQuMzAzMyAzMy4wNzc5IDE0LjYyNkMzMi42ODE5IDE0Ljk0MTMgMzIuMDk4OSAxNS4wOTkgMzEuMzI4OSAxNS4wOTlIMzAuODQ0OVpNMzguMjk4NiAxNUMzNy43MzM5IDE1IDM3LjI4MjkgMTQuODM4NyAzNi45NDU2IDE0LjUxNkMzNi42MTU2IDE0LjE4NiAzNi40NTA2IDEzLjc0MjMgMzYuNDUwNiAxMy4xODVWMTAuMTkzSDM0Ljc3ODZWOC45NUgzNi40NTA2VjcuMjQ1SDM3LjgzNjZWOC45NUg0MC4yNDU2VjEwLjE5M0gzNy44MzY2VjEzLjE1MkMzNy44MzY2IDEzLjMyOCAzNy44ODQyIDEzLjQ3NDcgMzcuOTc5NiAxMy41OTJDMzguMDgyMiAxMy43MDIgMzguMjIxNiAxMy43NTcgMzguMzk3NiAxMy43NTdINDAuMTkwNlYxNUgzOC4yOTg2WiIvPiYjeGE7PC9zdmc+;" parent="1" vertex="1">
          <mxGeometry x="470.99900573730474" y="298.1117175292969" width="49" height="23" as="geometry" />
        </mxCell>
        <mxCell id="6Q_wfIdElCOlgVAC6Y2N-3" value="" style="shape=image;verticalLabelPosition=bottom;labelBackgroundColor=default;verticalAlign=top;aspect=fixed;imageAspect=0;image=data:image/svg+xml,PHN2ZyB4bWxucz0iaHR0cDovL3d3dy53My5vcmcvMjAwMC9zdmciIGZpbGw9Im5vbmUiIHZpZXdCb3g9IjAgMCA5NiA0NCIgaGVpZ2h0PSI0NCIgd2lkdGg9Ijk2Ij4mI3hhOzxyZWN0IGZpbGw9IiNGQ0ZDRkMiIHJ4PSIzIiBoZWlnaHQ9IjQyIiB3aWR0aD0iOTQiIHk9IjEiIHg9IjEiLz4mI3hhOzxyZWN0IHN0cm9rZS13aWR0aD0iMiIgc3Ryb2tlPSJibGFjayIgcng9IjMiIGhlaWdodD0iNDIiIHdpZHRoPSI5NCIgeT0iMSIgeD0iMSIvPiYjeGE7PGcgY2xpcC1wYXRoPSJ1cmwoI2NsaXAwXzE0M181MjE5KSI+JiN4YTs8cGF0aCBmaWxsPSIjMTgxNjE2IiBkPSJNMjIuMDAwMSAxMi43OTc0QzE2Ljc4OTYgMTIuNzk3NCAxMi41NjQ1IDE3LjAyMTYgMTIuNTY0NSAyMi4yMzNDMTIuNTY0NSAyNi40MDIxIDE1LjI2OCAyOS45Mzg4IDE5LjAxNzEgMzEuMTg2NkMxOS40ODg1IDMxLjI3NDEgMTkuNjYxNiAzMC45ODE5IDE5LjY2MTYgMzAuNzMyN0MxOS42NjE2IDMwLjUwNzcgMTkuNjUyOSAyOS43NjQ0IDE5LjY0ODggMjguOTc2QzE3LjAyMzggMjkuNTQ2NyAxNi40Njk5IDI3Ljg2MjcgMTYuNDY5OSAyNy44NjI3QzE2LjA0MDcgMjYuNzcyMSAxNS40MjIzIDI2LjQ4MjEgMTUuNDIyMyAyNi40ODIxQzE0LjU2NiAyNS44OTY0IDE1LjQ4NjggMjUuOTA4NiAxNS40ODY4IDI1LjkwODZDMTYuNDM0MSAyNS45NzUgMTYuOTMzMiAyNi44ODEgMTYuOTMzMiAyNi44ODFDMTcuNzc0OCAyOC4zMjMxIDE5LjE0MDUgMjcuOTA2MyAxOS42NzkgMjcuNjY1M0MxOS43NjM3IDI3LjA1NTUgMjAuMDA4MiAyNi42MzkxIDIwLjI3OCAyNi40MDM1QzE4LjE4MjMgMjYuMTY1MiAxNS45NzkgMjUuMzU2IDE1Ljk3OSAyMS43NDA1QzE1Ljk3OSAyMC43MTAzIDE2LjM0NzcgMTkuODY4NiAxNi45NTEzIDE5LjIwNzdDMTYuODUzMiAxOC45NzAyIDE2LjUzMDIgMTguMDEwNSAxNy4wNDI2IDE2LjcxMDhDMTcuMDQyNiAxNi43MTA4IDE3LjgzNDggMTYuNDU3MiAxOS42Mzc5IDE3LjY3OEMyMC4zOTA3IDE3LjQ2ODggMjEuMTk4IDE3LjM2MzYgMjIuMDAwMSAxNy4zNkMyMi44MDE2IDE3LjM2MzYgMjMuNjA5NSAxNy40Njg1IDI0LjM2MzcgMTcuNjc3N0MyNi4xNjQ2IDE2LjQ1NjkgMjYuOTU1OSAxNi43MTA1IDI2Ljk1NTkgMTYuNzEwNUMyNy40Njk1IDE4LjAxIDI3LjE0NjUgMTguOTY5OSAyNy4wNDg1IDE5LjIwNzRDMjcuNjUzNSAxOS44NjgzIDI4LjAxOTYgMjAuNzEgMjguMDE5NiAyMS43NDAyQzI4LjAxOTYgMjUuMzY0MiAyNS44MTIzIDI2LjE2MjEgMjMuNzExMiAyNi4zOTU4QzI0LjA0OTggMjYuNjg4NiAyNC4zNTEzIDI3LjI2MyAyNC4zNTEzIDI4LjE0MzFDMjQuMzUxMyAyOS40MDU2IDI0LjM0MDQgMzAuNDIxNyAyNC4zNDA0IDMwLjczMjVDMjQuMzQwNCAzMC45ODM2IDI0LjUxMDQgMzEuMjc3OCAyNC45ODg1IDMxLjE4NTJDMjguNzM1NCAyOS45MzYxIDMxLjQzNTkgMjYuNDAwNSAzMS40MzU5IDIyLjIzM0MzMS40MzU3IDE3LjAyMTkgMjcuMjExIDEyLjc5NzQgMjIuMDAwMSAxMi43OTc0WiIgY2xpcC1ydWxlPSJldmVub2RkIiBmaWxsLXJ1bGU9ImV2ZW5vZGQiLz4mI3hhOzxwYXRoIGZpbGw9IiMxODE2MTYiIGQ9Ik0xNi4xMzgxIDI2LjM0NDdDMTYuMTE3MyAyNi4zOTE1IDE2LjA0MzYgMjYuNDA1NiAxNS45NzY0IDI2LjM3MzZDMTUuOTA3NyAyNi4zNDI5IDE1Ljg2OTQgMjYuMjc5IDE1Ljg5MTYgMjYuMjMyQzE1LjkxMTkgMjYuMTgzNiAxNS45ODU4IDI2LjE3MDMgMTYuMDU0MSAyNi4yMDI2QzE2LjEyMjggMjYuMjMzNCAxNi4xNjE5IDI2LjI5NzkgMTYuMTM4IDI2LjM0NDhMMTYuMTM4MSAyNi4zNDQ3Wk0xNi41MjAzIDI2Ljc3MTFDMTYuNDc1NSAyNi44MTI4IDE2LjM4NzUgMjYuNzkzNCAxNi4zMjc4IDI2LjcyNzNDMTYuMjY1OSAyNi42NjE3IDE2LjI1NDQgMjYuNTczNyAxNi4zMDAyIDI2LjUzMTRDMTYuMzQ2NyAyNi40ODk4IDE2LjQzMiAyNi41MDk1IDE2LjQ5MzkgMjYuNTc1MUMxNi41NTU1IDI2LjY0MTcgMTYuNTY3NyAyNi43Mjg5IDE2LjUyMDUgMjYuNzcxMkwxNi41MjAzIDI2Ljc3MTFaTTE2Ljg5MjUgMjcuMzE0M0MxNi44MzQ3IDI3LjM1NDcgMTYuNzQgMjcuMzE3IDE2LjY4MTYgMjcuMjMzMUMxNi42MjM3IDI3LjE0OSAxNi42MjM3IDI3LjA0ODMgMTYuNjgzMSAyNy4wMDgxQzE2Ljc0MTQgMjYuOTY3OCAxNi44MzQ3IDI3LjAwNDIgMTYuODk0MSAyNy4wODczQzE2Ljk1MTYgMjcuMTcyNSAxNi45NTE2IDI3LjI3MzQgMTYuODkyNSAyNy4zMTQzWk0xNy40MDIgMjcuODM5NUMxNy4zNTA1IDI3Ljg5NjUgMTcuMjQwMiAyNy44ODEyIDE3LjE1OTUgMjcuODAzNkMxNy4wNzcyIDI3LjcyNzUgMTcuMDU0MiAyNy42MTkyIDE3LjEwNTkgMjcuNTYyM0MxNy4xNTg0IDI3LjUwNTEgMTcuMjY5MiAyNy41MjExIDE3LjM1MDMgMjcuNTk4M0MxNy40MzI3IDI3LjY3NDIgMTcuNDU3NSAyNy43ODI2IDE3LjQwMjMgMjcuODM5M0wxNy40MDIgMjcuODM5NVpNMTguMTA1MiAyOC4xNDQzQzE4LjA4MjIgMjguMjE4MyAxNy45NzYyIDI4LjI1MTggMTcuODY5MiAyOC4yMjAzQzE3Ljc2MjUgMjguMTg3OSAxNy42OTI3IDI4LjEwMTUgMTcuNzE0NSAyOC4wMjY4QzE3LjczNjQgMjcuOTUyMyAxNy44NDMxIDI3LjkxNzUgMTcuOTUwOCAyNy45NTExQzE4LjA1NzUgMjcuOTgzMyAxOC4xMjczIDI4LjA2OTIgMTguMTA1MiAyOC4xNDQzWk0xOC44Nzc1IDI4LjIwMDhDMTguODgwMiAyOC4yNzg2IDE4Ljc4OTUgMjguMzQyOSAxOC42Nzc1IDI4LjM0NDVDMTguNTY0NSAyOC4zNDcyIDE4LjQ3MzEgMjguMjg0IDE4LjQ3MiAyOC4yMDc1QzE4LjQ3MiAyOC4xMjg5IDE4LjU2MDggMjguMDY1MyAxOC42NzM2IDI4LjA2MzFDMTguNzg1NiAyOC4wNjExIDE4Ljg3NzcgMjguMTIzNiAxOC44Nzc3IDI4LjIwMDZMMTguODc3NSAyOC4yMDA4Wk0xOS41OTU5IDI4LjA3ODZDMTkuNjA5NCAyOC4xNTQzIDE5LjUzMTQgMjguMjMyMyAxOS40MiAyOC4yNTMxQzE5LjMxMDYgMjguMjczNCAxOS4yMDkxIDI4LjIyNjIgMTkuMTk1IDI4LjE1MTFDMTkuMTgxNiAyOC4wNzMzIDE5LjI2MDkgMjcuOTk1MyAxOS4zNzAzIDI3Ljk3NTFDMTkuNDgxOSAyNy45NTU5IDE5LjU4MTkgMjguMDAxNSAxOS41OTU5IDI4LjA3ODZaIi8+JiN4YTs8L2c+JiN4YTs8cGF0aCBmaWxsPSJibGFjayIgZD0iTTQ3LjU1NjkgMjUuNjFDNDcuMDM2MiAyNS42MSA0Ni41ODUyIDI1LjUxNDcgNDYuMjAzOSAyNS4zMjRDNDUuODIyNiAyNS4xMjYgNDUuNTI1NiAyNC44NTEgNDUuMzEyOSAyNC40OTlDNDUuMTA3NiAyNC4xMzk3IDQ1LjAwNDkgMjMuNzE4IDQ1LjAwNDkgMjMuMjM0VjE5LjczNkM0NS4wMDQ5IDE5LjI1MiA0NS4xMDc2IDE4LjgzNCA0NS4zMTI5IDE4LjQ4MkM0NS41MjU2IDE4LjEyMjcgNDUuODIyNiAxNy44NDc3IDQ2LjIwMzkgMTcuNjU3QzQ2LjU4NTIgMTcuNDU5IDQ3LjAzNjIgMTcuMzYgNDcuNTU2OSAxNy4zNkM0OC4wNzAyIDE3LjM2IDQ4LjUxNzYgMTcuNDU5IDQ4Ljg5ODkgMTcuNjU3QzQ5LjI4MDIgMTcuODQ3NyA0OS41NzcyIDE4LjEyMjcgNDkuNzg5OSAxOC40ODJDNTAuMDAyNiAxOC44MzQgNTAuMTA4OSAxOS4yNTIgNTAuMTA4OSAxOS43MzZINDguNzIyOUM0OC43MjI5IDE5LjM2MiA0OC42MjAyIDE5LjA3NiA0OC40MTQ5IDE4Ljg3OEM0OC4yMTY5IDE4LjY3MjcgNDcuOTMwOSAxOC41NyA0Ny41NTY5IDE4LjU3QzQ3LjE4MjkgMTguNTcgNDYuODkzMiAxOC42NjkgNDYuNjg3OSAxOC44NjdDNDYuNDgyNiAxOS4wNjUgNDYuMzc5OSAxOS4zNTEgNDYuMzc5OSAxOS43MjVWMjMuMjM0QzQ2LjM3OTkgMjMuNjA4IDQ2LjQ4MjYgMjMuODk3NyA0Ni42ODc5IDI0LjEwM0M0Ni44OTMyIDI0LjMwODMgNDcuMTgyOSAyNC40MTEgNDcuNTU2OSAyNC40MTFDNDcuOTMwOSAyNC40MTEgNDguMjE2OSAyNC4zMDgzIDQ4LjQxNDkgMjQuMTAzQzQ4LjYyMDIgMjMuODk3NyA0OC43MjI5IDIzLjYwOCA0OC43MjI5IDIzLjIzNFYyMi4zNDNINDcuMzU4OVYyMS4xNTVINTAuMTA4OVYyMy4yMzRDNTAuMTA4OSAyMy43MTggNTAuMDAyNiAyNC4xMzk3IDQ5Ljc4OTkgMjQuNDk5QzQ5LjU3NzIgMjQuODUxIDQ5LjI4MDIgMjUuMTI2IDQ4Ljg5ODkgMjUuMzI0QzQ4LjUxNzYgMjUuNTE0NyA0OC4wNzAyIDI1LjYxIDQ3LjU1NjkgMjUuNjFaTTUxLjY0NDYgMjUuNVYyNC4yNTdINTMuNzEyNlYyMC42OTNINTEuODY0NlYxOS40NUg1NS4wODc2VjI0LjI1N0g1Ni45NDY2VjI1LjVINTEuNjQ0NlpNNTQuMzA2NiAxOC40MzhDNTQuMDI3OSAxOC40MzggNTMuODA3OSAxOC4zNjgzIDUzLjY0NjYgMTguMjI5QzUzLjQ4NTMgMTguMDgyMyA1My40MDQ2IDE3Ljg4OCA1My40MDQ2IDE3LjY0NkM1My40MDQ2IDE3LjQwNCA1My40ODUzIDE3LjIxMzMgNTMuNjQ2NiAxNy4wNzRDNTMuODA3OSAxNi45MjczIDU0LjAyNzkgMTYuODU0IDU0LjMwNjYgMTYuODU0QzU0LjU4NTMgMTYuODU0IDU0LjgwNTMgMTYuOTI3MyA1NC45NjY2IDE3LjA3NEM1NS4xMjc5IDE3LjIxMzMgNTUuMjA4NiAxNy40MDQgNTUuMjA4NiAxNy42NDZDNTUuMjA4NiAxNy44ODggNTUuMTI3OSAxOC4wODIzIDU0Ljk2NjYgMTguMjI5QzU0LjgwNTMgMTguMzY4MyA1NC41ODUzIDE4LjQzOCA1NC4zMDY2IDE4LjQzOFpNNjEuMzA5MyAyNS41QzYwLjc0NDYgMjUuNSA2MC4yOTM2IDI1LjMzODcgNTkuOTU2MyAyNS4wMTZDNTkuNjI2MyAyNC42ODYgNTkuNDYxMyAyNC4yNDIzIDU5LjQ2MTMgMjMuNjg1VjIwLjY5M0g1Ny43ODkzVjE5LjQ1SDU5LjQ2MTNWMTcuNzQ1SDYwLjg0NzNWMTkuNDVINjMuMjU2M1YyMC42OTNINjAuODQ3M1YyMy42NTJDNjAuODQ3MyAyMy44MjggNjAuODk1IDIzLjk3NDcgNjAuOTkwMyAyNC4wOTJDNjEuMDkzIDI0LjIwMiA2MS4yMzIzIDI0LjI1NyA2MS40MDgzIDI0LjI1N0g2My4yMDEzVjI1LjVINjEuMzA5M1pNNjQuODQ3IDI1LjVWMTcuNDdINjYuMjIyVjIwLjcyNkg2OC4zNzhWMTcuNDdINjkuNzUzVjI1LjVINjguMzc4VjIxLjk2OUg2Ni4yMjJWMjUuNUg2NC44NDdaTTczLjg5NTcgMjUuNjFDNzMuMTI1NyAyNS42MSA3Mi41MjA3IDI1LjM5NzMgNzIuMDgwNyAyNC45NzJDNzEuNjQwNyAyNC41MzkzIDcxLjQyMDcgMjMuOTUyNyA3MS40MjA3IDIzLjIxMlYxOS40NUg3Mi43OTU3VjIzLjIwMUM3Mi43OTU3IDIzLjU4MjMgNzIuODkxIDIzLjg3OTMgNzMuMDgxNyAyNC4wOTJDNzMuMjcyNCAyNC4zMDQ3IDczLjU0MzcgMjQuNDExIDczLjg5NTcgMjQuNDExQzc0LjI0MDQgMjQuNDExIDc0LjUwOCAyNC4zMDQ3IDc0LjY5ODcgMjQuMDkyQzc0Ljg5NjcgMjMuODc5MyA3NC45OTU3IDIzLjU4MjMgNzQuOTk1NyAyMy4yMDFWMTkuNDVINzYuMzcwN1YyMy4yMTJDNzYuMzcwNyAyMy45NTI3IDc2LjE0NyAyNC41MzkzIDc1LjY5OTcgMjQuOTcyQzc1LjI1MjQgMjUuMzk3MyA3NC42NTEgMjUuNjEgNzMuODk1NyAyNS42MVpNODEuMDQxNCAyNS42MUM4MC42MTYxIDI1LjYxIDgwLjI2MDQgMjUuNTAzNyA3OS45NzQ0IDI1LjI5MUM3OS42ODg0IDI1LjA3ODMgNzkuNDkwNCAyNC43ODEzIDc5LjM4MDQgMjQuNFYyNS41SDc4LjAzODRWMTcuNDdINzkuNDEzNFYxOS4xNjRMNzkuMzY5NCAyMC41NUM3OS40ODY3IDIwLjE2ODcgNzkuNjg4NCAxOS44NzE3IDc5Ljk3NDQgMTkuNjU5QzgwLjI2NzcgMTkuNDQ2MyA4MC42MjM0IDE5LjM0IDgxLjA0MTQgMTkuMzRDODEuNjM1NCAxOS4zNCA4Mi4xMTIxIDE5LjU0OSA4Mi40NzE0IDE5Ljk2N0M4Mi44MzA3IDIwLjM4NSA4My4wMTA0IDIwLjk0OTcgODMuMDEwNCAyMS42NjFWMjMuM0M4My4wMTA0IDI0LjAwNCA4Mi44MjcxIDI0LjU2NSA4Mi40NjA0IDI0Ljk4M0M4Mi4xMDExIDI1LjQwMSA4MS42MjgxIDI1LjYxIDgxLjA0MTQgMjUuNjFaTTgwLjUyNDQgMjQuNDIyQzgwLjg3NjQgMjQuNDIyIDgxLjE0NzcgMjQuMzI2NyA4MS4zMzg0IDI0LjEzNkM4MS41MzY0IDIzLjk0NTMgODEuNjM1NCAyMy42NTIgODEuNjM1NCAyMy4yNTZWMjEuNjk0QzgxLjYzNTQgMjEuMjk4IDgxLjUzNjQgMjEuMDA0NyA4MS4zMzg0IDIwLjgxNEM4MS4xNDc3IDIwLjYyMzMgODAuODc2NCAyMC41MjggODAuNTI0NCAyMC41MjhDODAuMTcyNCAyMC41MjggNzkuODk3NCAyMC42MzQzIDc5LjY5OTQgMjAuODQ3Qzc5LjUwODcgMjEuMDU5NyA3OS40MTM0IDIxLjM2MDMgNzkuNDEzNCAyMS43NDlWMjMuMjAxQzc5LjQxMzQgMjMuNTg5NyA3OS41MDg3IDIzLjg5MDMgNzkuNjk5NCAyNC4xMDNDNzkuODk3NCAyNC4zMTU3IDgwLjE3MjQgMjQuNDIyIDgwLjUyNDQgMjQuNDIyWiIvPiYjeGE7PGRlZnM+JiN4YTs8Y2xpcFBhdGggaWQ9ImNsaXAwXzE0M181MjE5Ij4mI3hhOzxyZWN0IHRyYW5zZm9ybT0idHJhbnNsYXRlKDEyIDEyKSIgZmlsbD0id2hpdGUiIGhlaWdodD0iMjAiIHdpZHRoPSIyMCIvPiYjeGE7PC9jbGlwUGF0aD4mI3hhOzwvZGVmcz4mI3hhOzwvc3ZnPg==;" parent="1" vertex="1">
          <mxGeometry x="322.99900573730474" y="238.00171752929685" width="96" height="44" as="geometry" />
        </mxCell>
        <mxCell id="6Q_wfIdElCOlgVAC6Y2N-4" value="" style="shape=image;verticalLabelPosition=bottom;labelBackgroundColor=default;verticalAlign=top;aspect=fixed;imageAspect=0;image=data:image/svg+xml,PHN2ZyB4bWxucz0iaHR0cDovL3d3dy53My5vcmcvMjAwMC9zdmciIGZpbGw9Im5vbmUiIHZpZXdCb3g9IjAgMCAxNDkgNDQiIGhlaWdodD0iNDQiIHdpZHRoPSIxNDkiPiYjeGE7PHJlY3QgZmlsbD0iI0ZDRkNGQyIgcng9IjMiIGhlaWdodD0iNDIiIHdpZHRoPSIxNDciIHk9IjEiIHg9IjEiLz4mI3hhOzxyZWN0IHN0cm9rZS13aWR0aD0iMiIgc3Ryb2tlPSJibGFjayIgcng9IjMiIGhlaWdodD0iNDIiIHdpZHRoPSIxNDciIHk9IjEiIHg9IjEiLz4mI3hhOzxnIGNsaXAtcGF0aD0idXJsKCNjbGlwMF8xNDNfNTI1NCkiPiYjeGE7PHBhdGggZmlsbD0iIzIwODhGRiIgZD0iTTE2LjE2NjYgMTJDMTMuODcwMyAxMiAxMiAxMy44NzAzIDEyIDE2LjE2NjZDMTIgMTguMTc3NSAxMy40MzQ1IDE5Ljg2MiAxNS4zMzM0IDIwLjI0OTRWMjYuMTY2NkMxNS4zMzM0IDI4LjAwNTYgMTYuODQ1OSAyOS41IDE4LjY2NjYgMjkuNUgxOC42OTdDMTguOTAwNSAzMC45MDk4IDIwLjExODkgMzIgMjEuNTgzNCAzMkMyMy4xODk0IDMyIDI0LjUgMzAuNjg5NCAyNC41IDI5LjA4MzRDMjQuNSAyNy40Nzc1IDIzLjE4OTQgMjYuMTY2NiAyMS41ODM0IDI2LjE2NjZDMjAuMTE5MSAyNi4xNjY2IDE4LjkwMDYgMjcuMjU2NyAxOC42OTcgMjguNjY2NkgxOC42NjY2QzE3LjMwMTQgMjguNjY2NiAxNi4xNjY2IDI3LjU0OTEgMTYuMTY2NiAyNi4xNjY2VjIxLjk2NTVDMTYuNDM2MiAyMi4yNDA2IDE2Ljc1ODEgMjIuNDU5MSAxNy4xMTM0IDIyLjYwODJDMTcuNDY4NiAyMi43NTcyIDE3Ljg1MDEgMjIuODMzOCAxOC4yMzUzIDIyLjgzMzRIMTguNjk3QzE4LjkwMDYgMjQuMjQzMyAyMC4xMTg5IDI1LjMzMzQgMjEuNTgzNCAyNS4zMzM0QzIzLjA0NzggMjUuMzMzNCAyNC4yNjYxIDI0LjI0MzMgMjQuNDY5NCAyMi44MzM0SDI2LjE5N0MyNi40MDA2IDI0LjI0MzMgMjcuNjE4OSAyNS4zMzM0IDI5LjA4MzQgMjUuMzMzNEMzMC42ODk0IDI1LjMzMzQgMzIgMjQuMDIyNSAzMiAyMi40MTY2QzMyIDIwLjgxMDYgMzAuNjg5NCAxOS41IDI5LjA4MzQgMTkuNUMyNy42MTg5IDE5LjUgMjYuNDAwNSAyMC41OTAyIDI2LjE5NyAyMkgyNC40Njk1QzI0LjI2NjMgMjAuNTkwMiAyMy4wNDggMTkuNSAyMS41ODM0IDE5LjVDMjAuMTE4OSAxOS41IDE4LjkwMDUgMjAuNTkwMiAxOC42OTcgMjJIMTguMjM1M0MxNy4yMzAyIDIyIDE2LjM5MjcgMjEuMjgzIDE2LjIwNTkgMjAuMzMyNUMxOC40ODQxIDIwLjMxMTIgMjAuMzMzNCAxOC40NDk3IDIwLjMzMzQgMTYuMTY2NkMyMC4zMzM0IDEzLjg3MDMgMTguNDYyOCAxMiAxNi4xNjY2IDEyWk0xNi4xNjY2IDEyLjgzMzRDMTYuNjA0NSAxMi44MzI2IDE3LjAzODQgMTIuOTE4MiAxNy40NDMyIDEzLjA4NTRDMTcuODQ4IDEzLjI1MjYgMTguMjE1OCAxMy40OTgxIDE4LjUyNTUgMTMuODA3N0MxOC44MzUyIDE0LjExNzQgMTkuMDgwNyAxNC40ODUyIDE5LjI0NzkgMTQuODlDMTkuNDE1MiAxNS4yOTQ4IDE5LjUwMDggMTUuNzI4NiAxOS41IDE2LjE2NjZDMTkuNTAwOCAxNi42MDQ1IDE5LjQxNTIgMTcuMDM4NCAxOS4yNDc5IDE3LjQ0MzJDMTkuMDgwNyAxNy44NDggMTguODM1MiAxOC4yMTU4IDE4LjUyNTUgMTguNTI1NUMxOC4yMTU4IDE4LjgzNTIgMTcuODQ4IDE5LjA4MDcgMTcuNDQzMiAxOS4yNDc5QzE3LjAzODQgMTkuNDE1MiAxNi42MDQ1IDE5LjUwMDggMTYuMTY2NiAxOS41QzE1LjcyODYgMTkuNTAwOCAxNS4yOTQ4IDE5LjQxNTIgMTQuODkgMTkuMjQ3OUMxNC40ODUyIDE5LjA4MDcgMTQuMTE3NCAxOC44MzUyIDEzLjgwNzcgMTguNTI1NUMxMy40OTgxIDE4LjIxNTggMTMuMjUyNiAxNy44NDggMTMuMDg1NCAxNy40NDMyQzEyLjkxODIgMTcuMDM4NCAxMi44MzI2IDE2LjYwNDUgMTIuODMzNCAxNi4xNjY2QzEyLjgzMjYgMTUuNzI4NiAxMi45MTgyIDE1LjI5NDggMTMuMDg1NCAxNC44OUMxMy4yNTI2IDE0LjQ4NTIgMTMuNDk4MSAxNC4xMTc0IDEzLjgwNzggMTMuODA3OEMxNC4xMTc0IDEzLjQ5ODEgMTQuNDg1MiAxMy4yNTI2IDE0Ljg5IDEzLjA4NTRDMTUuMjk0OCAxMi45MTgyIDE1LjcyODYgMTIuODMyNiAxNi4xNjY2IDEyLjgzMzRaTTE1LjM1MTcgMTQuMDExN0MxNC45MTcyIDE0LjAxMzkgMTQuNSAxNC4zNjMgMTQuNSAxNC44Mzg0VjE3LjUwMTRDMTQuNSAxOC4xMzMxIDE1LjIzNTggMTguNTQyNSAxNS43NzI3IDE4LjIwOTdMMTcuOTAzIDE2Ljg4ODZDMTguNDExOSAxNi41NzMgMTguNDE0NSAxNS43OTQ1IDE3LjkwOCAxNS40NzUzTDE1Ljc3NzUgMTQuMTMzMUMxNS42NTAyIDE0LjA1MjYgMTUuNTAyNCAxNC4wMTA1IDE1LjM1MTcgMTQuMDExN1pNMTUuMzMzNCAxNC44Mzg0TDE3LjQ2MzkgMTYuMTgwM0wxNS4zMzM0IDE3LjUwMTRWMTQuODM4NFpNMjEuNTgzNCAyMC4zMzM0QzIxLjg1NzIgMjAuMzMyNiAyMi4xMjg1IDIwLjM4NTkgMjIuMzgxNiAyMC40OTAyQzIyLjYzNDggMjAuNTk0NiAyMi44NjQ4IDIwLjc0OCAyMy4wNTg0IDIwLjk0MTZDMjMuMjUyIDIxLjEzNTIgMjMuNDA1NCAyMS4zNjUyIDIzLjUwOTggMjEuNjE4NEMyMy42MTQxIDIxLjg3MTUgMjMuNjY3NCAyMi4xNDI4IDIzLjY2NjYgMjIuNDE2NkMyMy42Njc0IDIyLjY5MDQgMjMuNjE0MSAyMi45NjE3IDIzLjUwOTcgMjMuMjE0OEMyMy40MDUzIDIzLjQ2NzkgMjMuMjUxOSAyMy42OTc5IDIzLjA1ODMgMjMuODkxNkMyMi44NjQ3IDI0LjA4NTIgMjIuNjM0OCAyNC4yMzg2IDIyLjM4MTYgMjQuMzQzQzIyLjEyODUgMjQuNDQ3NSAyMS44NTcyIDI0LjUwMDggMjEuNTgzNCAyNC41QzIxLjMwOTYgMjQuNTAwOCAyMS4wMzgzIDI0LjQ0NzUgMjAuNzg1MiAyNC4zNDMxQzIwLjUzMiAyNC4yMzg3IDIwLjMwMiAyNC4wODUyIDIwLjEwODQgMjMuODkxNkMxOS45MTQ4IDIzLjY5OCAxOS43NjEzIDIzLjQ2OCAxOS42NTY5IDIzLjIxNDhDMTkuNTUyNSAyMi45NjE3IDE5LjQ5OTIgMjIuNjkwNCAxOS41IDIyLjQxNjZDMTkuNDk5MiAyMi4xNDI4IDE5LjU1MjUgMjEuODcxNSAxOS42NTcgMjEuNjE4NEMxOS43NjE0IDIxLjM2NTIgMTkuOTE0OCAyMS4xMzUzIDIwLjEwODQgMjAuOTQxN0MyMC4zMDIxIDIwLjc0ODEgMjAuNTMyMSAyMC41OTQ3IDIwLjc4NTIgMjAuNDkwM0MyMS4wMzgzIDIwLjM4NTkgMjEuMzA5NiAyMC4zMzI2IDIxLjU4MzQgMjAuMzMzNFpNMjkuMDgzNCAyMC4zMzM0QzI5LjM1NzIgMjAuMzMyNiAyOS42Mjg1IDIwLjM4NTkgMjkuODgxNiAyMC40OTAyQzMwLjEzNDggMjAuNTk0NiAzMC4zNjQ4IDIwLjc0OCAzMC41NTg0IDIwLjk0MTZDMzAuNzUyIDIxLjEzNTIgMzAuOTA1NCAyMS4zNjUyIDMxLjAwOTggMjEuNjE4NEMzMS4xMTQxIDIxLjg3MTUgMzEuMTY3NCAyMi4xNDI4IDMxLjE2NjYgMjIuNDE2NkMzMS4xNjc0IDIyLjY5MDQgMzEuMTE0MSAyMi45NjE3IDMxLjAwOTcgMjMuMjE0OEMzMC45MDUzIDIzLjQ2NzkgMzAuNzUxOSAyMy42OTc5IDMwLjU1ODMgMjMuODkxNkMzMC4zNjQ3IDI0LjA4NTIgMzAuMTM0OCAyNC4yMzg2IDI5Ljg4MTYgMjQuMzQzQzI5LjYyODUgMjQuNDQ3NSAyOS4zNTcyIDI0LjUwMDggMjkuMDgzNCAyNC41QzI4LjgwOTYgMjQuNTAwOCAyOC41MzgzIDI0LjQ0NzUgMjguMjg1MiAyNC4zNDMxQzI4LjAzMiAyNC4yMzg3IDI3LjgwMiAyNC4wODUyIDI3LjYwODQgMjMuODkxNkMyNy40MTQ4IDIzLjY5OCAyNy4yNjEzIDIzLjQ2OCAyNy4xNTY5IDIzLjIxNDhDMjcuMDUyNSAyMi45NjE3IDI2Ljk5OTIgMjIuNjkwNCAyNyAyMi40MTY2QzI2Ljk5OTIgMjIuMTQyOCAyNy4wNTI1IDIxLjg3MTUgMjcuMTU3IDIxLjYxODRDMjcuMjYxNCAyMS4zNjUyIDI3LjQxNDggMjEuMTM1MyAyNy42MDg0IDIwLjk0MTdDMjcuODAyMSAyMC43NDgxIDI4LjAzMjEgMjAuNTk0NyAyOC4yODUyIDIwLjQ5MDNDMjguNTM4MyAyMC4zODU5IDI4LjgwOTYgMjAuMzMyNiAyOS4wODM0IDIwLjMzMzRaTTIyLjQzMjIgMjEuNDE5NUMyMi4zNzc0IDIxLjQxOTUgMjIuMzIzMiAyMS40MzAyIDIyLjI3MjYgMjEuNDUxMUMyMi4yMjIgMjEuNDcyIDIyLjE3NjEgMjEuNTAyNyAyMi4xMzczIDIxLjU0MTRMMjEuMTUzIDIyLjUyNDhMMjAuODI1OSAyMi4xOTkyQzIwLjc0NzcgMjIuMTIxMiAyMC42NDE2IDIyLjA3NzUgMjAuNTMxMSAyMi4wNzc3QzIwLjQyMDYgMjIuMDc3OSAyMC4zMTQ3IDIyLjEyMTkgMjAuMjM2NyAyMi4yMDAyQzIwLjE5ODEgMjIuMjM4OSAyMC4xNjc1IDIyLjI4NDkgMjAuMTQ2NyAyMi4zMzU1QzIwLjEyNTggMjIuMzg2MiAyMC4xMTUyIDIyLjQ0MDQgMjAuMTE1MyAyMi40OTUxQzIwLjExNTQgMjIuNTQ5OCAyMC4xMjYzIDIyLjYwNCAyMC4xNDczIDIyLjY1NDVDMjAuMTY4NCAyMi43MDUgMjAuMTk5MiAyMi43NTA5IDIwLjIzOCAyMi43ODk1TDIwLjg1ODkgMjMuNDA4M0MyMC45MzcgMjMuNDg2MSAyMS4wNDI5IDIzLjUyOTggMjEuMTUzMiAyMy41Mjk4QzIxLjI2MzUgMjMuNTI5OCAyMS4zNjkzIDIzLjQ4NiAyMS40NDczIDIzLjQwODFMMjIuNzI2MyAyMi4xMzA5QzIyLjc2NSAyMi4wOTIzIDIyLjc5NTcgMjIuMDQ2MyAyMi44MTY3IDIxLjk5NThDMjIuODM3NiAyMS45NDUyIDIyLjg0ODUgMjEuODkxIDIyLjg0ODUgMjEuODM2M0MyMi44NDg1IDIxLjc4MTYgMjIuODM3OCAyMS43Mjc0IDIyLjgxNjggMjEuNjc2OEMyMi43OTU5IDIxLjYyNjIgMjIuNzY1MiAyMS41ODAzIDIyLjcyNjYgMjEuNTQxNkMyMi42NDg1IDIxLjQ2MzUgMjIuNTQyNiAyMS40MTk2IDIyLjQzMjIgMjEuNDE5NVpNMjkuOTMyMiAyMS40MTk1QzI5Ljg3NzQgMjEuNDE5NSAyOS44MjMyIDIxLjQzMDIgMjkuNzcyNiAyMS40NTExQzI5LjcyMiAyMS40NzIgMjkuNjc2MSAyMS41MDI3IDI5LjYzNzMgMjEuNTQxNEwyOC42NTMgMjIuNTI0OEwyOC4zMjU5IDIyLjE5OTJDMjguMjQ3NyAyMi4xMjEyIDI4LjE0MTYgMjIuMDc3NSAyOC4wMzExIDIyLjA3NzdDMjcuOTIwNiAyMi4wNzc5IDI3LjgxNDcgMjIuMTIxOSAyNy43MzY3IDIyLjIwMDJDMjcuNjk4MSAyMi4yMzg5IDI3LjY2NzUgMjIuMjg0OSAyNy42NDY3IDIyLjMzNTVDMjcuNjI1OCAyMi4zODYyIDI3LjYxNTIgMjIuNDQwNCAyNy42MTUzIDIyLjQ5NTFDMjcuNjE1NCAyMi41NDk4IDI3LjYyNjMgMjIuNjA0IDI3LjY0NzMgMjIuNjU0NUMyNy42Njg0IDIyLjcwNSAyNy42OTkyIDIyLjc1MDkgMjcuNzM4IDIyLjc4OTVMMjguMzU4OSAyMy40MDgzQzI4LjQzNyAyMy40ODYxIDI4LjU0MjkgMjMuNTI5OCAyOC42NTMyIDIzLjUyOThDMjguNzYzNSAyMy41Mjk4IDI4Ljg2OTMgMjMuNDg2IDI4Ljk0NzMgMjMuNDA4MUwzMC4yMjYzIDIyLjEzMDlDMzAuMjY1IDIyLjA5MjMgMzAuMjk1NyAyMi4wNDYzIDMwLjMxNjcgMjEuOTk1OEMzMC4zMzc2IDIxLjk0NTIgMzAuMzQ4NSAyMS44OTEgMzAuMzQ4NSAyMS44MzYzQzMwLjM0ODUgMjEuNzgxNiAzMC4zMzc4IDIxLjcyNzQgMzAuMzE2OCAyMS42NzY4QzMwLjI5NTkgMjEuNjI2MiAzMC4yNjUyIDIxLjU4MDMgMzAuMjI2NiAyMS41NDE2QzMwLjE0ODUgMjEuNDYzNSAzMC4wNDI2IDIxLjQxOTYgMjkuOTMyMiAyMS40MTk1Wk0yMS41ODM0IDI3QzIxLjg1NzIgMjYuOTk5MiAyMi4xMjg1IDI3LjA1MjUgMjIuMzgxNiAyNy4xNTdDMjIuNjM0OCAyNy4yNjE0IDIyLjg2NDcgMjcuNDE0OCAyMy4wNTgzIDI3LjYwODRDMjMuMjUxOSAyNy44MDIxIDIzLjQwNTMgMjguMDMyMSAyMy41MDk3IDI4LjI4NTJDMjMuNjE0MSAyOC41MzgzIDIzLjY2NzQgMjguODA5NiAyMy42NjY2IDI5LjA4MzRDMjMuNjY3NCAyOS4zNTcyIDIzLjYxNDEgMjkuNjI4NSAyMy41MDk4IDI5Ljg4MTZDMjMuNDA1NCAzMC4xMzQ4IDIzLjI1MiAzMC4zNjQ4IDIzLjA1ODQgMzAuNTU4NEMyMi44NjQ4IDMwLjc1MiAyMi42MzQ4IDMwLjkwNTQgMjIuMzgxNiAzMS4wMDk4QzIyLjEyODUgMzEuMTE0MSAyMS44NTcyIDMxLjE2NzQgMjEuNTgzNCAzMS4xNjY2QzIxLjMwOTYgMzEuMTY3NCAyMS4wMzgzIDMxLjExNDEgMjAuNzg1MiAzMS4wMDk3QzIwLjUzMjEgMzAuOTA1MyAyMC4zMDIxIDMwLjc1MTkgMjAuMTA4NCAzMC41NTgzQzE5LjkxNDggMzAuMzY0NyAxOS43NjE0IDMwLjEzNDggMTkuNjU3IDI5Ljg4MTZDMTkuNTUyNSAyOS42Mjg1IDE5LjQ5OTIgMjkuMzU3MiAxOS41IDI5LjA4MzRDMTkuNDk5MiAyOC44MDk2IDE5LjU1MjUgMjguNTM4MyAxOS42NTY5IDI4LjI4NTJDMTkuNzYxMyAyOC4wMzIgMTkuOTE0OCAyNy44MDIgMjAuMTA4NCAyNy42MDg0QzIwLjMwMiAyNy40MTQ4IDIwLjUzMiAyNy4yNjEzIDIwLjc4NTIgMjcuMTU2OUMyMS4wMzgzIDI3LjA1MjUgMjEuMzA5NiAyNi45OTkyIDIxLjU4MzQgMjdaTTIwLjc1IDI4LjQ1ODRDMjAuNDA3MyAyOC40NTg0IDIwLjEyNSAyOC43NDA4IDIwLjEyNSAyOS4wODM0QzIwLjEyNSAyOS40MjY0IDIwLjQwNzUgMjkuNzA4NCAyMC43NSAyOS43MDg0QzIxLjA5MjUgMjkuNzA4NCAyMS4zNzUgMjkuNDI2NCAyMS4zNzUgMjkuMDgzNEMyMS4zNzUgMjguNzQwOCAyMS4wOTI3IDI4LjQ1ODQgMjAuNzUgMjguNDU4NFpNMjIuNDE2NiAyOC40NTg0QzIyLjA3MzkgMjguNDU4NCAyMS43OTE2IDI4Ljc0MDggMjEuNzkxNiAyOS4wODM0QzIxLjc5MTYgMjkuNDI2NCAyMi4wNzQxIDI5LjcwODQgMjIuNDE2NiAyOS43MDg0QzIyLjc1OTEgMjkuNzA4NCAyMy4wNDE2IDI5LjQyNjQgMjMuMDQxNiAyOS4wODM0QzIzLjA0MTYgMjguNzQwOCAyMi43NTkyIDI4LjQ1ODQgMjIuNDE2NiAyOC40NTg0Wk0yMC43NSAyOC44NzVDMjAuODY3MiAyOC44NzUgMjAuOTU4NCAyOC45NjY0IDIwLjk1ODQgMjkuMDgzNEMyMC45NTg0IDI5LjIwMTEgMjAuODY3MyAyOS4yOTE2IDIwLjc1IDI5LjI5MTZDMjAuNjMyOCAyOS4yOTE2IDIwLjU0MTYgMjkuMjAwOSAyMC41NDE2IDI5LjA4MzRDMjAuNTQxNiAyOC45NjYyIDIwLjYzMyAyOC44NzUgMjAuNzUgMjguODc1Wk0yMi40MTY2IDI4Ljg3NUMyMi41MzM4IDI4Ljg3NSAyMi42MjUgMjguOTY2NCAyMi42MjUgMjkuMDgzNEMyMi42MjUgMjkuMjAxMSAyMi41MzM5IDI5LjI5MTYgMjIuNDE2NiAyOS4yOTE2QzIyLjI5OTQgMjkuMjkxNiAyMi4yMDg0IDI5LjIwMDkgMjIuMjA4NCAyOS4wODM0QzIyLjIwODQgMjguOTY2MiAyMi4yOTk1IDI4Ljg3NSAyMi40MTY2IDI4Ljg3NVoiLz4mI3hhOzxwYXRoIGZpbGw9IiM3OUI4RkYiIGQ9Ik0yOS4wODM0IDI2LjE2NjVDMjcuNjE3MyAyNi4xNjY1IDI2LjM5NzggMjcuMjU5MiAyNi4xOTY0IDI4LjY3MTNDMjYuMTgyNiAyOC42NzAxIDI2LjE2ODggMjguNjY5NSAyNi4xNTUgMjguNjY5NkwyNS43MzMxIDI4LjY4MzdDMjUuNjIyNyAyOC42ODczIDI1LjUxODMgMjguNzM0NiAyNS40NDI3IDI4LjgxNTJDMjUuMzY3MiAyOC44OTU4IDI1LjMyNjggMjkuMDAzMSAyNS4zMzAzIDI5LjExMzVDMjUuMzMzOSAyOS4yMjQgMjUuMzgxMyAyOS4zMjg0IDI1LjQ2MTkgMjkuNDA0QzI1LjU0MjUgMjkuNDc5NSAyNS42NDk5IDI5LjUxOTkgMjUuNzYwMyAyOS41MTYzTDI2LjE4MjIgMjkuNTAyOEMyNi4xODcyIDI5LjUwMjUgMjYuMTkyMyAyOS41MDIyIDI2LjE5NzMgMjkuNTAxOEMyNi40MDE1IDMwLjkxMDcgMjcuNjE5NSAzMS45OTk5IDI5LjA4MzQgMzEuOTk5OUMzMC42ODk0IDMxLjk5OTkgMzIgMzAuNjg5MyAzMiAyOS4wODM0QzMyIDI3LjQ3NzQgMzAuNjg5NCAyNi4xNjY1IDI5LjA4MzQgMjYuMTY2NVpNMjkuMDgzNCAyNi45OTk5QzI5LjM1NzIgMjYuOTk5MSAyOS42Mjg1IDI3LjA1MjUgMjkuODgxNiAyNy4xNTY5QzMwLjEzNDcgMjcuMjYxMyAzMC4zNjQ3IDI3LjQxNDggMzAuNTU4MyAyNy42MDg0QzMwLjc1MTkgMjcuODAyIDMwLjkwNTMgMjguMDMyIDMxLjAwOTcgMjguMjg1MkMzMS4xMTQxIDI4LjUzODMgMzEuMTY3NCAyOC44MDk2IDMxLjE2NjUgMjkuMDgzNEMzMS4xNjc0IDI5LjM1NzIgMzEuMTE0MSAyOS42Mjg1IDMxLjAwOTcgMjkuODgxNkMzMC45MDU0IDMwLjEzNDcgMzAuNzUyIDMwLjM2NDcgMzAuNTU4MyAzMC41NTgzQzMwLjM2NDcgMzAuNzUxOSAzMC4xMzQ3IDMwLjkwNTMgMjkuODgxNiAzMS4wMDk3QzI5LjYyODUgMzEuMTE0MSAyOS4zNTcyIDMxLjE2NzQgMjkuMDgzNCAzMS4xNjY1QzI4LjgwOTYgMzEuMTY3MyAyOC41MzgzIDMxLjExNCAyOC4yODUyIDMxLjAwOTdDMjguMDMyMSAzMC45MDUzIDI3LjgwMjEgMzAuNzUxOSAyNy42MDg0IDMwLjU1ODNDMjcuNDE0OCAzMC4zNjQ3IDI3LjI2MTQgMzAuMTM0NyAyNy4xNTY5IDI5Ljg4MTZDMjcuMDUyNSAyOS42Mjg1IDI2Ljk5OTIgMjkuMzU3MiAyNyAyOS4wODM0QzI2Ljk5OTIgMjguODA5NSAyNy4wNTI1IDI4LjUzODMgMjcuMTU2OSAyOC4yODUxQzI3LjI2MTMgMjguMDMyIDI3LjQxNDcgMjcuODAyIDI3LjYwODQgMjcuNjA4M0MyNy44MDIgMjcuNDE0NyAyOC4wMzIgMjcuMjYxMyAyOC4yODUxIDI3LjE1NjlDMjguNTM4MyAyNy4wNTI0IDI4LjgwOTYgMjYuOTk5MSAyOS4wODM0IDI2Ljk5OTlaIi8+JiN4YTs8L2c+JiN4YTs8cGF0aCBmaWxsPSJibGFjayIgZD0iTTQ3LjY3NDEgMjUuNjFDNDcuMTUzNCAyNS42MSA0Ni43MDI0IDI1LjUxNDcgNDYuMzIxMSAyNS4zMjRDNDUuOTM5NyAyNS4xMjYgNDUuNjQyNyAyNC44NTEgNDUuNDMwMSAyNC40OTlDNDUuMjI0NyAyNC4xMzk3IDQ1LjEyMjEgMjMuNzE4IDQ1LjEyMjEgMjMuMjM0VjE5LjczNkM0NS4xMjIxIDE5LjI1MiA0NS4yMjQ3IDE4LjgzNCA0NS40MzAxIDE4LjQ4MkM0NS42NDI3IDE4LjEyMjcgNDUuOTM5NyAxNy44NDc3IDQ2LjMyMTEgMTcuNjU3QzQ2LjcwMjQgMTcuNDU5IDQ3LjE1MzQgMTcuMzYgNDcuNjc0MSAxNy4zNkM0OC4xODc0IDE3LjM2IDQ4LjYzNDcgMTcuNDU5IDQ5LjAxNjEgMTcuNjU3QzQ5LjM5NzQgMTcuODQ3NyA0OS42OTQ0IDE4LjEyMjcgNDkuOTA3MSAxOC40ODJDNTAuMTE5NyAxOC44MzQgNTAuMjI2MSAxOS4yNTIgNTAuMjI2MSAxOS43MzZINDguODQwMUM0OC44NDAxIDE5LjM2MiA0OC43Mzc0IDE5LjA3NiA0OC41MzIxIDE4Ljg3OEM0OC4zMzQxIDE4LjY3MjcgNDguMDQ4MSAxOC41NyA0Ny42NzQxIDE4LjU3QzQ3LjMwMDEgMTguNTcgNDcuMDEwNCAxOC42NjkgNDYuODA1MSAxOC44NjdDNDYuNTk5NyAxOS4wNjUgNDYuNDk3MSAxOS4zNTEgNDYuNDk3MSAxOS43MjVWMjMuMjM0QzQ2LjQ5NzEgMjMuNjA4IDQ2LjU5OTcgMjMuODk3NyA0Ni44MDUxIDI0LjEwM0M0Ny4wMTA0IDI0LjMwODMgNDcuMzAwMSAyNC40MTEgNDcuNjc0MSAyNC40MTFDNDguMDQ4MSAyNC40MTEgNDguMzM0MSAyNC4zMDgzIDQ4LjUzMjEgMjQuMTAzQzQ4LjczNzQgMjMuODk3NyA0OC44NDAxIDIzLjYwOCA0OC44NDAxIDIzLjIzNFYyMi4zNDNINDcuNDc2MVYyMS4xNTVINTAuMjI2MVYyMy4yMzRDNTAuMjI2MSAyMy43MTggNTAuMTE5NyAyNC4xMzk3IDQ5LjkwNzEgMjQuNDk5QzQ5LjY5NDQgMjQuODUxIDQ5LjM5NzQgMjUuMTI2IDQ5LjAxNjEgMjUuMzI0QzQ4LjYzNDcgMjUuNTE0NyA0OC4xODc0IDI1LjYxIDQ3LjY3NDEgMjUuNjFaTTUxLjc2MTggMjUuNVYyNC4yNTdINTMuODI5OFYyMC42OTNINTEuOTgxOFYxOS40NUg1NS4yMDQ4VjI0LjI1N0g1Ny4wNjM4VjI1LjVINTEuNzYxOFpNNTQuNDIzOCAxOC40MzhDNTQuMTQ1MSAxOC40MzggNTMuOTI1MSAxOC4zNjgzIDUzLjc2MzggMTguMjI5QzUzLjYwMjQgMTguMDgyMyA1My41MjE4IDE3Ljg4OCA1My41MjE4IDE3LjY0NkM1My41MjE4IDE3LjQwNCA1My42MDI0IDE3LjIxMzMgNTMuNzYzOCAxNy4wNzRDNTMuOTI1MSAxNi45MjczIDU0LjE0NTEgMTYuODU0IDU0LjQyMzggMTYuODU0QzU0LjcwMjQgMTYuODU0IDU0LjkyMjQgMTYuOTI3MyA1NS4wODM4IDE3LjA3NEM1NS4yNDUxIDE3LjIxMzMgNTUuMzI1OCAxNy40MDQgNTUuMzI1OCAxNy42NDZDNTUuMzI1OCAxNy44ODggNTUuMjQ1MSAxOC4wODIzIDU1LjA4MzggMTguMjI5QzU0LjkyMjQgMTguMzY4MyA1NC43MDI0IDE4LjQzOCA1NC40MjM4IDE4LjQzOFpNNjEuNDI2NSAyNS41QzYwLjg2MTggMjUuNSA2MC40MTA4IDI1LjMzODcgNjAuMDczNSAyNS4wMTZDNTkuNzQzNSAyNC42ODYgNTkuNTc4NSAyNC4yNDIzIDU5LjU3ODUgMjMuNjg1VjIwLjY5M0g1Ny45MDY1VjE5LjQ1SDU5LjU3ODVWMTcuNzQ1SDYwLjk2NDVWMTkuNDVINjMuMzczNVYyMC42OTNINjAuOTY0NVYyMy42NTJDNjAuOTY0NSAyMy44MjggNjEuMDEyMiAyMy45NzQ3IDYxLjEwNzUgMjQuMDkyQzYxLjIxMDIgMjQuMjAyIDYxLjM0OTUgMjQuMjU3IDYxLjUyNTUgMjQuMjU3SDYzLjMxODVWMjUuNUg2MS40MjY1Wk02NC45NjQyIDI1LjVWMTcuNDdINjYuMzM5MlYyMC43MjZINjguNDk1MlYxNy40N0g2OS44NzAyVjI1LjVINjguNDk1MlYyMS45NjlINjYuMzM5MlYyNS41SDY0Ljk2NDJaTTc0LjAxMjkgMjUuNjFDNzMuMjQyOSAyNS42MSA3Mi42Mzc5IDI1LjM5NzMgNzIuMTk3OSAyNC45NzJDNzEuNzU3OSAyNC41MzkzIDcxLjUzNzkgMjMuOTUyNyA3MS41Mzc5IDIzLjIxMlYxOS40NUg3Mi45MTI5VjIzLjIwMUM3Mi45MTI5IDIzLjU4MjMgNzMuMDA4MiAyMy44NzkzIDczLjE5ODkgMjQuMDkyQzczLjM4OTYgMjQuMzA0NyA3My42NjA5IDI0LjQxMSA3NC4wMTI5IDI0LjQxMUM3NC4zNTc2IDI0LjQxMSA3NC42MjUyIDI0LjMwNDcgNzQuODE1OSAyNC4wOTJDNzUuMDEzOSAyMy44NzkzIDc1LjExMjkgMjMuNTgyMyA3NS4xMTI5IDIzLjIwMVYxOS40NUg3Ni40ODc5VjIzLjIxMkM3Ni40ODc5IDIzLjk1MjcgNzYuMjY0MiAyNC41MzkzIDc1LjgxNjkgMjQuOTcyQzc1LjM2OTYgMjUuMzk3MyA3NC43NjgyIDI1LjYxIDc0LjAxMjkgMjUuNjFaTTgxLjE1ODYgMjUuNjFDODAuNzMzMyAyNS42MSA4MC4zNzc2IDI1LjUwMzcgODAuMDkxNiAyNS4yOTFDNzkuODA1NiAyNS4wNzgzIDc5LjYwNzYgMjQuNzgxMyA3OS40OTc2IDI0LjRWMjUuNUg3OC4xNTU2VjE3LjQ3SDc5LjUzMDZWMTkuMTY0TDc5LjQ4NjYgMjAuNTVDNzkuNjAzOSAyMC4xNjg3IDc5LjgwNTYgMTkuODcxNyA4MC4wOTE2IDE5LjY1OUM4MC4zODQ5IDE5LjQ0NjMgODAuNzQwNiAxOS4zNCA4MS4xNTg2IDE5LjM0QzgxLjc1MjYgMTkuMzQgODIuMjI5MyAxOS41NDkgODIuNTg4NiAxOS45NjdDODIuOTQ3OSAyMC4zODUgODMuMTI3NiAyMC45NDk3IDgzLjEyNzYgMjEuNjYxVjIzLjNDODMuMTI3NiAyNC4wMDQgODIuOTQ0MyAyNC41NjUgODIuNTc3NiAyNC45ODNDODIuMjE4MyAyNS40MDEgODEuNzQ1MyAyNS42MSA4MS4xNTg2IDI1LjYxWk04MC42NDE2IDI0LjQyMkM4MC45OTM2IDI0LjQyMiA4MS4yNjQ5IDI0LjMyNjcgODEuNDU1NiAyNC4xMzZDODEuNjUzNiAyMy45NDUzIDgxLjc1MjYgMjMuNjUyIDgxLjc1MjYgMjMuMjU2VjIxLjY5NEM4MS43NTI2IDIxLjI5OCA4MS42NTM2IDIxLjAwNDcgODEuNDU1NiAyMC44MTRDODEuMjY0OSAyMC42MjMzIDgwLjk5MzYgMjAuNTI4IDgwLjY0MTYgMjAuNTI4QzgwLjI4OTYgMjAuNTI4IDgwLjAxNDYgMjAuNjM0MyA3OS44MTY2IDIwLjg0N0M3OS42MjU5IDIxLjA1OTcgNzkuNTMwNiAyMS4zNjAzIDc5LjUzMDYgMjEuNzQ5VjIzLjIwMUM3OS41MzA2IDIzLjU4OTcgNzkuNjI1OSAyMy44OTAzIDc5LjgxNjYgMjQuMTAzQzgwLjAxNDYgMjQuMzE1NyA4MC4yODk2IDI0LjQyMiA4MC42NDE2IDI0LjQyMlpNOTAuODg1IDI1LjVMOTIuOTA5IDE3LjQ3SDk0LjY4TDk2LjcxNSAyNS41SDk1LjMwN0w5NC44NjcgMjMuNTUzSDkyLjczM0w5Mi4yOTMgMjUuNUg5MC44ODVaTTkyLjk4NiAyMi40MzFIOTQuNjE0TDk0LjEzIDIwLjI3NUM5NC4wNDkzIDE5LjkxNTcgOTMuOTc5NyAxOS41OTMgOTMuOTIxIDE5LjMwN0M5My44NjIzIDE5LjAxMzcgOTMuODIyIDE4LjgwMSA5My44IDE4LjY2OUM5My43NzggMTguODAxIDkzLjczNzcgMTkuMDEzNyA5My42NzkgMTkuMzA3QzkzLjYyMDMgMTkuNTkzIDkzLjU1MDcgMTkuOTEyIDkzLjQ3IDIwLjI2NEw5Mi45ODYgMjIuNDMxWk0xMDAuNDk1IDI1LjYxQzk5Ljk3NCAyNS42MSA5OS41MTk0IDI1LjUxNDcgOTkuMTMwNyAyNS4zMjRDOTguNzQ5NCAyNS4xMjYgOTguNDUyNCAyNC44NTEgOTguMjM5NyAyNC40OTlDOTguMDI3IDI0LjEzOTcgOTcuOTIwNyAyMy43MTggOTcuOTIwNyAyMy4yMzRWMjEuNzE2Qzk3LjkyMDcgMjEuMjMyIDk4LjAyNyAyMC44MTQgOTguMjM5NyAyMC40NjJDOTguNDUyNCAyMC4xMDI3IDk4Ljc0OTQgMTkuODI3NyA5OS4xMzA3IDE5LjYzN0M5OS41MTk0IDE5LjQzOSA5OS45NzQgMTkuMzQgMTAwLjQ5NSAxOS4zNEMxMDEuMjUgMTkuMzQgMTAxLjg1NSAxOS41MzggMTAyLjMxIDE5LjkzNEMxMDIuNzcyIDIwLjMyMjcgMTAzLjAxNCAyMC44NTQzIDEwMy4wMzYgMjEuNTI5SDEwMS42ODNDMTAxLjY2MSAyMS4yMTM3IDEwMS41NCAyMC45NzE3IDEwMS4zMiAyMC44MDNDMTAxLjEwNyAyMC42MjcgMTAwLjgzMiAyMC41MzkgMTAwLjQ5NSAyMC41MzlDMTAwLjEyMSAyMC41MzkgOTkuODI3NCAyMC42NDE3IDk5LjYxNDcgMjAuODQ3Qzk5LjQwMiAyMS4wNDUgOTkuMjk1NyAyMS4zMzEgOTkuMjk1NyAyMS43MDVWMjMuMjM0Qzk5LjI5NTcgMjMuNjA4IDk5LjQwMiAyMy44OTc3IDk5LjYxNDcgMjQuMTAzQzk5LjgyNzQgMjQuMzA4MyAxMDAuMTIxIDI0LjQxMSAxMDAuNDk1IDI0LjQxMUMxMDAuODM5IDI0LjQxMSAxMDEuMTE4IDI0LjMyNjcgMTAxLjMzMSAyNC4xNThDMTAxLjU0MyAyMy45ODIgMTAxLjY2MSAyMy43MzYzIDEwMS42ODMgMjMuNDIxSDEwMy4wMzZDMTAzLjAxNCAyNC4wOTU3IDEwMi43NzIgMjQuNjMxIDEwMi4zMSAyNS4wMjdDMTAxLjg1NSAyNS40MTU3IDEwMS4yNSAyNS42MSAxMDAuNDk1IDI1LjYxWk0xMDcuNTk2IDI1LjVDMTA3LjAzMiAyNS41IDEwNi41ODEgMjUuMzM4NyAxMDYuMjQzIDI1LjAxNkMxMDUuOTEzIDI0LjY4NiAxMDUuNzQ4IDI0LjI0MjMgMTA1Ljc0OCAyMy42ODVWMjAuNjkzSDEwNC4wNzZWMTkuNDVIMTA1Ljc0OFYxNy43NDVIMTA3LjEzNFYxOS40NUgxMDkuNTQzVjIwLjY5M0gxMDcuMTM0VjIzLjY1MkMxMDcuMTM0IDIzLjgyOCAxMDcuMTgyIDIzLjk3NDcgMTA3LjI3NyAyNC4wOTJDMTA3LjM4IDI0LjIwMiAxMDcuNTE5IDI0LjI1NyAxMDcuNjk1IDI0LjI1N0gxMDkuNDg4VjI1LjVIMTA3LjU5NlpNMTExLjEyMyAyNS41VjI0LjI1N0gxMTMuMTkxVjIwLjY5M0gxMTEuMzQzVjE5LjQ1SDExNC41NjZWMjQuMjU3SDExNi40MjVWMjUuNUgxMTEuMTIzWk0xMTMuNzg1IDE4LjQzOEMxMTMuNTA2IDE4LjQzOCAxMTMuMjg2IDE4LjM2ODMgMTEzLjEyNSAxOC4yMjlDMTEyLjk2NCAxOC4wODIzIDExMi44ODMgMTcuODg4IDExMi44ODMgMTcuNjQ2QzExMi44ODMgMTcuNDA0IDExMi45NjQgMTcuMjEzMyAxMTMuMTI1IDE3LjA3NEMxMTMuMjg2IDE2LjkyNzMgMTEzLjUwNiAxNi44NTQgMTEzLjc4NSAxNi44NTRDMTE0LjA2NCAxNi44NTQgMTE0LjI4NCAxNi45MjczIDExNC40NDUgMTcuMDc0QzExNC42MDYgMTcuMjEzMyAxMTQuNjg3IDE3LjQwNCAxMTQuNjg3IDE3LjY0NkMxMTQuNjg3IDE3Ljg4OCAxMTQuNjA2IDE4LjA4MjMgMTE0LjQ0NSAxOC4yMjlDMTE0LjI4NCAxOC4zNjgzIDExNC4wNjQgMTguNDM4IDExMy43ODUgMTguNDM4Wk0xMjAuMTgzIDI1LjU5OUMxMTkuNDA1IDI1LjU5OSAxMTguNzg5IDI1LjM4MjcgMTE4LjMzNSAyNC45NUMxMTcuODggMjQuNTEgMTE3LjY1MyAyMy45MTk3IDExNy42NTMgMjMuMTc5VjIxLjc3MUMxMTcuNjUzIDIxLjAyMyAxMTcuODggMjAuNDMyNyAxMTguMzM1IDIwQzExOC43ODkgMTkuNTY3MyAxMTkuNDA1IDE5LjM1MSAxMjAuMTgzIDE5LjM1MUMxMjAuOTYgMTkuMzUxIDEyMS41NzYgMTkuNTY3MyAxMjIuMDMxIDIwQzEyMi40ODUgMjAuNDMyNyAxMjIuNzEzIDIxLjAyMyAxMjIuNzEzIDIxLjc3MVYyMy4xNzlDMTIyLjcxMyAyMy45MTk3IDEyMi40ODUgMjQuNTEgMTIyLjAzMSAyNC45NUMxMjEuNTc2IDI1LjM4MjcgMTIwLjk2IDI1LjU5OSAxMjAuMTgzIDI1LjU5OVpNMTIwLjE4MyAyNC40QzEyMC41NDkgMjQuNCAxMjAuODMyIDI0LjMwMSAxMjEuMDMgMjQuMTAzQzEyMS4yMzUgMjMuODk3NyAxMjEuMzM4IDIzLjYwNDMgMTIxLjMzOCAyMy4yMjNWMjEuNzI3QzEyMS4zMzggMjEuMzQ1NyAxMjEuMjM1IDIxLjA1NiAxMjEuMDMgMjAuODU4QzEyMC44MzIgMjAuNjUyNyAxMjAuNTQ5IDIwLjU1IDEyMC4xODMgMjAuNTVDMTE5LjgxNiAyMC41NSAxMTkuNTMgMjAuNjUyNyAxMTkuMzI1IDIwLjg1OEMxMTkuMTI3IDIxLjA1NiAxMTkuMDI4IDIxLjM0NTcgMTE5LjAyOCAyMS43MjdWMjMuMjIzQzExOS4wMjggMjMuNjA0MyAxMTkuMTI3IDIzLjg5NzcgMTE5LjMyNSAyNC4xMDNDMTE5LjUzIDI0LjMwMSAxMTkuODE2IDI0LjQgMTIwLjE4MyAyNC40Wk0xMjQuMzI2IDI1LjVWMTkuNDVIMTI1LjY2OFYyMC41ODNDMTI1Ljc0MSAyMC4yMDE3IDEyNS45MjEgMTkuOTAxIDEyNi4yMDcgMTkuNjgxQzEyNi40OTMgMTkuNDUzNyAxMjYuODU2IDE5LjM0IDEyNy4yOTYgMTkuMzRDMTI3Ljg5IDE5LjM0IDEyOC4zNjMgMTkuNTM4IDEyOC43MTUgMTkuOTM0QzEyOS4wNzQgMjAuMzMgMTI5LjI1NCAyMC44NjE3IDEyOS4yNTQgMjEuNTI5VjI1LjVIMTI3Ljg3OVYyMS42OTRDMTI3Ljg3OSAyMS4zMiAxMjcuNzggMjEuMDM0IDEyNy41ODIgMjAuODM2QzEyNy4zOTEgMjAuNjMwNyAxMjcuMTMxIDIwLjUyOCAxMjYuODAxIDIwLjUyOEMxMjYuNDU2IDIwLjUyOCAxMjYuMTg1IDIwLjYzMDcgMTI1Ljk4NyAyMC44MzZDMTI1Ljc5NiAyMS4wNDEzIDEyNS43MDEgMjEuMzM0NyAxMjUuNzAxIDIxLjcxNlYyNS41SDEyNC4zMjZaTTEzMy4xMjEgMjUuNTk5QzEzMi40MDMgMjUuNTk5IDEzMS44MzQgMjUuNDM3NyAxMzEuNDE2IDI1LjExNUMxMzAuOTk4IDI0Ljc4NSAxMzAuNzg5IDI0LjM0MTMgMTMwLjc4OSAyMy43ODRIMTMyLjE0MkMxMzIuMTQyIDI0LjAxODcgMTMyLjIyNyAyNC4xOTgzIDEzMi4zOTUgMjQuMzIzQzEzMi41NzEgMjQuNDQ3NyAxMzIuODEzIDI0LjUxIDEzMy4xMjEgMjQuNTFIMTMzLjYwNUMxMzMuOTM1IDI0LjUxIDEzNC4xODggMjQuNDQ3NyAxMzQuMzY0IDI0LjMyM0MxMzQuNTQ4IDI0LjE5ODMgMTM0LjYzOSAyNC4wMTg3IDEzNC42MzkgMjMuNzg0QzEzNC42MzkgMjMuNTY0IDEzNC41NzcgMjMuNDAyNyAxMzQuNDUyIDIzLjNDMTM0LjMyOCAyMy4xOSAxMzQuMTM3IDIzLjExNjcgMTMzLjg4IDIzLjA4TDEzMi4zNzMgMjIuODgyQzEzMS44ODkgMjIuODE2IDEzMS41MTUgMjIuNjI5IDEzMS4yNTEgMjIuMzIxQzEzMC45OTUgMjIuMDEzIDEzMC44NjYgMjEuNjEzMyAxMzAuODY2IDIxLjEyMkMxMzAuODY2IDIwLjU1IDEzMS4wNTcgMjAuMTEzNyAxMzEuNDM4IDE5LjgxM0MxMzEuODIgMTkuNTA1IDEzMi4zNyAxOS4zNTEgMTMzLjA4OCAxOS4zNTFIMTMzLjU5NEMxMzQuMjY5IDE5LjM1MSAxMzQuODEyIDE5LjUwNSAxMzUuMjIyIDE5LjgxM0MxMzUuNjMzIDIwLjEyMSAxMzUuODQ2IDIwLjUzMTcgMTM1Ljg2IDIxLjA0NUgxMzQuNDk2QzEzNC40ODkgMjAuODU0MyAxMzQuNDA1IDIwLjcwNCAxMzQuMjQzIDIwLjU5NEMxMzQuMDgyIDIwLjQ3NjcgMTMzLjg2NiAyMC40MTggMTMzLjU5NCAyMC40MThIMTMzLjA4OEMxMzIuNzk1IDIwLjQxOCAxMzIuNTcxIDIwLjQ4MDMgMTMyLjQxNyAyMC42MDVDMTMyLjI2MyAyMC43MjIzIDEzMi4xODYgMjAuODgzNyAxMzIuMTg2IDIxLjA4OUMxMzIuMTg2IDIxLjI3MjMgMTMyLjI0MSAyMS40MDggMTMyLjM1MSAyMS40OTZDMTMyLjQ2OSAyMS41ODQgMTMyLjYzNyAyMS42MzkgMTMyLjg1NyAyMS42NjFMMTM0LjI3NiAyMS44NTlDMTM0LjgzNCAyMS45MjUgMTM1LjI1MiAyMi4xMjMgMTM1LjUzIDIyLjQ1M0MxMzUuODE2IDIyLjc3NTcgMTM1Ljk1OSAyMy4yMTIgMTM1Ljk1OSAyMy43NjJDMTM1Ljk1OSAyNC4zNDg3IDEzNS43NTggMjQuODAzMyAxMzUuMzU0IDI1LjEyNkMxMzQuOTU4IDI1LjQ0MTMgMTM0LjM3NSAyNS41OTkgMTMzLjYwNSAyNS41OTlIMTMzLjEyMVoiLz4mI3hhOzxkZWZzPiYjeGE7PGNsaXBQYXRoIGlkPSJjbGlwMF8xNDNfNTI1NCI+JiN4YTs8cmVjdCB0cmFuc2Zvcm09InRyYW5zbGF0ZSgxMiAxMikiIGZpbGw9IndoaXRlIiBoZWlnaHQ9IjIwIiB3aWR0aD0iMjAiLz4mI3hhOzwvY2xpcFBhdGg+JiN4YTs8L2RlZnM+JiN4YTs8L3N2Zz4=;" parent="1" vertex="1">
          <mxGeometry x="535.9990057373047" y="238.00171752929688" width="149" height="44" as="geometry" />
        </mxCell>
        <mxCell id="6Q_wfIdElCOlgVAC6Y2N-5" value="" style="shape=image;verticalLabelPosition=bottom;labelBackgroundColor=default;verticalAlign=top;aspect=fixed;imageAspect=0;image=data:image/svg+xml,PHN2ZyB4bWxucz0iaHR0cDovL3d3dy53My5vcmcvMjAwMC9zdmciIGZpbGw9Im5vbmUiIHZpZXdCb3g9IjAgMCAxMDkgNDQiIGhlaWdodD0iNDQiIHdpZHRoPSIxMDkiPiYjeGE7PHJlY3QgZmlsbD0iI0ZDRkNGQyIgcng9IjMiIGhlaWdodD0iNDIiIHdpZHRoPSIxMDciIHk9IjEiIHg9IjEiLz4mI3hhOzxyZWN0IHN0cm9rZS13aWR0aD0iMiIgc3Ryb2tlPSJibGFjayIgcng9IjMiIGhlaWdodD0iNDIiIHdpZHRoPSIxMDciIHk9IjEiIHg9IjEiLz4mI3hhOzxwYXRoIGZpbGw9IiNDQjM4MzciIGQ9Ik0xMi4zMTI1IDE4LjAxNTZIMzEuNjg3NVYyNC44NDUzSDIyVjI1Ljk4NDRIMTcuNjkzN1YyNC44NDUzSDEyLjMxMjVWMTguMDE1NlpNMTMuMzg5MSAyMy43MDc4SDE1LjU0MjJWMjAuMjkyMkgxNi42MTg3VjIzLjcwNzhIMTcuNjk1M1YxOS4xNTQ3SDEzLjM4OTFWMjMuNzA3OFpNMTguNzcwMyAxOS4xNTQ3VjI0Ljg0NTNIMjAuOTIzNFYyMy43MDc4SDIzLjA3NjZWMTkuMTU0N0gxOC43NzAzWk0yMC45MjM0IDIwLjI5MzhIMjJWMjIuNTY4N0gyMC45MjM0VjIwLjI5MzhaTTI0LjE1MzEgMTkuMTU0N1YyMy43MDc4SDI2LjMwNjJWMjAuMjkyMkgyNy4zODI4VjIzLjcwNzhIMjguNDU5NFYyMC4yOTIySDI5LjUzNTlWMjMuNzA3OEgzMC42MTI1VjE5LjE1NDdIMjQuMTUzMVoiLz4mI3hhOzxwYXRoIGZpbGw9ImJsYWNrIiBkPSJNNDUuMTg0MiAyNS41VjE5LjQ1SDQ2LjUyNjJWMjAuNjI3QzQ2LjU5OTUgMjAuMjMxIDQ2Ljc3OTIgMTkuOTE5MyA0Ny4wNjUyIDE5LjY5MkM0Ny4zNTg1IDE5LjQ1NzMgNDcuNzM2MiAxOS4zNCA0OC4xOTgyIDE5LjM0QzQ4LjgxNDIgMTkuMzQgNDkuMjk0NSAxOS41MzggNDkuNjM5MiAxOS45MzRDNDkuOTgzOSAyMC4zMyA1MC4xNTYyIDIwLjg4MzcgNTAuMTU2MiAyMS41OTVWMjIuMTY3SDQ4Ljc4MTJWMjEuNjYxQzQ4Ljc4MTIgMjEuMjk0MyA0OC42ODU5IDIxLjAxNTcgNDguNDk1MiAyMC44MjVDNDguMzA0NSAyMC42MjcgNDguMDMzMiAyMC41MjggNDcuNjgxMiAyMC41MjhDNDcuMzE0NSAyMC41MjggNDcuMDM1OSAyMC42MzggNDYuODQ1MiAyMC44NThDNDYuNjU0NSAyMS4wNzggNDYuNTU5MiAyMS4zODk3IDQ2LjU1OTIgMjEuNzkzVjI1LjVINDUuMTg0MlpNNTQuMDIzOSAyNS42MUM1My41MTA2IDI1LjYxIDUzLjA2MzIgMjUuNTExIDUyLjY4MTkgMjUuMzEzQzUyLjMwMDYgMjUuMTE1IDUyLjAwMzYgMjQuODM2MyA1MS43OTA5IDI0LjQ3N0M1MS41ODU2IDI0LjExMDMgNTEuNDgyOSAyMy42ODEzIDUxLjQ4MjkgMjMuMTlWMjEuNzZDNTEuNDgyOSAyMS4yNjg3IDUxLjU4NTYgMjAuODQzMyA1MS43OTA5IDIwLjQ4NEM1Mi4wMDM2IDIwLjExNzMgNTIuMzAwNiAxOS44MzUgNTIuNjgxOSAxOS42MzdDNTMuMDYzMiAxOS40MzkgNTMuNTEwNiAxOS4zNCA1NC4wMjM5IDE5LjM0QzU0LjUyOTkgMTkuMzQgNTQuOTY5OSAxOS40MzkgNTUuMzQzOSAxOS42MzdDNTUuNzI1MiAxOS44MzUgNTYuMDE4NiAyMC4xMTM3IDU2LjIyMzkgMjAuNDczQzU2LjQzNjYgMjAuODI1IDU2LjU0MjkgMjEuMjM5MyA1Ni41NDI5IDIxLjcxNlYyMi44MTZINTIuODAyOVYyMy4yMzRDNTIuODAyOSAyMy42NDQ3IDUyLjkwOTIgMjMuOTU2MyA1My4xMjE5IDI0LjE2OUM1My4zMzQ2IDI0LjM3NDMgNTMuNjM1MiAyNC40NzcgNTQuMDIzOSAyNC40NzdDNTQuMzA5OSAyNC40NzcgNTQuNTUxOSAyNC40MjkzIDU0Ljc0OTkgMjQuMzM0QzU0Ljk1NTIgMjQuMjMxMyA1NS4wNzYyIDI0LjA4NDcgNTUuMTEyOSAyMy44OTRINTYuNDc2OUM1Ni4zODE2IDI0LjQxNDcgNTYuMTEwMiAyNC44MzI3IDU1LjY2MjkgMjUuMTQ4QzU1LjIxNTYgMjUuNDU2IDU0LjY2OTIgMjUuNjEgNTQuMDIzOSAyNS42MVpNNTIuODAyOSAyMS43MTZWMjEuOTI1TDU1LjIyMjkgMjEuOTE0VjIxLjcwNUM1NS4yMjI5IDIxLjI4NyA1NS4xMjAyIDIwLjk2NDMgNTQuOTE0OSAyMC43MzdDNTQuNzA5NiAyMC41MDk3IDU0LjQxMjYgMjAuMzk2IDU0LjAyMzkgMjAuMzk2QzUzLjYyMDYgMjAuMzk2IDUzLjMxNjIgMjAuNTEzMyA1My4xMTA5IDIwLjc0OEM1Mi45MDU2IDIwLjk3NTMgNTIuODAyOSAyMS4yOTggNTIuODAyOSAyMS43MTZaTTU4Ljk4MDYgMjcuNDhWMjYuMzM2SDYwLjY4NTZDNjEuMDA4MyAyNi4zMzYgNjEuMjU3NiAyNi4yNDggNjEuNDMzNiAyNi4wNzJDNjEuNjA5NiAyNS45MDMzIDYxLjY5NzYgMjUuNjcyMyA2MS42OTc2IDI1LjM3OVYyNS4wMTZMNjEuNzE5NiAyNC4wN0M2MS41OTQ5IDI0LjQwNzMgNjEuMzkzMyAyNC42NzEzIDYxLjExNDYgMjQuODYyQzYwLjg0MzMgMjUuMDQ1MyA2MC41MDk2IDI1LjEzNyA2MC4xMTM2IDI1LjEzN0M1OS40OTc2IDI1LjEzNyA1OS4wMDYzIDI0LjkzMTcgNTguNjM5NiAyNC41MjFDNTguMjgwMyAyNC4xMDMgNTguMTAwNiAyMy41MzgzIDU4LjEwMDYgMjIuODI3VjIxLjY1QzU4LjEwMDYgMjAuOTQ2IDU4LjI4MDMgMjAuMzg1IDU4LjYzOTYgMTkuOTY3QzU5LjAwNjMgMTkuNTQ5IDU5LjQ5NzYgMTkuMzQgNjAuMTEzNiAxOS4zNEM2MC41MDk2IDE5LjM0IDYwLjg0MzMgMTkuNDM1MyA2MS4xMTQ2IDE5LjYyNkM2MS4zOTMzIDE5LjgwOTMgNjEuNTk0OSAyMC4wNzMzIDYxLjcxOTYgMjAuNDE4VjE5LjQ1SDYzLjA2MTZWMjUuNDEyQzYzLjA2MTYgMjYuMDUgNjIuODQ4OSAyNi41NTIzIDYyLjQyMzYgMjYuOTE5QzYyLjAwNTYgMjcuMjkzIDYxLjQzMzYgMjcuNDggNjAuNzA3NiAyNy40OEg1OC45ODA2Wk02MC41NzU2IDIzLjk2QzYwLjkyNzYgMjMuOTYgNjEuMTk4OSAyMy44NTczIDYxLjM4OTYgMjMuNjUyQzYxLjU4NzYgMjMuNDM5MyA2MS42ODY2IDIzLjE0NiA2MS42ODY2IDIyLjc3MlYyMS43MTZDNjEuNjg2NiAyMS4zNDIgNjEuNTg3NiAyMS4wNTIzIDYxLjM4OTYgMjAuODQ3QzYxLjE5ODkgMjAuNjM0MyA2MC45Mjc2IDIwLjUyOCA2MC41NzU2IDIwLjUyOEM2MC4yMjM2IDIwLjUyOCA1OS45NTIzIDIwLjYzMDcgNTkuNzYxNiAyMC44MzZDNTkuNTcwOSAyMS4wMzQgNTkuNDc1NiAyMS4zMTI3IDU5LjQ3NTYgMjEuNjcyVjIyLjgxNkM1OS40NzU2IDIzLjE3NTMgNTkuNTcwOSAyMy40NTc3IDU5Ljc2MTYgMjMuNjYzQzU5Ljk1MjMgMjMuODYxIDYwLjIyMzYgMjMuOTYgNjAuNTc1NiAyMy45NlpNNjQuNzQwMyAyNS41VjI0LjI1N0g2Ni44MDgzVjIwLjY5M0g2NC45NjAzVjE5LjQ1SDY4LjE4MzNWMjQuMjU3SDcwLjA0MjNWMjUuNUg2NC43NDAzWk02Ny40MDIzIDE4LjQzOEM2Ny4xMjM2IDE4LjQzOCA2Ni45MDM2IDE4LjM2ODMgNjYuNzQyMyAxOC4yMjlDNjYuNTgxIDE4LjA4MjMgNjYuNTAwMyAxNy44ODggNjYuNTAwMyAxNy42NDZDNjYuNTAwMyAxNy40MDQgNjYuNTgxIDE3LjIxMzMgNjYuNzQyMyAxNy4wNzRDNjYuOTAzNiAxNi45MjczIDY3LjEyMzYgMTYuODU0IDY3LjQwMjMgMTYuODU0QzY3LjY4MSAxNi44NTQgNjcuOTAxIDE2LjkyNzMgNjguMDYyMyAxNy4wNzRDNjguMjIzNiAxNy4yMTMzIDY4LjMwNDMgMTcuNDA0IDY4LjMwNDMgMTcuNjQ2QzY4LjMwNDMgMTcuODg4IDY4LjIyMzYgMTguMDgyMyA2OC4wNjIzIDE4LjIyOUM2Ny45MDEgMTguMzY4MyA2Ny42ODEgMTguNDM4IDY3LjQwMjMgMTguNDM4Wk03My41NDcgMjUuNTk5QzcyLjgyODMgMjUuNTk5IDcyLjI2IDI1LjQzNzcgNzEuODQyIDI1LjExNUM3MS40MjQgMjQuNzg1IDcxLjIxNSAyNC4zNDEzIDcxLjIxNSAyMy43ODRINzIuNTY4QzcyLjU2OCAyNC4wMTg3IDcyLjY1MjMgMjQuMTk4MyA3Mi44MjEgMjQuMzIzQzcyLjk5NyAyNC40NDc3IDczLjIzOSAyNC41MSA3My41NDcgMjQuNTFINzQuMDMxQzc0LjM2MSAyNC41MSA3NC42MTQgMjQuNDQ3NyA3NC43OSAyNC4zMjNDNzQuOTczMyAyNC4xOTgzIDc1LjA2NSAyNC4wMTg3IDc1LjA2NSAyMy43ODRDNzUuMDY1IDIzLjU2NCA3NS4wMDI3IDIzLjQwMjcgNzQuODc4IDIzLjNDNzQuNzUzMyAyMy4xOSA3NC41NjI3IDIzLjExNjcgNzQuMzA2IDIzLjA4TDcyLjc5OSAyMi44ODJDNzIuMzE1IDIyLjgxNiA3MS45NDEgMjIuNjI5IDcxLjY3NyAyMi4zMjFDNzEuNDIwMyAyMi4wMTMgNzEuMjkyIDIxLjYxMzMgNzEuMjkyIDIxLjEyMkM3MS4yOTIgMjAuNTUgNzEuNDgyNyAyMC4xMTM3IDcxLjg2NCAxOS44MTNDNzIuMjQ1MyAxOS41MDUgNzIuNzk1MyAxOS4zNTEgNzMuNTE0IDE5LjM1MUg3NC4wMkM3NC42OTQ3IDE5LjM1MSA3NS4yMzczIDE5LjUwNSA3NS42NDggMTkuODEzQzc2LjA1ODcgMjAuMTIxIDc2LjI3MTMgMjAuNTMxNyA3Ni4yODYgMjEuMDQ1SDc0LjkyMkM3NC45MTQ3IDIwLjg1NDMgNzQuODMwMyAyMC43MDQgNzQuNjY5IDIwLjU5NEM3NC41MDc3IDIwLjQ3NjcgNzQuMjkxMyAyMC40MTggNzQuMDIgMjAuNDE4SDczLjUxNEM3My4yMjA3IDIwLjQxOCA3Mi45OTcgMjAuNDgwMyA3Mi44NDMgMjAuNjA1QzcyLjY4OSAyMC43MjIzIDcyLjYxMiAyMC44ODM3IDcyLjYxMiAyMS4wODlDNzIuNjEyIDIxLjI3MjMgNzIuNjY3IDIxLjQwOCA3Mi43NzcgMjEuNDk2QzcyLjg5NDMgMjEuNTg0IDczLjA2MyAyMS42MzkgNzMuMjgzIDIxLjY2MUw3NC43MDIgMjEuODU5Qzc1LjI1OTMgMjEuOTI1IDc1LjY3NzMgMjIuMTIzIDc1Ljk1NiAyMi40NTNDNzYuMjQyIDIyLjc3NTcgNzYuMzg1IDIzLjIxMiA3Ni4zODUgMjMuNzYyQzc2LjM4NSAyNC4zNDg3IDc2LjE4MzMgMjQuODAzMyA3NS43OCAyNS4xMjZDNzUuMzg0IDI1LjQ0MTMgNzQuODAxIDI1LjU5OSA3NC4wMzEgMjUuNTk5SDczLjU0N1pNODEuMDAwNyAyNS41QzgwLjQzNiAyNS41IDc5Ljk4NSAyNS4zMzg3IDc5LjY0NzcgMjUuMDE2Qzc5LjMxNzcgMjQuNjg2IDc5LjE1MjcgMjQuMjQyMyA3OS4xNTI3IDIzLjY4NVYyMC42OTNINzcuNDgwN1YxOS40NUg3OS4xNTI3VjE3Ljc0NUg4MC41Mzg3VjE5LjQ1SDgyLjk0NzdWMjAuNjkzSDgwLjUzODdWMjMuNjUyQzgwLjUzODcgMjMuODI4IDgwLjU4NjQgMjMuOTc0NyA4MC42ODE3IDI0LjA5MkM4MC43ODQ0IDI0LjIwMiA4MC45MjM3IDI0LjI1NyA4MS4wOTk3IDI0LjI1N0g4Mi44OTI3VjI1LjVIODEuMDAwN1pNODQuNzU4NCAyNS41VjE5LjQ1SDg2LjEwMDRWMjAuNjI3Qzg2LjE3MzcgMjAuMjMxIDg2LjM1MzQgMTkuOTE5MyA4Ni42Mzk0IDE5LjY5MkM4Ni45MzI3IDE5LjQ1NzMgODcuMzEwNCAxOS4zNCA4Ny43NzI0IDE5LjM0Qzg4LjM4ODQgMTkuMzQgODguODY4NyAxOS41MzggODkuMjEzNCAxOS45MzRDODkuNTU4MSAyMC4zMyA4OS43MzA0IDIwLjg4MzcgODkuNzMwNCAyMS41OTVWMjIuMTY3SDg4LjM1NTRWMjEuNjYxQzg4LjM1NTQgMjEuMjk0MyA4OC4yNjAxIDIxLjAxNTcgODguMDY5NCAyMC44MjVDODcuODc4NyAyMC42MjcgODcuNjA3NCAyMC41MjggODcuMjU1NCAyMC41MjhDODYuODg4NyAyMC41MjggODYuNjEwMSAyMC42MzggODYuNDE5NCAyMC44NThDODYuMjI4NyAyMS4wNzggODYuMTMzNCAyMS4zODk3IDg2LjEzMzQgMjEuNzkzVjI1LjVIODQuNzU4NFpNOTIuMTAyMSAyNy40OEw5Mi45NjAxIDI1LjE3TDkwLjY4MzEgMTkuNDVIOTIuMTM1MUw5My4zMDExIDIyLjU0MUM5My4zNjcxIDIyLjcyNDMgOTMuNDMzMSAyMi45MjYgOTMuNDk5MSAyMy4xNDZDOTMuNTY1MSAyMy4zNTg3IDkzLjYxMjggMjMuNTU2NyA5My42NDIxIDIzLjc0QzkzLjY2NDEgMjMuNTU2NyA5My43MDQ0IDIzLjM1ODcgOTMuNzYzMSAyMy4xNDZDOTMuODI5MSAyMi45MjYgOTMuODk1MSAyMi43MjQzIDkzLjk2MTEgMjIuNTQxTDk1LjAzOTEgMTkuNDVIOTYuNDkxMUw5My41NDMxIDI3LjQ4SDkyLjEwMjFaIi8+JiN4YTs8L3N2Zz4=;" parent="1" vertex="1">
          <mxGeometry x="105.99900573730474" y="339.1117175292968" width="109" height="44" as="geometry" />
        </mxCell>
        <mxCell id="6Q_wfIdElCOlgVAC6Y2N-6" value="" style="shape=image;verticalLabelPosition=bottom;labelBackgroundColor=default;verticalAlign=top;aspect=fixed;imageAspect=0;image=data:image/svg+xml,PHN2ZyB4bWxucz0iaHR0cDovL3d3dy53My5vcmcvMjAwMC9zdmciIGZpbGw9Im5vbmUiIHZpZXdCb3g9IjAgMCA5NiAyMyIgaGVpZ2h0PSIyMyIgd2lkdGg9Ijk2Ij4mI3hhOzxyZWN0IGZpbGw9IiNGQ0ZDRkMiIHJ4PSIzIiBoZWlnaHQ9IjIxIiB3aWR0aD0iOTQiIHk9IjEiIHg9IjEiLz4mI3hhOzxyZWN0IHN0cm9rZS13aWR0aD0iMiIgc3Ryb2tlPSJibGFjayIgcng9IjMiIGhlaWdodD0iMjEiIHdpZHRoPSI5NCIgeT0iMSIgeD0iMSIvPiYjeGE7PHBhdGggZmlsbD0iYmxhY2siIGQ9Ik05LjI3Mjc4IDE2Ljk4VjguOTVIMTAuNjE0OFYxMC4wNjFDMTAuNzI0OCA5LjY3OTY3IDEwLjkyMjggOS4zODI2NyAxMS4yMDg4IDkuMTdDMTEuNDk0OCA4Ljk1IDExLjg1MDQgOC44NCAxMi4yNzU4IDguODRDMTIuNjY0NCA4Ljg0IDEzLjAwNTQgOC45MzUzMyAxMy4yOTg4IDkuMTI2QzEzLjU5OTQgOS4zMTY2NyAxMy44MzA0IDkuNTg4IDEzLjk5MTggOS45NEMxNC4xNjA0IDEwLjI4NDcgMTQuMjQ0OCAxMC42ODggMTQuMjQ0OCAxMS4xNVYxMi43ODlDMTQuMjQ0OCAxMy40ODU3IDE0LjA2NTEgMTQuMDQ2NyAxMy43MDU4IDE0LjQ3MkMxMy4zNDY0IDE0Ljg5NzMgMTIuODY5OCAxNS4xMSAxMi4yNzU4IDE1LjExQzExLjg1MDQgMTUuMTEgMTEuNDkxMSAxNSAxMS4xOTc4IDE0Ljc4QzEwLjkxMTggMTQuNTYgMTAuNzEzOCAxNC4yNTIgMTAuNjAzOCAxMy44NTZMMTAuNjQ3OCAxNS4yODZWMTYuOThIOS4yNzI3OFpNMTEuNzU4OCAxMy45MjJDMTIuMTEwOCAxMy45MjIgMTIuMzgyMSAxMy44MjY3IDEyLjU3MjggMTMuNjM2QzEyLjc3MDggMTMuNDQ1MyAxMi44Njk4IDEzLjE1MiAxMi44Njk4IDEyLjc1NlYxMS4xOTRDMTIuODY5OCAxMC43OTggMTIuNzcwOCAxMC41MDQ3IDEyLjU3MjggMTAuMzE0QzEyLjM4MjEgMTAuMTIzMyAxMi4xMTA4IDEwLjAyOCAxMS43NTg4IDEwLjAyOEMxMS40MDY4IDEwLjAyOCAxMS4xMzE4IDEwLjEzNDMgMTAuOTMzOCAxMC4zNDdDMTAuNzQzMSAxMC41NTk3IDEwLjY0NzggMTAuODYwMyAxMC42NDc4IDExLjI0OVYxMi43MDFDMTAuNjQ3OCAxMy4wODk3IDEwLjc0MzEgMTMuMzkwMyAxMC45MzM4IDEzLjYwM0MxMS4xMzE4IDEzLjgxNTcgMTEuNDA2OCAxMy45MjIgMTEuNzU4OCAxMy45MjJaTTE3LjY1MDUgMTUuMTFDMTcuMDM0NSAxNS4xMSAxNi41NDY4IDE0LjkzNzcgMTYuMTg3NSAxNC41OTNDMTUuODM1NSAxNC4yNDEgMTUuNjU5NSAxMy43ODI3IDE1LjY1OTUgMTMuMjE4QzE1LjY1OTUgMTIuNjMxMyAxNS44NjEyIDEyLjE2NTcgMTYuMjY0NSAxMS44MjFDMTYuNjY3OCAxMS40NjkgMTcuMjIxNSAxMS4yOTMgMTcuOTI1NSAxMS4yOTNIMTkuMzk5NVYxMC44NjRDMTkuMzk5NSAxMC4yNTUzIDE5LjA0MzggOS45NTEgMTguMzMyNSA5Ljk1MUMxOC4wMDk4IDkuOTUxIDE3Ljc1MzIgMTAuMDEzMyAxNy41NjI1IDEwLjEzOEMxNy4zNzE4IDEwLjI2MjcgMTcuMjY1NSAxMC40Mzg3IDE3LjI0MzUgMTAuNjY2SDE1LjkyMzVDMTUuOTUyOCAxMC4xMjMzIDE2LjE4MDIgOS42ODMzMyAxNi42MDU1IDkuMzQ2QzE3LjAzODIgOS4wMDg2NyAxNy42MTc1IDguODQgMTguMzQzNSA4Ljg0QzE5LjExMzUgOC44NCAxOS43MTEyIDkuMDE5NjcgMjAuMTM2NSA5LjM3OUMyMC41NjE4IDkuNzM4MzMgMjAuNzc0NSAxMC4yNDQzIDIwLjc3NDUgMTAuODk3VjE1SDE5LjQzMjVWMTMuODY3QzE5LjM4MTIgMTQuMjU1NyAxOS4xOTc4IDE0LjU2IDE4Ljg4MjUgMTQuNzhDMTguNTY3MiAxNSAxOC4xNTY1IDE1LjExIDE3LjY1MDUgMTUuMTFaTTE4LjA5MDUgMTMuOTg4QzE4LjQ5MzggMTMuOTg4IDE4LjgxMjggMTMuODg5IDE5LjA0NzUgMTMuNjkxQzE5LjI4MjIgMTMuNDkzIDE5LjM5OTUgMTMuMjI5IDE5LjM5OTUgMTIuODk5VjEyLjE4NEgxNy45OTE1QzE3LjY5MDggMTIuMTg0IDE3LjQ1MjUgMTIuMjY4MyAxNy4yNzY1IDEyLjQzN0MxNy4xMDA1IDEyLjYwNTcgMTcuMDEyNSAxMi44MjIgMTcuMDEyNSAxMy4wODZDMTcuMDEyNSAxMy4zNTczIDE3LjEwNDIgMTMuNTc3MyAxNy4yODc1IDEzLjc0NkMxNy40NzgyIDEzLjkwNzMgMTcuNzQ1OCAxMy45ODggMTguMDkwNSAxMy45ODhaTTI1LjAxNjIgMTUuMTFDMjQuNDk1NSAxNS4xMSAyNC4wNDA5IDE1LjAxNDcgMjMuNjUyMiAxNC44MjRDMjMuMjcwOSAxNC42MjYgMjIuOTczOSAxNC4zNTEgMjIuNzYxMiAxMy45OTlDMjIuNTQ4NSAxMy42Mzk3IDIyLjQ0MjIgMTMuMjE4IDIyLjQ0MjIgMTIuNzM0VjExLjIxNkMyMi40NDIyIDEwLjczMiAyMi41NDg1IDEwLjMxNCAyMi43NjEyIDkuOTYyQzIyLjk3MzkgOS42MDI2NyAyMy4yNzA5IDkuMzI3NjcgMjMuNjUyMiA5LjEzN0MyNC4wNDA5IDguOTM5IDI0LjQ5NTUgOC44NCAyNS4wMTYyIDguODRDMjUuNzcxNSA4Ljg0IDI2LjM3NjUgOS4wMzggMjYuODMxMiA5LjQzNEMyNy4yOTMyIDkuODIyNjcgMjcuNTM1MiAxMC4zNTQzIDI3LjU1NzIgMTEuMDI5SDI2LjIwNDJDMjYuMTgyMiAxMC43MTM3IDI2LjA2MTIgMTAuNDcxNyAyNS44NDEyIDEwLjMwM0MyNS42Mjg1IDEwLjEyNyAyNS4zNTM1IDEwLjAzOSAyNS4wMTYyIDEwLjAzOUMyNC42NDIyIDEwLjAzOSAyNC4zNDg5IDEwLjE0MTcgMjQuMTM2MiAxMC4zNDdDMjMuOTIzNSAxMC41NDUgMjMuODE3MiAxMC44MzEgMjMuODE3MiAxMS4yMDVWMTIuNzM0QzIzLjgxNzIgMTMuMTA4IDIzLjkyMzUgMTMuMzk3NyAyNC4xMzYyIDEzLjYwM0MyNC4zNDg5IDEzLjgwODMgMjQuNjQyMiAxMy45MTEgMjUuMDE2MiAxMy45MTFDMjUuMzYwOSAxMy45MTEgMjUuNjM5NSAxMy44MjY3IDI1Ljg1MjIgMTMuNjU4QzI2LjA2NDkgMTMuNDgyIDI2LjE4MjIgMTMuMjM2MyAyNi4yMDQyIDEyLjkyMUgyNy41NTcyQzI3LjUzNTIgMTMuNTk1NyAyNy4yOTMyIDE0LjEzMSAyNi44MzEyIDE0LjUyN0MyNi4zNzY1IDE0LjkxNTcgMjUuNzcxNSAxNS4xMSAyNS4wMTYyIDE1LjExWk0yOS4xMTQ5IDE1VjYuOTdIMzAuNDg5OVYxMS4zMjZIMzEuNDU3OUwzMi44OTg5IDguOTVIMzQuNDI3OUwzMi42MzQ5IDExLjg3NkwzNC40OTM5IDE1SDMyLjkzMTlMMzEuNDU3OSAxMi40OTJIMzAuNDg5OVYxNUgyOS4xMTQ5Wk0zNy40Mzc2IDE1LjExQzM2LjgyMTYgMTUuMTEgMzYuMzMzOSAxNC45Mzc3IDM1Ljk3NDYgMTQuNTkzQzM1LjYyMjYgMTQuMjQxIDM1LjQ0NjYgMTMuNzgyNyAzNS40NDY2IDEzLjIxOEMzNS40NDY2IDEyLjYzMTMgMzUuNjQ4MyAxMi4xNjU3IDM2LjA1MTYgMTEuODIxQzM2LjQ1NDkgMTEuNDY5IDM3LjAwODYgMTEuMjkzIDM3LjcxMjYgMTEuMjkzSDM5LjE4NjZWMTAuODY0QzM5LjE4NjYgMTAuMjU1MyAzOC44MzA5IDkuOTUxIDM4LjExOTYgOS45NTFDMzcuNzk2OSA5Ljk1MSAzNy41NDAzIDEwLjAxMzMgMzcuMzQ5NiAxMC4xMzhDMzcuMTU4OSAxMC4yNjI3IDM3LjA1MjYgMTAuNDM4NyAzNy4wMzA2IDEwLjY2NkgzNS43MTA2QzM1LjczOTkgMTAuMTIzMyAzNS45NjczIDkuNjgzMzMgMzYuMzkyNiA5LjM0NkMzNi44MjUzIDkuMDA4NjcgMzcuNDA0NiA4Ljg0IDM4LjEzMDYgOC44NEMzOC45MDA2IDguODQgMzkuNDk4MyA5LjAxOTY3IDM5LjkyMzYgOS4zNzlDNDAuMzQ4OSA5LjczODMzIDQwLjU2MTYgMTAuMjQ0MyA0MC41NjE2IDEwLjg5N1YxNUgzOS4yMTk2VjEzLjg2N0MzOS4xNjgzIDE0LjI1NTcgMzguOTg0OSAxNC41NiAzOC42Njk2IDE0Ljc4QzM4LjM1NDMgMTUgMzcuOTQzNiAxNS4xMSAzNy40Mzc2IDE1LjExWk0zNy44Nzc2IDEzLjk4OEMzOC4yODA5IDEzLjk4OCAzOC41OTk5IDEzLjg4OSAzOC44MzQ2IDEzLjY5MUMzOS4wNjkzIDEzLjQ5MyAzOS4xODY2IDEzLjIyOSAzOS4xODY2IDEyLjg5OVYxMi4xODRIMzcuNzc4NkMzNy40Nzc5IDEyLjE4NCAzNy4yMzk2IDEyLjI2ODMgMzcuMDYzNiAxMi40MzdDMzYuODg3NiAxMi42MDU3IDM2Ljc5OTYgMTIuODIyIDM2Ljc5OTYgMTMuMDg2QzM2Ljc5OTYgMTMuMzU3MyAzNi44OTEzIDEzLjU3NzMgMzcuMDc0NiAxMy43NDZDMzcuMjY1MyAxMy45MDczIDM3LjUzMjkgMTMuOTg4IDM3Ljg3NzYgMTMuOTg4Wk00My4wNzYzIDE2Ljk4VjE1LjgzNkg0NC43ODEzQzQ1LjEwNCAxNS44MzYgNDUuMzUzMyAxNS43NDggNDUuNTI5MyAxNS41NzJDNDUuNzA1MyAxNS40MDMzIDQ1Ljc5MzMgMTUuMTcyMyA0NS43OTMzIDE0Ljg3OVYxNC41MTZMNDUuODE1MyAxMy41N0M0NS42OTA2IDEzLjkwNzMgNDUuNDg5IDE0LjE3MTMgNDUuMjEwMyAxNC4zNjJDNDQuOTM5IDE0LjU0NTMgNDQuNjA1MyAxNC42MzcgNDQuMjA5MyAxNC42MzdDNDMuNTkzMyAxNC42MzcgNDMuMTAyIDE0LjQzMTcgNDIuNzM1MyAxNC4wMjFDNDIuMzc2IDEzLjYwMyA0Mi4xOTYzIDEzLjAzODMgNDIuMTk2MyAxMi4zMjdWMTEuMTVDNDIuMTk2MyAxMC40NDYgNDIuMzc2IDkuODg1IDQyLjczNTMgOS40NjdDNDMuMTAyIDkuMDQ5IDQzLjU5MzMgOC44NCA0NC4yMDkzIDguODRDNDQuNjA1MyA4Ljg0IDQ0LjkzOSA4LjkzNTMzIDQ1LjIxMDMgOS4xMjZDNDUuNDg5IDkuMzA5MzMgNDUuNjkwNiA5LjU3MzMzIDQ1LjgxNTMgOS45MThWOC45NUg0Ny4xNTczVjE0LjkxMkM0Ny4xNTczIDE1LjU1IDQ2Ljk0NDYgMTYuMDUyMyA0Ni41MTkzIDE2LjQxOUM0Ni4xMDEzIDE2Ljc5MyA0NS41MjkzIDE2Ljk4IDQ0LjgwMzMgMTYuOThINDMuMDc2M1pNNDQuNjcxMyAxMy40NkM0NS4wMjMzIDEzLjQ2IDQ1LjI5NDYgMTMuMzU3MyA0NS40ODUzIDEzLjE1MkM0NS42ODMzIDEyLjkzOTMgNDUuNzgyMyAxMi42NDYgNDUuNzgyMyAxMi4yNzJWMTEuMjE2QzQ1Ljc4MjMgMTAuODQyIDQ1LjY4MzMgMTAuNTUyMyA0NS40ODUzIDEwLjM0N0M0NS4yOTQ2IDEwLjEzNDMgNDUuMDIzMyAxMC4wMjggNDQuNjcxMyAxMC4wMjhDNDQuMzE5MyAxMC4wMjggNDQuMDQ4IDEwLjEzMDcgNDMuODU3MyAxMC4zMzZDNDMuNjY2NiAxMC41MzQgNDMuNTcxMyAxMC44MTI3IDQzLjU3MTMgMTEuMTcyVjEyLjMxNkM0My41NzEzIDEyLjY3NTMgNDMuNjY2NiAxMi45NTc3IDQzLjg1NzMgMTMuMTYzQzQ0LjA0OCAxMy4zNjEgNDQuMzE5MyAxMy40NiA0NC42NzEzIDEzLjQ2Wk01MS4zMTEgMTUuMTFDNTAuNzk3NyAxNS4xMSA1MC4zNTAzIDE1LjAxMSA0OS45NjkgMTQuODEzQzQ5LjU4NzcgMTQuNjE1IDQ5LjI5MDcgMTQuMzM2MyA0OS4wNzggMTMuOTc3QzQ4Ljg3MjcgMTMuNjEwMyA0OC43NyAxMy4xODEzIDQ4Ljc3IDEyLjY5VjExLjI2QzQ4Ljc3IDEwLjc2ODcgNDguODcyNyAxMC4zNDMzIDQ5LjA3OCA5Ljk4NEM0OS4yOTA3IDkuNjE3MzMgNDkuNTg3NyA5LjMzNSA0OS45NjkgOS4xMzdDNTAuMzUwMyA4LjkzOSA1MC43OTc3IDguODQgNTEuMzExIDguODRDNTEuODE3IDguODQgNTIuMjU3IDguOTM5IDUyLjYzMSA5LjEzN0M1My4wMTIzIDkuMzM1IDUzLjMwNTcgOS42MTM2NyA1My41MTEgOS45NzNDNTMuNzIzNyAxMC4zMjUgNTMuODMgMTAuNzM5MyA1My44MyAxMS4yMTZWMTIuMzE2SDUwLjA5VjEyLjczNEM1MC4wOSAxMy4xNDQ3IDUwLjE5NjMgMTMuNDU2MyA1MC40MDkgMTMuNjY5QzUwLjYyMTcgMTMuODc0MyA1MC45MjIzIDEzLjk3NyA1MS4zMTEgMTMuOTc3QzUxLjU5NyAxMy45NzcgNTEuODM5IDEzLjkyOTMgNTIuMDM3IDEzLjgzNEM1Mi4yNDIzIDEzLjczMTMgNTIuMzYzMyAxMy41ODQ3IDUyLjQgMTMuMzk0SDUzLjc2NEM1My42Njg3IDEzLjkxNDcgNTMuMzk3MyAxNC4zMzI3IDUyLjk1IDE0LjY0OEM1Mi41MDI3IDE0Ljk1NiA1MS45NTYzIDE1LjExIDUxLjMxMSAxNS4xMVpNNTAuMDkgMTEuMjE2VjExLjQyNUw1Mi41MSAxMS40MTRWMTEuMjA1QzUyLjUxIDEwLjc4NyA1Mi40MDczIDEwLjQ2NDMgNTIuMjAyIDEwLjIzN0M1MS45OTY3IDEwLjAwOTcgNTEuNjk5NyA5Ljg5NiA1MS4zMTEgOS44OTZDNTAuOTA3NyA5Ljg5NiA1MC42MDMzIDEwLjAxMzMgNTAuMzk4IDEwLjI0OEM1MC4xOTI3IDEwLjQ3NTMgNTAuMDkgMTAuNzk4IDUwLjA5IDExLjIxNlpNNTcuODk1NyAxNS4xMUM1Ny41ODc3IDE1LjExIDU3LjMzODQgMTUuMDE4MyA1Ny4xNDc3IDE0LjgzNUM1Ni45NjQ0IDE0LjY0NDMgNTYuODcyNyAxNC4zOTg3IDU2Ljg3MjcgMTQuMDk4QzU2Ljg3MjcgMTMuNzk3MyA1Ni45NjQ0IDEzLjU1MTcgNTcuMTQ3NyAxMy4zNjFDNTcuMzM4NCAxMy4xNzAzIDU3LjU4NzcgMTMuMDc1IDU3Ljg5NTcgMTMuMDc1QzU4LjIwMzcgMTMuMDc1IDU4LjQ0OTQgMTMuMTcwMyA1OC42MzI3IDEzLjM2MUM1OC44MjM0IDEzLjU1MTcgNTguOTE4NyAxMy43OTczIDU4LjkxODcgMTQuMDk4QzU4LjkxODcgMTQuMzk4NyA1OC44MjM0IDE0LjY0NDMgNTguNjMyNyAxNC44MzVDNTguNDQ5NCAxNS4wMTgzIDU4LjIwMzcgMTUuMTEgNTcuODk1NyAxNS4xMVpNNjIuMDgyNCAxNi45OFYxNS43MzdINjMuNjc3NEM2NC4wMjk0IDE1LjczNyA2NC4zMDgxIDE1LjYzMDcgNjQuNTEzNCAxNS40MThDNjQuNzE4NyAxNS4yMTI3IDY0LjgyMTQgMTQuOTMwMyA2NC44MjE0IDE0LjU3MVYxMC4xOTNINjIuMDI3NFY4Ljk1SDY2LjE5NjRWMTQuNjA0QzY2LjE5NjQgMTUuMzM3MyA2NS45NzY0IDE1LjkxNjcgNjUuNTM2NCAxNi4zNDJDNjUuMDk2NCAxNi43NjczIDY0LjUwMjQgMTYuOTggNjMuNzU0NCAxNi45OEg2Mi4wODI0Wk02NS40Mzc0IDcuOTM4QzY1LjE1ODcgNy45MzggNjQuOTM4NyA3Ljg2ODMzIDY0Ljc3NzQgNy43MjlDNjQuNjE2MSA3LjU4MjMzIDY0LjUzNTQgNy4zODggNjQuNTM1NCA3LjE0NkM2NC41MzU0IDYuOTA0IDY0LjYxNjEgNi43MTMzMyA2NC43Nzc0IDYuNTc0QzY0LjkzODcgNi40MjczMyA2NS4xNTg3IDYuMzU0IDY1LjQzNzQgNi4zNTRDNjUuNzE2MSA2LjM1NCA2NS45MzYxIDYuNDI3MzMgNjYuMDk3NCA2LjU3NEM2Ni4yNTg3IDYuNzEzMzMgNjYuMzM5NCA2LjkwNCA2Ni4zMzk0IDcuMTQ2QzY2LjMzOTQgNy4zODggNjYuMjU4NyA3LjU4MjMzIDY2LjA5NzQgNy43MjlDNjUuOTM2MSA3Ljg2ODMzIDY1LjcxNjEgNy45MzggNjUuNDM3NCA3LjkzOFpNNzAuODM0MSAxNS4wOTlDNzAuMTE1NCAxNS4wOTkgNjkuNTQ3MSAxNC45Mzc3IDY5LjEyOTEgMTQuNjE1QzY4LjcxMTEgMTQuMjg1IDY4LjUwMjEgMTMuODQxMyA2OC41MDIxIDEzLjI4NEg2OS44NTUxQzY5Ljg1NTEgMTMuNTE4NyA2OS45Mzk0IDEzLjY5ODMgNzAuMTA4MSAxMy44MjNDNzAuMjg0MSAxMy45NDc3IDcwLjUyNjEgMTQuMDEgNzAuODM0MSAxNC4wMUg3MS4zMTgxQzcxLjY0ODEgMTQuMDEgNzEuOTAxMSAxMy45NDc3IDcyLjA3NzEgMTMuODIzQzcyLjI2MDQgMTMuNjk4MyA3Mi4zNTIxIDEzLjUxODcgNzIuMzUyMSAxMy4yODRDNzIuMzUyMSAxMy4wNjQgNzIuMjg5OCAxMi45MDI3IDcyLjE2NTEgMTIuOEM3Mi4wNDA0IDEyLjY5IDcxLjg0OTggMTIuNjE2NyA3MS41OTMxIDEyLjU4TDcwLjA4NjEgMTIuMzgyQzY5LjYwMjEgMTIuMzE2IDY5LjIyODEgMTIuMTI5IDY4Ljk2NDEgMTEuODIxQzY4LjcwNzQgMTEuNTEzIDY4LjU3OTEgMTEuMTEzMyA2OC41NzkxIDEwLjYyMkM2OC41NzkxIDEwLjA1IDY4Ljc2OTggOS42MTM2NyA2OS4xNTExIDkuMzEzQzY5LjUzMjQgOS4wMDUgNzAuMDgyNCA4Ljg1MSA3MC44MDExIDguODUxSDcxLjMwNzFDNzEuOTgxOCA4Ljg1MSA3Mi41MjQ0IDkuMDA1IDcyLjkzNTEgOS4zMTNDNzMuMzQ1OCA5LjYyMSA3My41NTg0IDEwLjAzMTcgNzMuNTczMSAxMC41NDVINzIuMjA5MUM3Mi4yMDE4IDEwLjM1NDMgNzIuMTE3NCAxMC4yMDQgNzEuOTU2MSAxMC4wOTRDNzEuNzk0OCA5Ljk3NjY3IDcxLjU3ODQgOS45MTggNzEuMzA3MSA5LjkxOEg3MC44MDExQzcwLjUwNzggOS45MTggNzAuMjg0MSA5Ljk4MDMzIDcwLjEzMDEgMTAuMTA1QzY5Ljk3NjEgMTAuMjIyMyA2OS44OTkxIDEwLjM4MzcgNjkuODk5MSAxMC41ODlDNjkuODk5MSAxMC43NzIzIDY5Ljk1NDEgMTAuOTA4IDcwLjA2NDEgMTAuOTk2QzcwLjE4MTQgMTEuMDg0IDcwLjM1MDEgMTEuMTM5IDcwLjU3MDEgMTEuMTYxTDcxLjk4OTEgMTEuMzU5QzcyLjU0NjQgMTEuNDI1IDcyLjk2NDQgMTEuNjIzIDczLjI0MzEgMTEuOTUzQzczLjUyOTEgMTIuMjc1NyA3My42NzIxIDEyLjcxMiA3My42NzIxIDEzLjI2MkM3My42NzIxIDEzLjg0ODcgNzMuNDcwNCAxNC4zMDMzIDczLjA2NzEgMTQuNjI2QzcyLjY3MTEgMTQuOTQxMyA3Mi4wODgxIDE1LjA5OSA3MS4zMTgxIDE1LjA5OUg3MC44MzQxWk03Ny42ODI4IDE1LjA5OUM3Ni45MDU1IDE1LjA5OSA3Ni4yODk1IDE0Ljg4MjcgNzUuODM0OCAxNC40NUM3NS4zODAxIDE0LjAxIDc1LjE1MjggMTMuNDE5NyA3NS4xNTI4IDEyLjY3OVYxMS4yNzFDNzUuMTUyOCAxMC41MjMgNzUuMzgwMSA5LjkzMjY3IDc1LjgzNDggOS41Qzc2LjI4OTUgOS4wNjczMyA3Ni45MDU1IDguODUxIDc3LjY4MjggOC44NTFDNzguNDYwMSA4Ljg1MSA3OS4wNzYxIDkuMDY3MzMgNzkuNTMwOCA5LjVDNzkuOTg1NSA5LjkzMjY3IDgwLjIxMjggMTAuNTIzIDgwLjIxMjggMTEuMjcxVjEyLjY3OUM4MC4yMTI4IDEzLjQxOTcgNzkuOTg1NSAxNC4wMSA3OS41MzA4IDE0LjQ1Qzc5LjA3NjEgMTQuODgyNyA3OC40NjAxIDE1LjA5OSA3Ny42ODI4IDE1LjA5OVpNNzcuNjgyOCAxMy45Qzc4LjA0OTUgMTMuOSA3OC4zMzE4IDEzLjgwMSA3OC41Mjk4IDEzLjYwM0M3OC43MzUxIDEzLjM5NzcgNzguODM3OCAxMy4xMDQzIDc4LjgzNzggMTIuNzIzVjExLjIyN0M3OC44Mzc4IDEwLjg0NTcgNzguNzM1MSAxMC41NTYgNzguNTI5OCAxMC4zNThDNzguMzMxOCAxMC4xNTI3IDc4LjA0OTUgMTAuMDUgNzcuNjgyOCAxMC4wNUM3Ny4zMTYxIDEwLjA1IDc3LjAzMDEgMTAuMTUyNyA3Ni44MjQ4IDEwLjM1OEM3Ni42MjY4IDEwLjU1NiA3Ni41Mjc4IDEwLjg0NTcgNzYuNTI3OCAxMS4yMjdWMTIuNzIzQzc2LjUyNzggMTMuMTA0MyA3Ni42MjY4IDEzLjM5NzcgNzYuODI0OCAxMy42MDNDNzcuMDMwMSAxMy44MDEgNzcuMzE2MSAxMy45IDc3LjY4MjggMTMuOVpNODEuODI1NSAxNVY4Ljk1SDgzLjE2NzVWMTAuMDgzQzgzLjI0MDggOS43MDE2NyA4My40MjA1IDkuNDAxIDgzLjcwNjUgOS4xODFDODMuOTkyNSA4Ljk1MzY3IDg0LjM1NTUgOC44NCA4NC43OTU1IDguODRDODUuMzg5NSA4Ljg0IDg1Ljg2MjUgOS4wMzggODYuMjE0NSA5LjQzNEM4Ni41NzM4IDkuODMgODYuNzUzNSAxMC4zNjE3IDg2Ljc1MzUgMTEuMDI5VjE1SDg1LjM3ODVWMTEuMTk0Qzg1LjM3ODUgMTAuODIgODUuMjc5NSAxMC41MzQgODUuMDgxNSAxMC4zMzZDODQuODkwOCAxMC4xMzA3IDg0LjYzMDUgMTAuMDI4IDg0LjMwMDUgMTAuMDI4QzgzLjk1NTggMTAuMDI4IDgzLjY4NDUgMTAuMTMwNyA4My40ODY1IDEwLjMzNkM4My4yOTU4IDEwLjU0MTMgODMuMjAwNSAxMC44MzQ3IDgzLjIwMDUgMTEuMjE2VjE1SDgxLjgyNTVaIi8+JiN4YTs8L3N2Zz4=;" parent="1" vertex="1">
          <mxGeometry x="447.49900573730474" y="326.1117175292968" width="96" height="23" as="geometry" />
        </mxCell>
        <mxCell id="6Q_wfIdElCOlgVAC6Y2N-7" value="" style="endArrow=classic;html=1;rounded=0;exitX=1;exitY=0.5;exitDx=0;exitDy=0;entryX=0;entryY=0.5;entryDx=0;entryDy=0;fontFamily=Jetbrains Mono;fontSource=https%3A%2F%2Ffonts.googleapis.com%2Fcss%3Ffamily%3DJetbrains%2BMono;strokeWidth=2;" parent="1" source="6Q_wfIdElCOlgVAC6Y2N-3" target="6Q_wfIdElCOlgVAC6Y2N-4" edge="1">
          <mxGeometry width="50" height="50" relative="1" as="geometry">
            <mxPoint x="514" y="383" as="sourcePoint" />
            <mxPoint x="564" y="333" as="targetPoint" />
          </mxGeometry>
        </mxCell>
        <mxCell id="6Q_wfIdElCOlgVAC6Y2N-22" value="&amp;nbsp;Triggers&amp;nbsp;" style="edgeLabel;html=1;align=center;verticalAlign=middle;resizable=0;points=[];fontFamily=Jetbrains Mono;fontSource=https%3A%2F%2Ffonts.googleapis.com%2Fcss%3Ffamily%3DJetbrains%2BMono;fontStyle=1" parent="6Q_wfIdElCOlgVAC6Y2N-7" vertex="1" connectable="0">
          <mxGeometry x="0.1418" relative="1" as="geometry">
            <mxPoint x="-12" as="offset" />
          </mxGeometry>
        </mxCell>
        <mxCell id="6Q_wfIdElCOlgVAC6Y2N-8" value="" style="endArrow=classic;html=1;rounded=0;exitX=0.5;exitY=1;exitDx=0;exitDy=0;entryX=0.5;entryY=0;entryDx=0;entryDy=0;strokeWidth=2;" parent="1" source="6Q_wfIdElCOlgVAC6Y2N-4" target="6Q_wfIdElCOlgVAC6Y2N-9" edge="1">
          <mxGeometry width="50" height="50" relative="1" as="geometry">
            <mxPoint x="653" y="354" as="sourcePoint" />
            <mxPoint x="796" y="261" as="targetPoint" />
          </mxGeometry>
        </mxCell>
        <mxCell id="6Q_wfIdElCOlgVAC6Y2N-20" value="&amp;nbsp;Executes&amp;nbsp;" style="edgeLabel;html=1;align=center;verticalAlign=middle;resizable=0;points=[];fontFamily=Jetbrains Mono;fontSource=https%3A%2F%2Ffonts.googleapis.com%2Fcss%3Ffamily%3DJetbrains%2BMono;fontStyle=1" parent="6Q_wfIdElCOlgVAC6Y2N-8" vertex="1" connectable="0">
          <mxGeometry x="-0.4473" y="1" relative="1" as="geometry">
            <mxPoint x="-1" y="8" as="offset" />
          </mxGeometry>
        </mxCell>
        <mxCell id="6Q_wfIdElCOlgVAC6Y2N-9" value="" style="shape=image;verticalLabelPosition=bottom;labelBackgroundColor=default;verticalAlign=top;aspect=fixed;imageAspect=0;image=data:image/svg+xml,PHN2ZyB4bWxucz0iaHR0cDovL3d3dy53My5vcmcvMjAwMC9zdmciIGZpbGw9Im5vbmUiIHZpZXdCb3g9IjAgMCA4MyA0NCIgaGVpZ2h0PSI0NCIgd2lkdGg9IjgzIj4mI3hhOzxyZWN0IGZpbGw9IiNGQ0ZDRkMiIHJ4PSIzIiBoZWlnaHQ9IjQyIiB3aWR0aD0iODEiIHk9IjEiIHg9IjEiLz4mI3hhOzxyZWN0IHN0cm9rZS13aWR0aD0iMiIgc3Ryb2tlPSJibGFjayIgcng9IjMiIGhlaWdodD0iNDIiIHdpZHRoPSI4MSIgeT0iMSIgeD0iMSIvPiYjeGE7PHBhdGggZmlsbD0iYmxhY2siIGQ9Ik0yNi4xNyAyMC42NzI1QzI2LjI4NSAyMS4wMzUgMjUuOTkgMjEuMzc0MiAyNS42MSAyMS4zNzQySDIyLjcyMjVDMjIuNjEyNyAyMS4zNzQzIDIyLjUwNDkgMjEuMzQ1NCAyMi40MDk4IDIxLjI5MDVDMjIuMzE0NyAyMS4yMzU3IDIyLjIzNTcgMjEuMTU2OCAyMi4xODA4IDIxLjA2MTdMMjAuNzM3NSAxOC41NjE3QzIwLjU0NjcgMTguMjMxNyAyMC42OTMzIDE3LjgwNTggMjEuMDY1IDE3LjcyNUMyMi4xMzAyIDE3LjQ5MjIgMjMuMjQzOSAxNy42NjUzIDI0LjE4ODEgMTguMjEwNEMyNS4xMzI0IDE4Ljc1NTYgMjUuODM5MSAxOS42MzM2IDI2LjE3IDIwLjY3MjVaTTE4Ljc2NjcgMTkuMDUzM0MxOS4wMjI1IDE4Ljc3MTcgMTkuNDY1IDE4Ljg1NzUgMTkuNjU1IDE5LjE4NjdMMjEuMDk4MyAyMS42ODY3QzIxLjE1MzIgMjEuNzgxNyAyMS4xODIxIDIxLjg4OTUgMjEuMTgyMSAyMS45OTkyQzIxLjE4MjEgMjIuMTA4OSAyMS4xNTMyIDIyLjIxNjcgMjEuMDk4MyAyMi4zMTE3TDE5LjY1NSAyNC44MTE3QzE5LjQ2NDIgMjUuMTQyNSAxOS4wMjE3IDI1LjIyODMgMTguNzY1OCAyNC45NDU4QzE4LjAzMDYgMjQuMTQxMSAxNy42MjM1IDIzLjA5MDEgMTcuNjI1IDIyQzE3LjYyMzUgMjAuOTA5NiAxOC4wMzA5IDE5Ljg1ODIgMTguNzY2NyAxOS4wNTMzWk0yMS4wNjUgMjYuMjc1QzIwLjY5MjUgMjYuMTkzMyAyMC41NDU4IDI1Ljc2ODMgMjAuNzM2NyAyNS40MzgzTDIyLjE4MDggMjIuOTM2N0MyMi4yMzU3IDIyLjg0MTYgMjIuMzE0NyAyMi43NjI3IDIyLjQwOTggMjIuNzA3OEMyMi41MDQ5IDIyLjY1MyAyMi42MTI3IDIyLjYyNDEgMjIuNzIyNSAyMi42MjQySDI1LjYxQzI1Ljk5MDggMjIuNjI0MiAyNi4yODUgMjIuOTYzMyAyNi4xNyAyMy4zMjU4QzI1LjgzOTUgMjQuMzY1MSAyNS4xMzI4IDI1LjI0MzQgMjQuMTg4NiAyNS43ODg5QzIzLjI0NDMgMjYuMzM0NSAyMi4xMzA0IDI2LjUwNzggMjEuMDY1IDI2LjI3NVoiLz4mI3hhOzxwYXRoIGZpbGw9ImJsYWNrIiBkPSJNMjkuNTAwMSAyMi42MjVDMjkuNjY1OSAyMi42MjUgMjkuODI0OSAyMi41NTkxIDI5Ljk0MjEgMjIuNDQxOUMzMC4wNTkzIDIyLjMyNDcgMzAuMTI1MSAyMi4xNjU4IDMwLjEyNTEgMjJDMzAuMTI1MSAyMS44MzQyIDMwLjA1OTMgMjEuNjc1MyAyOS45NDIxIDIxLjU1ODFDMjkuODI0OSAyMS40NDA4IDI5LjY2NTkgMjEuMzc1IDI5LjUwMDEgMjEuMzc1SDI4Ljg0NzZDMjguODEzNiAyMC45OTMyIDI4Ljc0NzUgMjAuNjE0OSAyOC42NTAxIDIwLjI0NDJMMjkuMjYxOCAyMC4wMjE3QzI5LjMzOSAxOS45OTM2IDI5LjQwOTggMTkuOTUwNiAyOS40NzA0IDE5Ljg5NTFDMjkuNTMwOSAxOS44Mzk3IDI5LjU3OTkgMTkuNzcyOCAyOS42MTQ2IDE5LjY5ODRDMjkuNjQ5MyAxOS42MjQgMjkuNjY5IDE5LjU0MzUgMjkuNjcyNiAxOS40NjE1QzI5LjY3NjIgMTkuMzc5NSAyOS42NjM2IDE5LjI5NzYgMjkuNjM1NiAxOS4yMjA0QzI5LjYwNzUgMTkuMTQzMyAyOS41NjQ1IDE5LjA3MjQgMjkuNTA5IDE5LjAxMTlDMjkuNDUzNiAxOC45NTEzIDI5LjM4NjcgMTguOTAyMyAyOS4zMTIzIDE4Ljg2NzZDMjkuMjM3OSAxOC44MzI5IDI5LjE1NzQgMTguODEzMiAyOS4wNzU0IDE4LjgwOTZDMjguOTkzNCAxOC44MDYgMjguOTExNSAxOC44MTg2IDI4LjgzNDMgMTguODQ2N0wyOC4yMjE4IDE5LjA3QzI4LjA1ODUgMTguNzIzNCAyNy44NjY0IDE4LjM5MTIgMjcuNjQ3NiAxOC4wNzY3TDI4LjE0NzYgMTcuNjU3NUMyOC4yMTE5IDE3LjYwNTIgMjguMjY1MSAxNy41NDA2IDI4LjMwNDIgMTcuNDY3NkMyOC4zNDMzIDE3LjM5NDUgMjguMzY3NSAxNy4zMTQ0IDI4LjM3NTMgMTcuMjMxOUMyOC4zODMyIDE3LjE0OTQgMjguMzc0NSAxNy4wNjYyIDI4LjM0OTkgMTYuOTg3MUMyOC4zMjUzIDE2LjkwNzkgMjguMjg1MiAxNi44MzQ1IDI4LjIzMTkgMTYuNzcxQzI4LjE3ODcgMTYuNzA3NSAyOC4xMTMzIDE2LjY1NTMgMjguMDM5NyAxNi42MTczQzI3Ljk2NiAxNi41NzkzIDI3Ljg4NTYgMTYuNTU2MyAyNy44MDMgMTYuNTQ5N0MyNy43MjA0IDE2LjU0MzEgMjcuNjM3MyAxNi41NTMgMjcuNTU4NiAxNi41Nzg4QzI3LjQ3OTggMTYuNjA0NiAyNy40MDcgMTYuNjQ1OCAyNy4zNDQzIDE2LjdMMjYuODQ0MyAxNy4xMkMyNi41NzI1IDE2Ljg1MDMgMjYuMjc4NyAxNi42MDM2IDI1Ljk2NiAxNi4zODI1TDI2LjI5MTggMTUuODE3NUMyNi4zMzM1IDE1Ljc0NjQgMjYuMzYwNyAxNS42Njc3IDI2LjM3MTkgMTUuNTg2MUMyNi4zODMgMTUuNTA0NCAyNi4zNzc5IDE1LjQyMTMgMjYuMzU2OSAxNS4zNDE3QzI2LjMzNTggMTUuMjYyIDI2LjI5OTIgMTUuMTg3MiAyNi4yNDkxIDE1LjEyMThDMjYuMTk5IDE1LjA1NjMgMjYuMTM2NSAxNS4wMDE0IDI2LjA2NTEgMTQuOTYwMUMyNS45OTM4IDE0LjkxODkgMjUuOTE0OSAxNC44OTIyIDI1LjgzMzIgMTQuODgxNkMyNS43NTE1IDE0Ljg3MSAyNS42Njg0IDE0Ljg3NjYgMjUuNTg4OSAxNC44OTgyQzI1LjUwOTMgMTQuOTE5OCAyNS40MzQ4IDE0Ljk1NyAyNS4zNjk3IDE1LjAwNzVDMjUuMzA0NiAxNS4wNTggMjUuMjUgMTUuMTIwOCAyNS4yMDkzIDE1LjE5MjVMMjQuODg0MyAxNS43NTU4QzI0LjUzNjIgMTUuNTk1MiAyNC4xNzUyIDE1LjQ2NDIgMjMuODA1MSAxNS4zNjQyTDIzLjkxODUgMTQuNzIyNUMyMy45NDM3IDE0LjU2MDggMjMuOTA0NCAxNC4zOTU3IDIzLjgwOTIgMTQuMjYyNkMyMy43MTQgMTQuMTI5NSAyMy41NzA0IDE0LjAzOTEgMjMuNDA5MyAxNC4wMTA3QzIzLjI0ODEgMTMuOTgyNCAyMy4wODIzIDE0LjAxODMgMjIuOTQ3NCAxNC4xMTA5QzIyLjgxMjQgMTQuMjAzNSAyMi43MTkyIDE0LjM0NTMgMjIuNjg3NiAxNC41MDU4TDIyLjU3NDMgMTUuMTQ3NUMyMi4xOTI1IDE1LjExNTkgMjEuODA4NyAxNS4xMTU5IDIxLjQyNjggMTUuMTQ3NUwyMS4zMTM1IDE0LjUwNThDMjEuMzAwNyAxNC40MjM3IDIxLjI3MTYgMTQuMzQ1IDIxLjIyOCAxNC4yNzQyQzIxLjE4NDQgMTQuMjAzNCAyMS4xMjcyIDE0LjE0MjEgMjEuMDU5NiAxNC4wOTM3QzIwLjk5MiAxNC4wNDU0IDIwLjkxNTQgMTQuMDExIDIwLjgzNDQgMTMuOTkyNkMyMC43NTMzIDEzLjk3NDIgMjAuNjY5NCAxMy45NzIxIDIwLjU4NzYgMTMuOTg2NUMyMC41MDU3IDE0LjAwMDkgMjAuNDI3NiAxNC4wMzE1IDIwLjM1NzcgMTQuMDc2NUMyMC4yODc4IDE0LjEyMTUgMjAuMjI3NiAxNC4xNzk5IDIwLjE4MDYgMTQuMjQ4NUMyMC4xMzM1IDE0LjMxNyAyMC4xMDA3IDE0LjM5NDIgMjAuMDgzOCAxNC40NzU2QzIwLjA2NyAxNC41NTcgMjAuMDY2NiAxNC42NDA5IDIwLjA4MjYgMTQuNzIyNUwyMC4xOTYgMTUuMzY0MkMxOS44MjI2IDE1LjQ2NSAxOS40NjI2IDE1LjU5NzUgMTkuMTE3NiAxNS43NTU4TDE4Ljc5MjYgMTUuMTkyNUMxOC43NTE2IDE1LjEyMTQgMTguNjk3IDE1LjA1OSAxOC42MzE4IDE1LjAwOUMxOC41NjY3IDE0Ljk1OSAxOC40OTIzIDE0LjkyMjMgMTguNDEzIDE0LjkwMUMxOC4zMzM3IDE0Ljg3OTcgMTguMjUxIDE0Ljg3NDMgMTguMTY5NiAxNC44ODVDMTguMDg4MSAxNC44OTU3IDE4LjAwOTYgMTQuOTIyMyAxNy45Mzg1IDE0Ljk2MzNDMTcuODY3MyAxNS4wMDQ0IDE3LjgwNSAxNS4wNTkgMTcuNzU1IDE1LjEyNDFDMTcuNzA1IDE1LjE4OTMgMTcuNjY4MyAxNS4yNjM2IDE3LjY0NyAxNS4zNDI5QzE3LjYyNTcgMTUuNDIyMyAxNy42MjAzIDE1LjUwNSAxNy42MzEgMTUuNTg2NEMxNy42NDE2IDE1LjY2NzggMTcuNjY4MyAxNS43NDY0IDE3LjcwOTMgMTUuODE3NUwxOC4wMzYgMTYuMzgyNUMxNy43MjMzIDE2LjYwMzYgMTcuNDI5NSAxNi44NTAyIDE3LjE1NzYgMTcuMTJMMTYuNjU3NiAxNi43QzE2LjUzMDcgMTYuNTkzNCAxNi4zNjY1IDE2LjU0MTUgMTYuMjAxMyAxNi41NTU5QzE2LjAzNjIgMTYuNTcwMyAxNS44ODM0IDE2LjY0OTcgMTUuNzc2OCAxNi43NzY3QzE1LjY3MDIgMTYuOTAzNiAxNS42MTgzIDE3LjA2NzggMTUuNjMyNyAxNy4yMzNDMTUuNjQ3MSAxNy4zOTgxIDE1LjcyNjUgMTcuNTUwOSAxNS44NTM1IDE3LjY1NzVMMTYuMzUzNSAxOC4wNzY3QzE2LjEzNDcgMTguMzkxMiAxNS45NDI3IDE4LjcyMzUgMTUuNzc5MyAxOS4wN0wxNS4xNjY4IDE4Ljg0NjdDMTUuMDExIDE4Ljc5IDE0LjgzOSAxOC43OTc1IDE0LjY4ODggMTguODY3NkMxNC41Mzg1IDE4LjkzNzcgMTQuNDIyMiAxOS4wNjQ2IDE0LjM2NTYgMTkuMjIwNEMxNC4zMDg5IDE5LjM3NjIgMTQuMzE2NCAxOS41NDgyIDE0LjM4NjUgMTkuNjk4NEMxNC40NTY2IDE5Ljg0ODcgMTQuNTgzNSAxOS45NjUgMTQuNzM5MyAyMC4wMjE3TDE1LjM1MTggMjAuMjQ0MkMxNS4yNTQyIDIwLjYxNDYgMTUuMTg3OSAyMC45OTI2IDE1LjE1MzUgMjEuMzc0MkgxNC41MDFDMTQuMzM1MiAyMS4zNzQyIDE0LjE3NjIgMjEuNDQgMTQuMDU5IDIxLjU1NzJDMTMuOTQxOCAyMS42NzQ0IDEzLjg3NiAyMS44MzM0IDEzLjg3NiAyMS45OTkyQzEzLjg3NiAyMi4xNjQ5IDEzLjk0MTggMjIuMzIzOSAxNC4wNTkgMjIuNDQxMUMxNC4xNzYyIDIyLjU1ODMgMTQuMzM1MiAyMi42MjQyIDE0LjUwMSAyMi42MjQySDE1LjE1MzVDMTUuMTg4NSAyMy4wMTA4IDE1LjI1NTEgMjMuMzg4MyAxNS4zNTE4IDIzLjc1NDJMMTQuNzM5MyAyMy45Nzc1QzE0LjU4MzUgMjQuMDM0MiAxNC40NTY2IDI0LjE1MDUgMTQuMzg2NSAyNC4zMDA3QzE0LjMxNjQgMjQuNDUxIDE0LjMwODkgMjQuNjIyOSAxNC4zNjU2IDI0Ljc3ODdDMTQuNDIyMiAyNC45MzQ2IDE0LjUzODUgMjUuMDYxNSAxNC42ODg4IDI1LjEzMTZDMTQuODM5IDI1LjIwMTcgMTUuMDExIDI1LjIwOTIgMTUuMTY2OCAyNS4xNTI1TDE1Ljc3OTMgMjQuOTI5MkMxNS45NDM1IDI1LjI3NjcgMTYuMTM2IDI1LjYwOTIgMTYuMzU0MyAyNS45MjE3TDE1Ljg1NDMgMjYuMzQxN0MxNS43Mjg3IDI2LjQ0ODUgMTUuNjUwNCAyNi42MDA3IDE1LjYzNjQgMjYuNzY1QzE1LjYyMjUgMjYuOTI5NCAxNS42NzQxIDI3LjA5MjYgMTUuNzggMjcuMjE5QzE1Ljg4NTkgMjcuMzQ1NSAxNi4wMzc1IDI3LjQyNSAxNi4yMDE3IDI3LjQ0MDFDMTYuMzY2IDI3LjQ1NTMgMTYuNTI5NiAyNy40MDQ5IDE2LjY1NjggMjcuM0wxNy4xNTc2IDI2Ljg3OTJDMTcuNDI5MyAyNy4xNDgzIDE3LjcyMzUgMjcuMzk1OCAxOC4wMzYgMjcuNjE2N0wxNy43MDkzIDI4LjE4MzNDMTcuNjI2NCAyOC4zMjcgMTcuNjA0IDI4LjQ5NzcgMTcuNjQ3IDI4LjY1NzlDMTcuNjkgMjguODE4MSAxNy43OTQ4IDI4Ljk1NDYgMTcuOTM4NSAyOS4wMzc1QzE4LjA4MjEgMjkuMTIwNCAxOC4yNTI4IDI5LjE0MjggMTguNDEzIDI5LjA5OThDMTguNTczMiAyOS4wNTY4IDE4LjcwOTggMjguOTUyIDE4Ljc5MjYgMjguODA4M0wxOS4xMTc2IDI4LjI0MjVDMTkuNDYyNiAyOC40MDI1IDE5LjgyMzUgMjguNTM0MiAyMC4xOTYgMjguNjM1TDIwLjA4MjYgMjkuMjc2N0MyMC4wNTYxIDI5LjQzODkgMjAuMDk0NSAyOS42MDUxIDIwLjE4OTYgMjkuNzM5MkMyMC4yODQ2IDI5Ljg3MzMgMjAuNDI4OCAyOS45NjQ2IDIwLjU5MDcgMjkuOTkzMkMyMC43NTI2IDMwLjAyMTggMjAuOTE5MiAyOS45ODU1IDIxLjA1NDUgMjkuODkyMUMyMS4xODk4IDI5Ljc5ODcgMjEuMjgyOCAyOS42NTU3IDIxLjMxMzUgMjkuNDk0MkwyMS40Mjc2IDI4Ljg1MDhDMjEuODA5MiAyOC44ODI0IDIyLjE5MjcgMjguODgyNCAyMi41NzQzIDI4Ljg1MDhMMjIuNjg3NiAyOS40OTQyQzIyLjcwMDQgMjkuNTc2MyAyMi43Mjk1IDI5LjY1NSAyMi43NzMxIDI5LjcyNThDMjIuODE2NyAyOS43OTY1IDIyLjg3MzkgMjkuODU3OSAyMi45NDE1IDI5LjkwNjNDMjMuMDA5MSAyOS45NTQ2IDIzLjA4NTcgMjkuOTg5IDIzLjE2NjcgMzAuMDA3NEMyMy4yNDc4IDMwLjAyNTggMjMuMzMxNyAzMC4wMjc5IDIzLjQxMzUgMzAuMDEzNUMyMy40OTU0IDI5Ljk5OTEgMjMuNTczNiAyOS45Njg1IDIzLjY0MzQgMjkuOTIzNUMyMy43MTMzIDI5Ljg3ODUgMjMuNzczNSAyOS44MjAxIDIzLjgyMDYgMjkuNzUxNUMyMy44Njc2IDI5LjY4MyAyMy45MDA1IDI5LjYwNTggMjMuOTE3MyAyOS41MjQ0QzIzLjkzNDEgMjkuNDQzIDIzLjkzNDUgMjkuMzU5IDIzLjkxODUgMjkuMjc3NUwyMy44MDUxIDI4LjYzNUMyNC4xNzQ5IDI4LjUzNDkgMjQuNTM1NyAyOC40MDM5IDI0Ljg4MzUgMjguMjQzM0wyNS4yMDkzIDI4LjgwNzVDMjUuMjkyMiAyOC45NTEyIDI1LjQyODcgMjkuMDU2IDI1LjU4ODkgMjkuMDk5QzI1Ljc0OTEgMjkuMTQyIDI1LjkxOTggMjkuMTE5NSAyNi4wNjM1IDI5LjAzNjdDMjYuMjA3MSAyOC45NTM4IDI2LjMxMiAyOC44MTcyIDI2LjM1NSAyOC42NTdDMjYuMzk3OSAyOC40OTY5IDI2LjM3NTUgMjguMzI2MiAyNi4yOTI2IDI4LjE4MjVMMjUuOTY1MSAyNy42MTY3QzI2LjI3NzkgMjcuMzk1NiAyNi41NzE2IDI3LjE0ODkgMjYuODQzNSAyNi44NzkyTDI3LjM0NDMgMjcuMjk5MkMyNy40NzE0IDI3LjQwNTcgMjcuNjM1NiAyNy40NTc0IDI3LjgwMDggMjcuNDQyOEMyNy45NjYgMjcuNDI4MyAyOC4xMTg2IDI3LjM0ODcgMjguMjI1MSAyNy4yMjE3QzI4LjMzMTcgMjcuMDk0NiAyOC4zODM0IDI2LjkzMDQgMjguMzY4OCAyNi43NjUyQzI4LjM1NDMgMjYuNiAyOC4yNzQ3IDI2LjQ0NzQgMjguMTQ3NiAyNi4zNDA4TDI3LjY0NzYgMjUuOTIxN0MyNy44NjUxIDI1LjYwOTIgMjguMDU3NiAyNS4yNzY3IDI4LjIyMjYgMjQuOTI5MkwyOC44MzUxIDI1LjE1MTdDMjguOTEyMyAyNS4xNzk3IDI4Ljk5NDIgMjUuMTkyMiAyOS4wNzYyIDI1LjE4ODZDMjkuMTU4MiAyNS4xODQ5IDI5LjIzODcgMjUuMTY1MiAyOS4zMTMxIDI1LjEzMDRDMjkuMzg3NCAyNS4wOTU3IDI5LjQ1NDIgMjUuMDQ2NiAyOS41MDk2IDI0Ljk4NjFDMjkuNTY1IDI0LjkyNTUgMjkuNjA4IDI0Ljg1NDYgMjkuNjM2IDI0Ljc3NzVDMjkuNjY0IDI0LjcwMDMgMjkuNjc2NSAyNC42MTg0IDI5LjY3MjkgMjQuNTM2NEMyOS42NjkzIDI0LjQ1NDQgMjkuNjQ5NSAyNC4zNzQgMjkuNjE0OCAyNC4yOTk2QzI5LjU4IDI0LjIyNTIgMjkuNTMxIDI0LjE1ODQgMjkuNDcwNCAyNC4xMDNDMjkuNDA5OCAyNC4wNDc2IDI5LjMzOSAyNC4wMDQ3IDI5LjI2MTggMjMuOTc2N0wyOC42NTAxIDIzLjc1NDJDMjguNzQ2IDIzLjM4ODMgMjguODEyNiAyMy4wMTA4IDI4Ljg0NzYgMjIuNjI0MkgyOS41MDFMMjkuNTAwMSAyMi42MjVaTTI3LjI4NiAyMC4wNzVDMjcuMDU5MSAxOS40NTA2IDI2LjcyMzQgMTguODcxMyAyNi4yOTQzIDE4LjM2NDJDMjUuODY2MyAxNy44NTkyIDI1LjM1MyAxNy40MzMyIDI0Ljc3NzYgMTcuMTA1OEMyMy45MzEzIDE2LjYyNDQgMjIuOTczOCAxNi4zNzI0IDIyLjAwMDEgMTYuMzc1QzIxLjY1NzggMTYuMzc0NyAyMS4zMTYxIDE2LjQwNTMgMjAuOTc5MyAxNi40NjY3QzIwLjM0ODYgMTYuNTgyNCAxOS43NDI1IDE2LjgwNiAxOS4xODc2IDE3LjEyNzVDMTguMDU2IDE3Ljc4MyAxNy4xODY3IDE4LjgxMDUgMTYuNzI3NiAyMC4wMzVDMTYuNzE5NSAyMC4wNjI5IDE2LjcwOTUgMjAuMDkwMiAxNi42OTc2IDIwLjExNjdDMTYuNDgzNiAyMC43MjE1IDE2LjM3NDkgMjEuMzU4NSAxNi4zNzYgMjJDMTYuMzc0OSAyMi45ODYzIDE2LjYzMzYgMjMuOTU1NSAxNy4xMjYgMjQuODEwMUMxNy42MTg0IDI1LjY2NDcgMTguMzI3MSAyNi4zNzQ2IDE5LjE4MSAyNi44NjgzTDE5LjE4ODUgMjYuODcyNUMxOS43NTA4IDI3LjE5ODEgMjAuMzY1NSAyNy40MjMyIDIxLjAwNTEgMjcuNTM3NUwyMS4wMjM1IDI3LjU0QzIxLjY3NjQgMjcuNjU0NCAyMi4zNDQzIDI3LjY1MzMgMjIuOTk2OCAyNy41MzY3QzIzLjY0NDMgMjcuNDIxMyAyNC4yNjY0IDI3LjE5MjUgMjQuODM0MyAyNi44NjA4QzI1LjM5MDcgMjYuNTM1MyAyNS44ODczIDI2LjExNzEgMjYuMzAyNiAyNS42MjQyTDI2LjMxMDEgMjUuNjE1OEwyNi4zMTc2IDI1LjYwNzVDMjYuNzQ0OSAyNS4wOTY0IDI3LjA3NzggMjQuNTEzNSAyNy4zMDEgMjMuODg1OEMyNy41MTE4IDIzLjI5NjcgMjcuNjI2IDIyLjY2MTcgMjcuNjI2IDIyQzI3LjYyNTkgMjEuMzQzNyAyNy41MTA5IDIwLjY5MjQgMjcuMjg2IDIwLjA3NThWMjAuMDc1WiIgY2xpcC1ydWxlPSJldmVub2RkIiBmaWxsLXJ1bGU9ImV2ZW5vZGQiLz4mI3hhOzxwYXRoIGZpbGw9ImJsYWNrIiBkPSJNNDguMjEzNiAyNS41QzQ3LjY0ODkgMjUuNSA0Ny4xOTc5IDI1LjMzODcgNDYuODYwNiAyNS4wMTZDNDYuNTMwNiAyNC42ODYgNDYuMzY1NiAyNC4yNDIzIDQ2LjM2NTYgMjMuNjg1VjIwLjY5M0g0NC42OTM2VjE5LjQ1SDQ2LjM2NTZWMTcuNzQ1SDQ3Ljc1MTZWMTkuNDVINTAuMTYwNlYyMC42OTNINDcuNzUxNlYyMy42NTJDNDcuNzUxNiAyMy44MjggNDcuNzk5MyAyMy45NzQ3IDQ3Ljg5NDYgMjQuMDkyQzQ3Ljk5NzMgMjQuMjAyIDQ4LjEzNjYgMjQuMjU3IDQ4LjMxMjYgMjQuMjU3SDUwLjEwNTZWMjUuNUg0OC4yMTM2Wk01My45NTEzIDI1LjU5OUM1My4yMzI2IDI1LjU5OSA1Mi42NjQzIDI1LjQzNzcgNTIuMjQ2MyAyNS4xMTVDNTEuODI4MyAyNC43ODUgNTEuNjE5MyAyNC4zNDEzIDUxLjYxOTMgMjMuNzg0SDUyLjk3MjNDNTIuOTcyMyAyNC4wMTg3IDUzLjA1NjYgMjQuMTk4MyA1My4yMjUzIDI0LjMyM0M1My40MDEzIDI0LjQ0NzcgNTMuNjQzMyAyNC41MSA1My45NTEzIDI0LjUxSDU0LjQzNTNDNTQuNzY1MyAyNC41MSA1NS4wMTgzIDI0LjQ0NzcgNTUuMTk0MyAyNC4zMjNDNTUuMzc3NiAyNC4xOTgzIDU1LjQ2OTMgMjQuMDE4NyA1NS40NjkzIDIzLjc4NEM1NS40NjkzIDIzLjU2NCA1NS40MDcgMjMuNDAyNyA1NS4yODIzIDIzLjNDNTUuMTU3NiAyMy4xOSA1NC45NjcgMjMuMTE2NyA1NC43MTAzIDIzLjA4TDUzLjIwMzMgMjIuODgyQzUyLjcxOTMgMjIuODE2IDUyLjM0NTMgMjIuNjI5IDUyLjA4MTMgMjIuMzIxQzUxLjgyNDYgMjIuMDEzIDUxLjY5NjMgMjEuNjEzMyA1MS42OTYzIDIxLjEyMkM1MS42OTYzIDIwLjU1IDUxLjg4NyAyMC4xMTM3IDUyLjI2ODMgMTkuODEzQzUyLjY0OTYgMTkuNTA1IDUzLjE5OTYgMTkuMzUxIDUzLjkxODMgMTkuMzUxSDU0LjQyNDNDNTUuMDk5IDE5LjM1MSA1NS42NDE2IDE5LjUwNSA1Ni4wNTIzIDE5LjgxM0M1Ni40NjMgMjAuMTIxIDU2LjY3NTYgMjAuNTMxNyA1Ni42OTAzIDIxLjA0NUg1NS4zMjYzQzU1LjMxOSAyMC44NTQzIDU1LjIzNDYgMjAuNzA0IDU1LjA3MzMgMjAuNTk0QzU0LjkxMiAyMC40NzY3IDU0LjY5NTYgMjAuNDE4IDU0LjQyNDMgMjAuNDE4SDUzLjkxODNDNTMuNjI1IDIwLjQxOCA1My40MDEzIDIwLjQ4MDMgNTMuMjQ3MyAyMC42MDVDNTMuMDkzMyAyMC43MjIzIDUzLjAxNjMgMjAuODgzNyA1My4wMTYzIDIxLjA4OUM1My4wMTYzIDIxLjI3MjMgNTMuMDcxMyAyMS40MDggNTMuMTgxMyAyMS40OTZDNTMuMjk4NiAyMS41ODQgNTMuNDY3MyAyMS42MzkgNTMuNjg3MyAyMS42NjFMNTUuMTA2MyAyMS44NTlDNTUuNjYzNiAyMS45MjUgNTYuMDgxNiAyMi4xMjMgNTYuMzYwMyAyMi40NTNDNTYuNjQ2MyAyMi43NzU3IDU2Ljc4OTMgMjMuMjEyIDU2Ljc4OTMgMjMuNzYyQzU2Ljc4OTMgMjQuMzQ4NyA1Ni41ODc2IDI0LjgwMzMgNTYuMTg0MyAyNS4xMjZDNTUuNzg4MyAyNS40NDEzIDU1LjIwNTMgMjUuNTk5IDU0LjQzNTMgMjUuNTk5SDUzLjk1MTNaTTYwLjggMjUuNjFDNjAuMDMgMjUuNjEgNTkuNDI1IDI1LjM5NzMgNTguOTg1IDI0Ljk3MkM1OC41NDUgMjQuNTM5MyA1OC4zMjUgMjMuOTUyNyA1OC4zMjUgMjMuMjEyVjE5LjQ1SDU5LjdWMjMuMjAxQzU5LjcgMjMuNTgyMyA1OS43OTUzIDIzLjg3OTMgNTkuOTg2IDI0LjA5MkM2MC4xNzY3IDI0LjMwNDcgNjAuNDQ4IDI0LjQxMSA2MC44IDI0LjQxMUM2MS4xNDQ3IDI0LjQxMSA2MS40MTIzIDI0LjMwNDcgNjEuNjAzIDI0LjA5MkM2MS44MDEgMjMuODc5MyA2MS45IDIzLjU4MjMgNjEuOSAyMy4yMDFWMTkuNDVINjMuMjc1VjIzLjIxMkM2My4yNzUgMjMuOTUyNyA2My4wNTEzIDI0LjUzOTMgNjIuNjA0IDI0Ljk3MkM2Mi4xNTY3IDI1LjM5NzMgNjEuNTU1MyAyNS42MSA2MC44IDI1LjYxWk02NC45NDI3IDI3LjQ4VjE5LjQ1SDY2LjI4NDdWMjAuNTYxQzY2LjM5NDcgMjAuMTc5NyA2Ni41OTI3IDE5Ljg4MjcgNjYuODc4NyAxOS42N0M2Ny4xNjQ3IDE5LjQ1IDY3LjUyMDQgMTkuMzQgNjcuOTQ1NyAxOS4zNEM2OC4zMzQ0IDE5LjM0IDY4LjY3NTQgMTkuNDM1MyA2OC45Njg3IDE5LjYyNkM2OS4yNjk0IDE5LjgxNjcgNjkuNTAwNCAyMC4wODggNjkuNjYxNyAyMC40NEM2OS44MzA0IDIwLjc4NDcgNjkuOTE0NyAyMS4xODggNjkuOTE0NyAyMS42NVYyMy4yODlDNjkuOTE0NyAyMy45ODU3IDY5LjczNSAyNC41NDY3IDY5LjM3NTcgMjQuOTcyQzY5LjAxNjQgMjUuMzk3MyA2OC41Mzk3IDI1LjYxIDY3Ljk0NTcgMjUuNjFDNjcuNTIwNCAyNS42MSA2Ny4xNjEgMjUuNSA2Ni44Njc3IDI1LjI4QzY2LjU4MTcgMjUuMDYgNjYuMzgzNyAyNC43NTIgNjYuMjczNyAyNC4zNTZMNjYuMzE3NyAyNS43ODZWMjcuNDhINjQuOTQyN1pNNjcuNDI4NyAyNC40MjJDNjcuNzgwNyAyNC40MjIgNjguMDUyIDI0LjMyNjcgNjguMjQyNyAyNC4xMzZDNjguNDQwNyAyMy45NDUzIDY4LjUzOTcgMjMuNjUyIDY4LjUzOTcgMjMuMjU2VjIxLjY5NEM2OC41Mzk3IDIxLjI5OCA2OC40NDA3IDIxLjAwNDcgNjguMjQyNyAyMC44MTRDNjguMDUyIDIwLjYyMzMgNjcuNzgwNyAyMC41MjggNjcuNDI4NyAyMC41MjhDNjcuMDc2NyAyMC41MjggNjYuODAxNyAyMC42MzQzIDY2LjYwMzcgMjAuODQ3QzY2LjQxMyAyMS4wNTk3IDY2LjMxNzcgMjEuMzYwMyA2Ni4zMTc3IDIxLjc0OVYyMy4yMDFDNjYuMzE3NyAyMy41ODk3IDY2LjQxMyAyMy44OTAzIDY2LjYwMzcgMjQuMTAzQzY2LjgwMTcgMjQuMzE1NyA2Ny4wNzY3IDI0LjQyMiA2Ny40Mjg3IDI0LjQyMloiLz4mI3hhOzwvc3ZnPg==;" parent="1" vertex="1">
          <mxGeometry x="569.0034637451172" y="339.1072595214843" width="83" height="44" as="geometry" />
        </mxCell>
        <mxCell id="6Q_wfIdElCOlgVAC6Y2N-10" value="" style="shape=image;verticalLabelPosition=bottom;labelBackgroundColor=default;verticalAlign=top;aspect=fixed;imageAspect=0;image=data:image/svg+xml,PHN2ZyB4bWxucz0iaHR0cDovL3d3dy53My5vcmcvMjAwMC9zdmciIGZpbGw9Im5vbmUiIHZpZXdCb3g9IjAgMCAxMDMgNDQiIGhlaWdodD0iNDQiIHdpZHRoPSIxMDMiPiYjeGE7PHJlY3QgZmlsbD0iI0ZDRkNGQyIgcng9IjMiIGhlaWdodD0iNDIiIHdpZHRoPSIxMDEiIHk9IjEiIHg9IjEiLz4mI3hhOzxyZWN0IHN0cm9rZS13aWR0aD0iMiIgc3Ryb2tlPSJibGFjayIgcng9IjMiIGhlaWdodD0iNDIiIHdpZHRoPSIxMDEiIHk9IjEiIHg9IjEiLz4mI3hhOzxwYXRoIGZpbGw9ImJsYWNrIiBkPSJNMTMuODc1IDE3QzEzLjg3NSAxNi4zMzcgMTQuMTM4NCAxNS43MDExIDE0LjYwNzIgMTUuMjMyMkMxNS4wNzYxIDE0Ljc2MzQgMTUuNzEyIDE0LjUgMTYuMzc1IDE0LjVIMjcuNjI1QzI4LjI4OCAxNC41IDI4LjkyMzkgMTQuNzYzNCAyOS4zOTI4IDE1LjIzMjJDMjkuODYxNiAxNS43MDExIDMwLjEyNSAxNi4zMzcgMzAuMTI1IDE3VjI3QzMwLjEyNSAyNy42NjMgMjkuODYxNiAyOC4yOTg5IDI5LjM5MjggMjguNzY3OEMyOC45MjM5IDI5LjIzNjYgMjguMjg4IDI5LjUgMjcuNjI1IDI5LjVIMTYuMzc1QzE1LjcxMiAyOS41IDE1LjA3NjEgMjkuMjM2NiAxNC42MDcyIDI4Ljc2NzhDMTQuMTM4NCAyOC4yOTg5IDEzLjg3NSAyNy42NjMgMTMuODc1IDI3VjE3Wk0xNy4xODMzIDE3LjgwODNDMTcuMzAwNSAxNy42OTEzIDE3LjQ1OTQgMTcuNjI1NSAxNy42MjUgMTcuNjI1NUMxNy43OTA2IDE3LjYyNTUgMTcuOTQ5NSAxNy42OTEzIDE4LjA2NjcgMTcuODA4M0wxOS45NDE3IDE5LjY4MzNDMjAuMDU4NyAxOS44MDA1IDIwLjEyNDQgMTkuOTU5NCAyMC4xMjQ0IDIwLjEyNUMyMC4xMjQ0IDIwLjI5MDYgMjAuMDU4NyAyMC40NDk1IDE5Ljk0MTcgMjAuNTY2N0wxOC4wNjY3IDIyLjQ0MTdDMTcuOTQ4MiAyMi41NTIxIDE3Ljc5MTUgMjIuNjEyMiAxNy42Mjk2IDIyLjYwOTNDMTcuNDY3NiAyMi42MDY1IDE3LjMxMzIgMjIuNTQwOSAxNy4xOTg2IDIyLjQyNjRDMTcuMDg0MSAyMi4zMTE4IDE3LjAxODUgMjIuMTU3NCAxNy4wMTU3IDIxLjk5NTRDMTcuMDEyOCAyMS44MzM1IDE3LjA3MjkgMjEuNjc2OCAxNy4xODMzIDIxLjU1ODNMMTguNjE2NyAyMC4xMjVMMTcuMTgzMyAxOC42OTE3QzE3LjA2NjMgMTguNTc0NSAxNy4wMDA1IDE4LjQxNTYgMTcuMDAwNSAxOC4yNUMxNy4wMDA1IDE4LjA4NDQgMTcuMDY2MyAxNy45MjU1IDE3LjE4MzMgMTcuODA4M1pNMjAuNzUgMjEuMzc1QzIwLjU4NDIgMjEuMzc1IDIwLjQyNTMgMjEuNDQwOCAyMC4zMDgxIDIxLjU1ODFDMjAuMTkwOCAyMS42NzUzIDIwLjEyNSAyMS44MzQyIDIwLjEyNSAyMkMyMC4xMjUgMjIuMTY1OCAyMC4xOTA4IDIyLjMyNDcgMjAuMzA4MSAyMi40NDE5QzIwLjQyNTMgMjIuNTU5MiAyMC41ODQyIDIyLjYyNSAyMC43NSAyMi42MjVIMjMuMjVDMjMuNDE1OCAyMi42MjUgMjMuNTc0NyAyMi41NTkyIDIzLjY5MTkgMjIuNDQxOUMyMy44MDkyIDIyLjMyNDcgMjMuODc1IDIyLjE2NTggMjMuODc1IDIyQzIzLjg3NSAyMS44MzQyIDIzLjgwOTIgMjEuNjc1MyAyMy42OTE5IDIxLjU1ODFDMjMuNTc0NyAyMS40NDA4IDIzLjQxNTggMjEuMzc1IDIzLjI1IDIxLjM3NUgyMC43NVoiIGNsaXAtcnVsZT0iZXZlbm9kZCIgZmlsbC1ydWxlPSJldmVub2RkIi8+JiN4YTs8cGF0aCBmaWxsPSJibGFjayIgZD0iTTQ1LjI2MiAyNS41VjE5LjQ1SDQ2LjYwNFYyMC41ODNDNDYuNjc3NCAyMC4yMDE3IDQ2Ljg1NyAxOS45MDEgNDcuMTQzIDE5LjY4MUM0Ny40MjkgMTkuNDUzNyA0Ny43OTIgMTkuMzQgNDguMjMyIDE5LjM0QzQ4LjgyNiAxOS4zNCA0OS4yOTkgMTkuNTM4IDQ5LjY1MSAxOS45MzRDNTAuMDEwNCAyMC4zMyA1MC4xOSAyMC44NjE3IDUwLjE5IDIxLjUyOVYyNS41SDQ4LjgxNVYyMS42OTRDNDguODE1IDIxLjMyIDQ4LjcxNiAyMS4wMzQgNDguNTE4IDIwLjgzNkM0OC4zMjc0IDIwLjYzMDcgNDguMDY3IDIwLjUyOCA0Ny43MzcgMjAuNTI4QzQ3LjM5MjQgMjAuNTI4IDQ3LjEyMSAyMC42MzA3IDQ2LjkyMyAyMC44MzZDNDYuNzMyNCAyMS4wNDEzIDQ2LjYzNyAyMS4zMzQ3IDQ2LjYzNyAyMS43MTZWMjUuNUg0NS4yNjJaTTUxLjg1NzcgMjcuNDhWMTkuNDVINTMuMTk5N1YyMC41NjFDNTMuMzA5NyAyMC4xNzk3IDUzLjUwNzcgMTkuODgyNyA1My43OTM3IDE5LjY3QzU0LjA3OTcgMTkuNDUgNTQuNDM1NCAxOS4zNCA1NC44NjA3IDE5LjM0QzU1LjI0OTQgMTkuMzQgNTUuNTkwNCAxOS40MzUzIDU1Ljg4MzcgMTkuNjI2QzU2LjE4NDQgMTkuODE2NyA1Ni40MTU0IDIwLjA4OCA1Ni41NzY3IDIwLjQ0QzU2Ljc0NTQgMjAuNzg0NyA1Ni44Mjk3IDIxLjE4OCA1Ni44Mjk3IDIxLjY1VjIzLjI4OUM1Ni44Mjk3IDIzLjk4NTcgNTYuNjUwMSAyNC41NDY3IDU2LjI5MDcgMjQuOTcyQzU1LjkzMTQgMjUuMzk3MyA1NS40NTQ3IDI1LjYxIDU0Ljg2MDcgMjUuNjFDNTQuNDM1NCAyNS42MSA1NC4wNzYxIDI1LjUgNTMuNzgyNyAyNS4yOEM1My40OTY3IDI1LjA2IDUzLjI5ODcgMjQuNzUyIDUzLjE4ODcgMjQuMzU2TDUzLjIzMjcgMjUuNzg2VjI3LjQ4SDUxLjg1NzdaTTU0LjM0MzcgMjQuNDIyQzU0LjY5NTcgMjQuNDIyIDU0Ljk2NzEgMjQuMzI2NyA1NS4xNTc3IDI0LjEzNkM1NS4zNTU3IDIzLjk0NTMgNTUuNDU0NyAyMy42NTIgNTUuNDU0NyAyMy4yNTZWMjEuNjk0QzU1LjQ1NDcgMjEuMjk4IDU1LjM1NTcgMjEuMDA0NyA1NS4xNTc3IDIwLjgxNEM1NC45NjcxIDIwLjYyMzMgNTQuNjk1NyAyMC41MjggNTQuMzQzNyAyMC41MjhDNTMuOTkxNyAyMC41MjggNTMuNzE2NyAyMC42MzQzIDUzLjUxODcgMjAuODQ3QzUzLjMyODEgMjEuMDU5NyA1My4yMzI3IDIxLjM2MDMgNTMuMjMyNyAyMS43NDlWMjMuMjAxQzUzLjIzMjcgMjMuNTg5NyA1My4zMjgxIDIzLjg5MDMgNTMuNTE4NyAyNC4xMDNDNTMuNzE2NyAyNC4zMTU3IDUzLjk5MTcgMjQuNDIyIDU0LjM0MzcgMjQuNDIyWk01OC4xMjM0IDI1LjVWMTkuNDVINTkuMjY3NFYyMC4zM0g1OS4zMDA0QzU5LjMyMjQgMjAuMDM2NyA1OS40MjUxIDE5Ljc5ODMgNTkuNjA4NCAxOS42MTVDNTkuNzkxOCAxOS40MzE3IDYwLjAyMjggMTkuMzQgNjAuMzAxNCAxOS4zNEM2MC41NzI4IDE5LjM0IDYwLjgwMzggMTkuNDI4IDYwLjk5NDQgMTkuNjA0QzYxLjE4NTEgMTkuNzcyNyA2MS4zMTM0IDIwLjAwMzcgNjEuMzc5NCAyMC4yOTdDNjEuNDA4OCAyMC4wMDM3IDYxLjUxNTEgMTkuNzcyNyA2MS42OTg0IDE5LjYwNEM2MS44ODkxIDE5LjQyOCA2Mi4xMjc0IDE5LjM0IDYyLjQxMzQgMTkuMzRDNjIuNzgwMSAxOS4zNCA2My4wODQ0IDE5LjQ4NjcgNjMuMzI2NCAxOS43OEM2My41Njg0IDIwLjA2NiA2My42ODk0IDIwLjQzNjMgNjMuNjg5NCAyMC44OTFWMjUuNUg2Mi40Nzk0VjIwLjk5QzYyLjQ3OTQgMjAuNzkyIDYyLjQzMTggMjAuNjM4IDYyLjMzNjQgMjAuNTI4QzYyLjI0ODQgMjAuNDEwNyA2Mi4xMjAxIDIwLjM1MiA2MS45NTE0IDIwLjM1MkM2MS42MjE0IDIwLjM1MiA2MS40NTY0IDIwLjU2NDcgNjEuNDU2NCAyMC45OVYyNS41SDYwLjM1NjRWMjAuOTlDNjAuMzU2NCAyMC43OTIgNjAuMzEyNCAyMC42MzggNjAuMjI0NCAyMC41MjhDNjAuMTQzOCAyMC40MTA3IDYwLjAyMjggMjAuMzUyIDU5Ljg2MTQgMjAuMzUyQzU5LjUwOTQgMjAuMzUyIDU5LjMzMzQgMjAuNTY0NyA1OS4zMzM0IDIwLjk5VjI1LjVINTguMTIzNFpNNzQuMTg1OSAyNS42MUM3My42NjUyIDI1LjYxIDczLjIxNDIgMjUuNTE0NyA3Mi44MzI5IDI1LjMyNEM3Mi40NTE1IDI1LjEyNiA3Mi4xNTQ1IDI0Ljg1MSA3MS45NDE5IDI0LjQ5OUM3MS43MzY1IDI0LjEzOTcgNzEuNjMzOSAyMy43MTggNzEuNjMzOSAyMy4yMzRWMTkuNzM2QzcxLjYzMzkgMTkuMjUyIDcxLjczNjUgMTguODM0IDcxLjk0MTkgMTguNDgyQzcyLjE1NDUgMTguMTIyNyA3Mi40NTE1IDE3Ljg0NzcgNzIuODMyOSAxNy42NTdDNzMuMjE0MiAxNy40NTkgNzMuNjY1MiAxNy4zNiA3NC4xODU5IDE3LjM2Qzc0LjY5OTIgMTcuMzYgNzUuMTQ2NSAxNy40NTkgNzUuNTI3OSAxNy42NTdDNzUuOTA5MiAxNy44NDc3IDc2LjIwNjIgMTguMTIyNyA3Ni40MTg5IDE4LjQ4MkM3Ni42MzE1IDE4LjgzNCA3Ni43Mzc5IDE5LjI1MiA3Ni43Mzc5IDE5LjczNkg3NS4zNTE5Qzc1LjM1MTkgMTkuMzYyIDc1LjI0OTIgMTkuMDc2IDc1LjA0MzkgMTguODc4Qzc0Ljg0NTkgMTguNjcyNyA3NC41NTk5IDE4LjU3IDc0LjE4NTkgMTguNTdDNzMuODExOSAxOC41NyA3My41MjIyIDE4LjY3MjcgNzMuMzE2OSAxOC44NzhDNzMuMTExNSAxOS4wNzYgNzMuMDA4OSAxOS4zNjIgNzMuMDA4OSAxOS43MzZWMjMuMjM0QzczLjAwODkgMjMuNjA4IDczLjExMTUgMjMuODk3NyA3My4zMTY5IDI0LjEwM0M3My41MjIyIDI0LjMwMSA3My44MTE5IDI0LjQgNzQuMTg1OSAyNC40Qzc0LjU1OTkgMjQuNCA3NC44NDU5IDI0LjMwMSA3NS4wNDM5IDI0LjEwM0M3NS4yNDkyIDIzLjg5NzcgNzUuMzUxOSAyMy42MDggNzUuMzUxOSAyMy4yMzRINzYuNzM3OUM3Ni43Mzc5IDIzLjcxOCA3Ni42MzE1IDI0LjEzOTcgNzYuNDE4OSAyNC40OTlDNzYuMjA2MiAyNC44NTEgNzUuOTA5MiAyNS4xMjYgNzUuNTI3OSAyNS4zMjRDNzUuMTQ2NSAyNS41MTQ3IDc0LjY5OTIgMjUuNjEgNzQuMTg1OSAyNS42MVpNNzguNzI0NiAyNS41VjE3LjQ3SDgwLjA5OTZWMjQuMjU3SDgzLjUwOTZWMjUuNUg3OC43MjQ2Wk04NC45NzkzIDI1LjVWMjQuMjU3SDg2LjU5NjNWMTguNzEzSDg0Ljk3OTNWMTcuNDdIODkuNTk5M1YxOC43MTNIODcuOTgyM1YyNC4yNTdIODkuNTk5M1YyNS41SDg0Ljk3OTNaIi8+JiN4YTs8L3N2Zz4=;" parent="1" vertex="1">
          <mxGeometry x="322.9966475423174" y="339.1076045154389" width="103" height="44" as="geometry" />
        </mxCell>
        <mxCell id="6Q_wfIdElCOlgVAC6Y2N-11" value="" style="endArrow=classic;html=1;rounded=0;exitX=0;exitY=0.5;exitDx=0;exitDy=0;entryX=1;entryY=0.5;entryDx=0;entryDy=0;strokeWidth=2;" parent="1" source="6Q_wfIdElCOlgVAC6Y2N-9" target="6Q_wfIdElCOlgVAC6Y2N-10" edge="1">
          <mxGeometry width="50" height="50" relative="1" as="geometry">
            <mxPoint x="911" y="303.11" as="sourcePoint" />
            <mxPoint x="961" y="253.11" as="targetPoint" />
          </mxGeometry>
        </mxCell>
        <mxCell id="6Q_wfIdElCOlgVAC6Y2N-19" value="&amp;nbsp;Outputs&amp;nbsp;" style="edgeLabel;html=1;align=center;verticalAlign=middle;resizable=0;points=[];fontFamily=Jetbrains Mono;fontSource=https%3A%2F%2Ffonts.googleapis.com%2Fcss%3Ffamily%3DJetbrains%2BMono;fontStyle=1" parent="6Q_wfIdElCOlgVAC6Y2N-11" vertex="1" connectable="0">
          <mxGeometry x="-0.1356" y="-1" relative="1" as="geometry">
            <mxPoint x="-10" y="-1" as="offset" />
          </mxGeometry>
        </mxCell>
        <mxCell id="6Q_wfIdElCOlgVAC6Y2N-12" value="" style="endArrow=classic;html=1;rounded=0;exitX=0;exitY=0.5;exitDx=0;exitDy=0;entryX=1;entryY=0.5;entryDx=0;entryDy=0;strokeWidth=2;" parent="1" source="6Q_wfIdElCOlgVAC6Y2N-10" target="6Q_wfIdElCOlgVAC6Y2N-5" edge="1">
          <mxGeometry width="50" height="50" relative="1" as="geometry">
            <mxPoint x="1115" y="328.10999999999996" as="sourcePoint" />
            <mxPoint x="1165" y="278.11" as="targetPoint" />
          </mxGeometry>
        </mxCell>
        <mxCell id="6Q_wfIdElCOlgVAC6Y2N-18" value="&amp;nbsp;Publishes&amp;nbsp;" style="edgeLabel;html=1;align=center;verticalAlign=middle;resizable=0;points=[];fontFamily=Jetbrains Mono;fontSource=https%3A%2F%2Ffonts.googleapis.com%2Fcss%3Ffamily%3DJetbrains%2BMono;fontStyle=1" parent="6Q_wfIdElCOlgVAC6Y2N-12" vertex="1" connectable="0">
          <mxGeometry relative="1" as="geometry">
            <mxPoint x="4" as="offset" />
          </mxGeometry>
        </mxCell>
        <mxCell id="6Q_wfIdElCOlgVAC6Y2N-13" value="" style="shape=image;verticalLabelPosition=bottom;labelBackgroundColor=default;verticalAlign=top;aspect=fixed;imageAspect=0;image=data:image/svg+xml,PHN2ZyB4bWxucz0iaHR0cDovL3d3dy53My5vcmcvMjAwMC9zdmciIGZpbGw9Im5vbmUiIHZpZXdCb3g9IjAgMCAxNDkgNDQiIGhlaWdodD0iNDQiIHdpZHRoPSIxNDkiPiYjeGE7PHJlY3QgZmlsbD0iI0ZDRkNGQyIgcng9IjMiIGhlaWdodD0iNDIiIHdpZHRoPSIxNDciIHk9IjEiIHg9IjEiLz4mI3hhOzxyZWN0IHN0cm9rZS13aWR0aD0iMiIgc3Ryb2tlPSJibGFjayIgcng9IjMiIGhlaWdodD0iNDIiIHdpZHRoPSIxNDciIHk9IjEiIHg9IjEiLz4mI3hhOzxnIGNsaXAtcGF0aD0idXJsKCNjbGlwMF8xNTBfNTUyMSkiPiYjeGE7PHBhdGggZmlsbD0iYmxhY2siIGQ9Ik0xMiAxNS40Mzc1QzEyIDE0LjUyNTggMTIuMzYyMiAxMy42NTE1IDEzLjAwNjggMTMuMDA2OEMxMy42NTE1IDEyLjM2MjIgMTQuNTI1OCAxMiAxNS40Mzc1IDEySDI4LjU2MjVDMjkuNDc0MiAxMiAzMC4zNDg1IDEyLjM2MjIgMzAuOTkzMiAxMy4wMDY4QzMxLjYzNzggMTMuNjUxNSAzMiAxNC41MjU4IDMyIDE1LjQzNzVWMjguNTYyNUMzMiAyOS40NzQyIDMxLjYzNzggMzAuMzQ4NSAzMC45OTMyIDMwLjk5MzJDMzAuMzQ4NSAzMS42Mzc4IDI5LjQ3NDIgMzIgMjguNTYyNSAzMkgxNS40Mzc1QzE0LjUyNTggMzIgMTMuNjUxNSAzMS42Mzc4IDEzLjAwNjggMzAuOTkzMkMxMi4zNjIyIDMwLjM0ODUgMTIgMjkuNDc0MiAxMiAyOC41NjI1VjE1LjQzNzVaTTE1LjQzNzUgMTMuODc1QzE0LjU3NSAxMy44NzUgMTMuODc1IDE0LjU3NSAxMy44NzUgMTUuNDM3NVYyOC41NjI1QzEzLjg3NSAyOS40MjUgMTQuNTc1IDMwLjEyNSAxNS40Mzc1IDMwLjEyNUgyOC41NjI1QzI5LjQyNSAzMC4xMjUgMzAuMTI1IDI5LjQyNSAzMC4xMjUgMjguNTYyNVYxNS40Mzc1QzMwLjEyNSAxNC41NzUgMjkuNDI1IDEzLjg3NSAyOC41NjI1IDEzLjg3NUgxNS40Mzc1WiIvPiYjeGE7PHBhdGggZmlsbD0iYmxhY2siIGQ9Ik0yMi4wMDAyIDE3QzIyLjI0ODkgMTcgMjIuNDg3MyAxNy4wOTg4IDIyLjY2MzEgMTcuMjc0NkMyMi44MzkgMTcuNDUwNCAyMi45Mzc3IDE3LjY4ODkgMjIuOTM3NyAxNy45Mzc1VjIwLjM3NUwyNS4wNTAyIDE5LjE1NjJDMjUuMTU2OSAxOS4wOTQ3IDI1LjI3NDcgMTkuMDU0OCAyNS4zOTY4IDE5LjAzODdDMjUuNTE5IDE5LjAyMjcgMjUuNjQzMSAxOS4wMzA4IDI1Ljc2MiAxOS4wNjI4QzI1Ljg4MSAxOS4wOTQ3IDI1Ljk5MjUgMTkuMTQ5NyAyNi4wOTAyIDE5LjIyNDhDMjYuMTg4IDE5LjI5OTggMjYuMjY5OSAxOS4zOTMzIDI2LjMzMTUgMTkuNUMyNi4zOTMgMTkuNjA2NyAyNi40MzMgMTkuNzI0NSAyNi40NDkgMTkuODQ2NkMyNi40NjUxIDE5Ljk2ODcgMjYuNDU2OSAyMC4wOTI4IDI2LjQyNSAyMC4yMTE4QzI2LjM5MyAyMC4zMzA4IDI2LjMzOCAyMC40NDIzIDI2LjI2MyAyMC41NEMyNi4xODggMjAuNjM3NyAyNi4wOTQ0IDIwLjcxOTcgMjUuOTg3NyAyMC43ODEzTDIzLjg3NTIgMjJMMjUuOTg3NyAyMy4yMkMyNi4xOTM4IDIzLjM0ODggMjYuMzQxOCAyMy41NTI2IDI2LjQwMDYgMjMuNzg4NEMyNi40NTkzIDI0LjAyNDIgMjYuNDI0MiAyNC4yNzM2IDI2LjMwMjYgMjQuNDg0QzI2LjE4MSAyNC42OTQ1IDI1Ljk4MjUgMjQuODQ5NSAyNS43NDg5IDI0LjkxNjNDMjUuNTE1MiAyNC45ODMyIDI1LjI2NDcgMjQuOTU2NyAyNS4wNTAyIDI0Ljg0MjVMMjIuOTM3NyAyMy42MjVWMjYuMDYzOEMyMi45Mzc3IDI2LjMxMjQgMjIuODM5IDI2LjU1MDggMjIuNjYzMSAyNi43MjY3QzIyLjQ4NzMgMjYuOTAyNSAyMi4yNDg5IDI3LjAwMTMgMjIuMDAwMiAyNy4wMDEzQzIxLjc1MTYgMjcuMDAxMyAyMS41MTMxIDI2LjkwMjUgMjEuMzM3MyAyNi43MjY3QzIxLjE2MTUgMjYuNTUwOCAyMS4wNjI3IDI2LjMxMjQgMjEuMDYyNyAyNi4wNjM4VjIzLjYyMzdMMTguOTUwMiAyNC44NDM3QzE4LjczNDcgMjQuOTY4MSAxOC40Nzg3IDI1LjAwMTcgMTguMjM4NCAyNC45MzcyQzE3Ljk5ODEgMjQuODcyOCAxNy43OTMzIDI0LjcxNTUgMTcuNjY5IDI0LjVDMTcuNTQ0NyAyNC4yODQ1IDE3LjUxMSAyNC4wMjg1IDE3LjU3NTUgMjMuNzg4MkMxNy42NCAyMy41NDc5IDE3Ljc5NzIgMjMuMzQzMSAxOC4wMTI3IDIzLjIxODhMMjAuMTI1MiAyMkwxOC4wMTI3IDIwLjc4MTNDMTcuNzk3MiAyMC42NTY5IDE3LjY0IDIwLjQ1MjEgMTcuNTc1NSAyMC4yMTE4QzE3LjUxMSAxOS45NzE1IDE3LjU0NDcgMTkuNzE1NSAxNy42NjkgMTkuNUMxNy43OTMzIDE5LjI4NDUgMTcuOTk4MSAxOS4xMjcyIDE4LjIzODQgMTkuMDYyOEMxOC40Nzg3IDE4Ljk5ODMgMTguNzM0NyAxOS4wMzE5IDE4Ljk1MDIgMTkuMTU2MkwyMS4wNjI3IDIwLjM3NjNWMTcuOTM3NUMyMS4wNjI3IDE3LjY4ODkgMjEuMTYxNSAxNy40NTA0IDIxLjMzNzMgMTcuMjc0NkMyMS41MTMxIDE3LjA5ODggMjEuNzUxNiAxNyAyMi4wMDAyIDE3WiIvPiYjeGE7PC9nPiYjeGE7PHBhdGggZmlsbD0iYmxhY2siIGQ9Ik00Ny42NzQxIDI1LjYxQzQ3LjE1MzQgMjUuNjEgNDYuNzAyNCAyNS41MTQ3IDQ2LjMyMTEgMjUuMzI0QzQ1LjkzOTcgMjUuMTI2IDQ1LjY0MjcgMjQuODUxIDQ1LjQzMDEgMjQuNDk5QzQ1LjIyNDcgMjQuMTM5NyA0NS4xMjIxIDIzLjcxOCA0NS4xMjIxIDIzLjIzNFYxOS43MzZDNDUuMTIyMSAxOS4yNTIgNDUuMjI0NyAxOC44MzQgNDUuNDMwMSAxOC40ODJDNDUuNjQyNyAxOC4xMjI3IDQ1LjkzOTcgMTcuODQ3NyA0Ni4zMjExIDE3LjY1N0M0Ni43MDI0IDE3LjQ1OSA0Ny4xNTM0IDE3LjM2IDQ3LjY3NDEgMTcuMzZDNDguMTg3NCAxNy4zNiA0OC42MzQ3IDE3LjQ1OSA0OS4wMTYxIDE3LjY1N0M0OS4zOTc0IDE3Ljg0NzcgNDkuNjk0NCAxOC4xMjI3IDQ5LjkwNzEgMTguNDgyQzUwLjExOTcgMTguODM0IDUwLjIyNjEgMTkuMjUyIDUwLjIyNjEgMTkuNzM2SDQ4Ljg0MDFDNDguODQwMSAxOS4zNjIgNDguNzM3NCAxOS4wNzYgNDguNTMyMSAxOC44NzhDNDguMzM0MSAxOC42NzI3IDQ4LjA0ODEgMTguNTcgNDcuNjc0MSAxOC41N0M0Ny4zMDAxIDE4LjU3IDQ3LjAxMDQgMTguNjY5IDQ2LjgwNTEgMTguODY3QzQ2LjU5OTcgMTkuMDY1IDQ2LjQ5NzEgMTkuMzUxIDQ2LjQ5NzEgMTkuNzI1VjIzLjIzNEM0Ni40OTcxIDIzLjYwOCA0Ni41OTk3IDIzLjg5NzcgNDYuODA1MSAyNC4xMDNDNDcuMDEwNCAyNC4zMDgzIDQ3LjMwMDEgMjQuNDExIDQ3LjY3NDEgMjQuNDExQzQ4LjA0ODEgMjQuNDExIDQ4LjMzNDEgMjQuMzA4MyA0OC41MzIxIDI0LjEwM0M0OC43Mzc0IDIzLjg5NzcgNDguODQwMSAyMy42MDggNDguODQwMSAyMy4yMzRWMjIuMzQzSDQ3LjQ3NjFWMjEuMTU1SDUwLjIyNjFWMjMuMjM0QzUwLjIyNjEgMjMuNzE4IDUwLjExOTcgMjQuMTM5NyA0OS45MDcxIDI0LjQ5OUM0OS42OTQ0IDI0Ljg1MSA0OS4zOTc0IDI1LjEyNiA0OS4wMTYxIDI1LjMyNEM0OC42MzQ3IDI1LjUxNDcgNDguMTg3NCAyNS42MSA0Ny42NzQxIDI1LjYxWk01MS43NjE4IDI1LjVWMjQuMjU3SDUzLjgyOThWMjAuNjkzSDUxLjk4MThWMTkuNDVINTUuMjA0OFYyNC4yNTdINTcuMDYzOFYyNS41SDUxLjc2MThaTTU0LjQyMzggMTguNDM4QzU0LjE0NTEgMTguNDM4IDUzLjkyNTEgMTguMzY4MyA1My43NjM4IDE4LjIyOUM1My42MDI0IDE4LjA4MjMgNTMuNTIxOCAxNy44ODggNTMuNTIxOCAxNy42NDZDNTMuNTIxOCAxNy40MDQgNTMuNjAyNCAxNy4yMTMzIDUzLjc2MzggMTcuMDc0QzUzLjkyNTEgMTYuOTI3MyA1NC4xNDUxIDE2Ljg1NCA1NC40MjM4IDE2Ljg1NEM1NC43MDI0IDE2Ljg1NCA1NC45MjI0IDE2LjkyNzMgNTUuMDgzOCAxNy4wNzRDNTUuMjQ1MSAxNy4yMTMzIDU1LjMyNTggMTcuNDA0IDU1LjMyNTggMTcuNjQ2QzU1LjMyNTggMTcuODg4IDU1LjI0NTEgMTguMDgyMyA1NS4wODM4IDE4LjIyOUM1NC45MjI0IDE4LjM2ODMgNTQuNzAyNCAxOC40MzggNTQuNDIzOCAxOC40MzhaTTYxLjQyNjUgMjUuNUM2MC44NjE4IDI1LjUgNjAuNDEwOCAyNS4zMzg3IDYwLjA3MzUgMjUuMDE2QzU5Ljc0MzUgMjQuNjg2IDU5LjU3ODUgMjQuMjQyMyA1OS41Nzg1IDIzLjY4NVYyMC42OTNINTcuOTA2NVYxOS40NUg1OS41Nzg1VjE3Ljc0NUg2MC45NjQ1VjE5LjQ1SDYzLjM3MzVWMjAuNjkzSDYwLjk2NDVWMjMuNjUyQzYwLjk2NDUgMjMuODI4IDYxLjAxMjIgMjMuOTc0NyA2MS4xMDc1IDI0LjA5MkM2MS4yMTAyIDI0LjIwMiA2MS4zNDk1IDI0LjI1NyA2MS41MjU1IDI0LjI1N0g2My4zMTg1VjI1LjVINjEuNDI2NVpNNjQuOTY0MiAyNS41VjE3LjQ3SDY2LjMzOTJWMjAuNzI2SDY4LjQ5NTJWMTcuNDdINjkuODcwMlYyNS41SDY4LjQ5NTJWMjEuOTY5SDY2LjMzOTJWMjUuNUg2NC45NjQyWk03NC4wMTI5IDI1LjYxQzczLjI0MjkgMjUuNjEgNzIuNjM3OSAyNS4zOTczIDcyLjE5NzkgMjQuOTcyQzcxLjc1NzkgMjQuNTM5MyA3MS41Mzc5IDIzLjk1MjcgNzEuNTM3OSAyMy4yMTJWMTkuNDVINzIuOTEyOVYyMy4yMDFDNzIuOTEyOSAyMy41ODIzIDczLjAwODIgMjMuODc5MyA3My4xOTg5IDI0LjA5MkM3My4zODk2IDI0LjMwNDcgNzMuNjYwOSAyNC40MTEgNzQuMDEyOSAyNC40MTFDNzQuMzU3NiAyNC40MTEgNzQuNjI1MiAyNC4zMDQ3IDc0LjgxNTkgMjQuMDkyQzc1LjAxMzkgMjMuODc5MyA3NS4xMTI5IDIzLjU4MjMgNzUuMTEyOSAyMy4yMDFWMTkuNDVINzYuNDg3OVYyMy4yMTJDNzYuNDg3OSAyMy45NTI3IDc2LjI2NDIgMjQuNTM5MyA3NS44MTY5IDI0Ljk3MkM3NS4zNjk2IDI1LjM5NzMgNzQuNzY4MiAyNS42MSA3NC4wMTI5IDI1LjYxWk04MS4xNTg2IDI1LjYxQzgwLjczMzMgMjUuNjEgODAuMzc3NiAyNS41MDM3IDgwLjA5MTYgMjUuMjkxQzc5LjgwNTYgMjUuMDc4MyA3OS42MDc2IDI0Ljc4MTMgNzkuNDk3NiAyNC40VjI1LjVINzguMTU1NlYxNy40N0g3OS41MzA2VjE5LjE2NEw3OS40ODY2IDIwLjU1Qzc5LjYwMzkgMjAuMTY4NyA3OS44MDU2IDE5Ljg3MTcgODAuMDkxNiAxOS42NTlDODAuMzg0OSAxOS40NDYzIDgwLjc0MDYgMTkuMzQgODEuMTU4NiAxOS4zNEM4MS43NTI2IDE5LjM0IDgyLjIyOTMgMTkuNTQ5IDgyLjU4ODYgMTkuOTY3QzgyLjk0NzkgMjAuMzg1IDgzLjEyNzYgMjAuOTQ5NyA4My4xMjc2IDIxLjY2MVYyMy4zQzgzLjEyNzYgMjQuMDA0IDgyLjk0NDMgMjQuNTY1IDgyLjU3NzYgMjQuOTgzQzgyLjIxODMgMjUuNDAxIDgxLjc0NTMgMjUuNjEgODEuMTU4NiAyNS42MVpNODAuNjQxNiAyNC40MjJDODAuOTkzNiAyNC40MjIgODEuMjY0OSAyNC4zMjY3IDgxLjQ1NTYgMjQuMTM2QzgxLjY1MzYgMjMuOTQ1MyA4MS43NTI2IDIzLjY1MiA4MS43NTI2IDIzLjI1NlYyMS42OTRDODEuNzUyNiAyMS4yOTggODEuNjUzNiAyMS4wMDQ3IDgxLjQ1NTYgMjAuODE0QzgxLjI2NDkgMjAuNjIzMyA4MC45OTM2IDIwLjUyOCA4MC42NDE2IDIwLjUyOEM4MC4yODk2IDIwLjUyOCA4MC4wMTQ2IDIwLjYzNDMgNzkuODE2NiAyMC44NDdDNzkuNjI1OSAyMS4wNTk3IDc5LjUzMDYgMjEuMzYwMyA3OS41MzA2IDIxLjc0OVYyMy4yMDFDNzkuNTMwNiAyMy41ODk3IDc5LjYyNTkgMjMuODkwMyA3OS44MTY2IDI0LjEwM0M4MC4wMTQ2IDI0LjMxNTcgODAuMjg5NiAyNC40MjIgODAuNjQxNiAyNC40MjJaTTkzLjU0NyAyNS41OTlDOTIuODI4MyAyNS41OTkgOTIuMjYgMjUuNDM3NyA5MS44NDIgMjUuMTE1QzkxLjQyNCAyNC43ODUgOTEuMjE1IDI0LjM0MTMgOTEuMjE1IDIzLjc4NEg5Mi41NjhDOTIuNTY4IDI0LjAxODcgOTIuNjUyMyAyNC4xOTgzIDkyLjgyMSAyNC4zMjNDOTIuOTk3IDI0LjQ0NzcgOTMuMjM5IDI0LjUxIDkzLjU0NyAyNC41MUg5NC4wMzFDOTQuMzYxIDI0LjUxIDk0LjYxNCAyNC40NDc3IDk0Ljc5IDI0LjMyM0M5NC45NzMzIDI0LjE5ODMgOTUuMDY1IDI0LjAxODcgOTUuMDY1IDIzLjc4NEM5NS4wNjUgMjMuNTY0IDk1LjAwMjcgMjMuNDAyNyA5NC44NzggMjMuM0M5NC43NTMzIDIzLjE5IDk0LjU2MjcgMjMuMTE2NyA5NC4zMDYgMjMuMDhMOTIuNzk5IDIyLjg4MkM5Mi4zMTUgMjIuODE2IDkxLjk0MSAyMi42MjkgOTEuNjc3IDIyLjMyMUM5MS40MjAzIDIyLjAxMyA5MS4yOTIgMjEuNjEzMyA5MS4yOTIgMjEuMTIyQzkxLjI5MiAyMC41NSA5MS40ODI3IDIwLjExMzcgOTEuODY0IDE5LjgxM0M5Mi4yNDUzIDE5LjUwNSA5Mi43OTUzIDE5LjM1MSA5My41MTQgMTkuMzUxSDk0LjAyQzk0LjY5NDcgMTkuMzUxIDk1LjIzNzMgMTkuNTA1IDk1LjY0OCAxOS44MTNDOTYuMDU4NyAyMC4xMjEgOTYuMjcxMyAyMC41MzE3IDk2LjI4NiAyMS4wNDVIOTQuOTIyQzk0LjkxNDcgMjAuODU0MyA5NC44MzAzIDIwLjcwNCA5NC42NjkgMjAuNTk0Qzk0LjUwNzcgMjAuNDc2NyA5NC4yOTEzIDIwLjQxOCA5NC4wMiAyMC40MThIOTMuNTE0QzkzLjIyMDcgMjAuNDE4IDkyLjk5NyAyMC40ODAzIDkyLjg0MyAyMC42MDVDOTIuNjg5IDIwLjcyMjMgOTIuNjEyIDIwLjg4MzcgOTIuNjEyIDIxLjA4OUM5Mi42MTIgMjEuMjcyMyA5Mi42NjcgMjEuNDA4IDkyLjc3NyAyMS40OTZDOTIuODk0MyAyMS41ODQgOTMuMDYzIDIxLjYzOSA5My4yODMgMjEuNjYxTDk0LjcwMiAyMS44NTlDOTUuMjU5MyAyMS45MjUgOTUuNjc3MyAyMi4xMjMgOTUuOTU2IDIyLjQ1M0M5Ni4yNDIgMjIuNzc1NyA5Ni4zODUgMjMuMjEyIDk2LjM4NSAyMy43NjJDOTYuMzg1IDI0LjM0ODcgOTYuMTgzMyAyNC44MDMzIDk1Ljc4IDI1LjEyNkM5NS4zODQgMjUuNDQxMyA5NC44MDEgMjUuNTk5IDk0LjAzMSAyNS41OTlIOTMuNTQ3Wk0xMDAuNDA3IDI1LjYxQzk5Ljg5MzQgMjUuNjEgOTkuNDQ2IDI1LjUxMSA5OS4wNjQ3IDI1LjMxM0M5OC42ODM0IDI1LjExNSA5OC4zODY0IDI0LjgzNjMgOTguMTczNyAyNC40NzdDOTcuOTY4NCAyNC4xMTAzIDk3Ljg2NTcgMjMuNjgxMyA5Ny44NjU3IDIzLjE5VjIxLjc2Qzk3Ljg2NTcgMjEuMjY4NyA5Ny45Njg0IDIwLjg0MzMgOTguMTczNyAyMC40ODRDOTguMzg2NCAyMC4xMTczIDk4LjY4MzQgMTkuODM1IDk5LjA2NDcgMTkuNjM3Qzk5LjQ0NiAxOS40MzkgOTkuODkzNCAxOS4zNCAxMDAuNDA3IDE5LjM0QzEwMC45MTMgMTkuMzQgMTAxLjM1MyAxOS40MzkgMTAxLjcyNyAxOS42MzdDMTAyLjEwOCAxOS44MzUgMTAyLjQwMSAyMC4xMTM3IDEwMi42MDcgMjAuNDczQzEwMi44MTkgMjAuODI1IDEwMi45MjYgMjEuMjM5MyAxMDIuOTI2IDIxLjcxNlYyMi44MTZIOTkuMTg1N1YyMy4yMzRDOTkuMTg1NyAyMy42NDQ3IDk5LjI5MiAyMy45NTYzIDk5LjUwNDcgMjQuMTY5Qzk5LjcxNzQgMjQuMzc0MyAxMDAuMDE4IDI0LjQ3NyAxMDAuNDA3IDI0LjQ3N0MxMDAuNjkzIDI0LjQ3NyAxMDAuOTM1IDI0LjQyOTMgMTAxLjEzMyAyNC4zMzRDMTAxLjMzOCAyNC4yMzEzIDEwMS40NTkgMjQuMDg0NyAxMDEuNDk2IDIzLjg5NEgxMDIuODZDMTAyLjc2NCAyNC40MTQ3IDEwMi40OTMgMjQuODMyNyAxMDIuMDQ2IDI1LjE0OEMxMDEuNTk4IDI1LjQ1NiAxMDEuMDUyIDI1LjYxIDEwMC40MDcgMjUuNjFaTTk5LjE4NTcgMjEuNzE2VjIxLjkyNUwxMDEuNjA2IDIxLjkxNFYyMS43MDVDMTAxLjYwNiAyMS4yODcgMTAxLjUwMyAyMC45NjQzIDEwMS4yOTggMjAuNzM3QzEwMS4wOTIgMjAuNTA5NyAxMDAuNzk1IDIwLjM5NiAxMDAuNDA3IDIwLjM5NkMxMDAuMDAzIDIwLjM5NiA5OS42OTkgMjAuNTEzMyA5OS40OTM3IDIwLjc0OEM5OS4yODg0IDIwLjk3NTMgOTkuMTg1NyAyMS4yOTggOTkuMTg1NyAyMS43MTZaTTEwNy4wOSAyNS42MUMxMDYuNTcgMjUuNjEgMTA2LjExNSAyNS41MTQ3IDEwNS43MjYgMjUuMzI0QzEwNS4zNDUgMjUuMTI2IDEwNS4wNDggMjQuODUxIDEwNC44MzUgMjQuNDk5QzEwNC42MjMgMjQuMTM5NyAxMDQuNTE2IDIzLjcxOCAxMDQuNTE2IDIzLjIzNFYyMS43MTZDMTA0LjUxNiAyMS4yMzIgMTA0LjYyMyAyMC44MTQgMTA0LjgzNSAyMC40NjJDMTA1LjA0OCAyMC4xMDI3IDEwNS4zNDUgMTkuODI3NyAxMDUuNzI2IDE5LjYzN0MxMDYuMTE1IDE5LjQzOSAxMDYuNTcgMTkuMzQgMTA3LjA5IDE5LjM0QzEwNy44NDYgMTkuMzQgMTA4LjQ1MSAxOS41MzggMTA4LjkwNSAxOS45MzRDMTA5LjM2NyAyMC4zMjI3IDEwOS42MDkgMjAuODU0MyAxMDkuNjMxIDIxLjUyOUgxMDguMjc4QzEwOC4yNTYgMjEuMjEzNyAxMDguMTM1IDIwLjk3MTcgMTA3LjkxNSAyMC44MDNDMTA3LjcwMyAyMC42MjcgMTA3LjQyOCAyMC41MzkgMTA3LjA5IDIwLjUzOUMxMDYuNzE2IDIwLjUzOSAxMDYuNDIzIDIwLjY0MTcgMTA2LjIxIDIwLjg0N0MxMDUuOTk4IDIxLjA0NSAxMDUuODkxIDIxLjMzMSAxMDUuODkxIDIxLjcwNVYyMy4yMzRDMTA1Ljg5MSAyMy42MDggMTA1Ljk5OCAyMy44OTc3IDEwNi4yMSAyNC4xMDNDMTA2LjQyMyAyNC4zMDgzIDEwNi43MTYgMjQuNDExIDEwNy4wOSAyNC40MTFDMTA3LjQzNSAyNC40MTEgMTA3LjcxNCAyNC4zMjY3IDEwNy45MjYgMjQuMTU4QzEwOC4xMzkgMjMuOTgyIDEwOC4yNTYgMjMuNzM2MyAxMDguMjc4IDIzLjQyMUgxMDkuNjMxQzEwOS42MDkgMjQuMDk1NyAxMDkuMzY3IDI0LjYzMSAxMDguOTA1IDI1LjAyN0MxMDguNDUxIDI1LjQxNTcgMTA3Ljg0NiAyNS42MSAxMDcuMDkgMjUuNjFaTTExMS4zNTQgMjUuNVYxOS40NUgxMTIuNjk2VjIwLjYyN0MxMTIuNzY5IDIwLjIzMSAxMTIuOTQ5IDE5LjkxOTMgMTEzLjIzNSAxOS42OTJDMTEzLjUyOCAxOS40NTczIDExMy45MDYgMTkuMzQgMTE0LjM2OCAxOS4zNEMxMTQuOTg0IDE5LjM0IDExNS40NjQgMTkuNTM4IDExNS44MDkgMTkuOTM0QzExNi4xNTQgMjAuMzMgMTE2LjMyNiAyMC44ODM3IDExNi4zMjYgMjEuNTk1VjIyLjE2N0gxMTQuOTUxVjIxLjY2MUMxMTQuOTUxIDIxLjI5NDMgMTE0Ljg1NiAyMS4wMTU3IDExNC42NjUgMjAuODI1QzExNC40NzQgMjAuNjI3IDExNC4yMDMgMjAuNTI4IDExMy44NTEgMjAuNTI4QzExMy40ODQgMjAuNTI4IDExMy4yMDYgMjAuNjM4IDExMy4wMTUgMjAuODU4QzExMi44MjQgMjEuMDc4IDExMi43MjkgMjEuMzg5NyAxMTIuNzI5IDIxLjc5M1YyNS41SDExMS4zNTRaTTEyMC4xOTQgMjUuNjFDMTE5LjY4IDI1LjYxIDExOS4yMzMgMjUuNTExIDExOC44NTIgMjUuMzEzQzExOC40NyAyNS4xMTUgMTE4LjE3MyAyNC44MzYzIDExNy45NjEgMjQuNDc3QzExNy43NTUgMjQuMTEwMyAxMTcuNjUzIDIzLjY4MTMgMTE3LjY1MyAyMy4xOVYyMS43NkMxMTcuNjUzIDIxLjI2ODcgMTE3Ljc1NSAyMC44NDMzIDExNy45NjEgMjAuNDg0QzExOC4xNzMgMjAuMTE3MyAxMTguNDcgMTkuODM1IDExOC44NTIgMTkuNjM3QzExOS4yMzMgMTkuNDM5IDExOS42OCAxOS4zNCAxMjAuMTk0IDE5LjM0QzEyMC43IDE5LjM0IDEyMS4xNCAxOS40MzkgMTIxLjUxNCAxOS42MzdDMTIxLjg5NSAxOS44MzUgMTIyLjE4OCAyMC4xMTM3IDEyMi4zOTQgMjAuNDczQzEyMi42MDYgMjAuODI1IDEyMi43MTMgMjEuMjM5MyAxMjIuNzEzIDIxLjcxNlYyMi44MTZIMTE4Ljk3M1YyMy4yMzRDMTE4Ljk3MyAyMy42NDQ3IDExOS4wNzkgMjMuOTU2MyAxMTkuMjkyIDI0LjE2OUMxMTkuNTA0IDI0LjM3NDMgMTE5LjgwNSAyNC40NzcgMTIwLjE5NCAyNC40NzdDMTIwLjQ4IDI0LjQ3NyAxMjAuNzIyIDI0LjQyOTMgMTIwLjkyIDI0LjMzNEMxMjEuMTI1IDI0LjIzMTMgMTIxLjI0NiAyNC4wODQ3IDEyMS4yODMgMjMuODk0SDEyMi42NDdDMTIyLjU1MSAyNC40MTQ3IDEyMi4yOCAyNC44MzI3IDEyMS44MzMgMjUuMTQ4QzEyMS4zODUgMjUuNDU2IDEyMC44MzkgMjUuNjEgMTIwLjE5NCAyNS42MVpNMTE4Ljk3MyAyMS43MTZWMjEuOTI1TDEyMS4zOTMgMjEuOTE0VjIxLjcwNUMxMjEuMzkzIDIxLjI4NyAxMjEuMjkgMjAuOTY0MyAxMjEuMDg1IDIwLjczN0MxMjAuODc5IDIwLjUwOTcgMTIwLjU4MiAyMC4zOTYgMTIwLjE5NCAyMC4zOTZDMTE5Ljc5IDIwLjM5NiAxMTkuNDg2IDIwLjUxMzMgMTE5LjI4MSAyMC43NDhDMTE5LjA3NSAyMC45NzUzIDExOC45NzMgMjEuMjk4IDExOC45NzMgMjEuNzE2Wk0xMjcuMzg0IDI1LjVDMTI2LjgxOSAyNS41IDEyNi4zNjggMjUuMzM4NyAxMjYuMDMxIDI1LjAxNkMxMjUuNzAxIDI0LjY4NiAxMjUuNTM2IDI0LjI0MjMgMTI1LjUzNiAyMy42ODVWMjAuNjkzSDEyMy44NjRWMTkuNDVIMTI1LjUzNlYxNy43NDVIMTI2LjkyMlYxOS40NUgxMjkuMzMxVjIwLjY5M0gxMjYuOTIyVjIzLjY1MkMxMjYuOTIyIDIzLjgyOCAxMjYuOTY5IDIzLjk3NDcgMTI3LjA2NSAyNC4wOTJDMTI3LjE2NyAyNC4yMDIgMTI3LjMwNyAyNC4yNTcgMTI3LjQ4MyAyNC4yNTdIMTI5LjI3NlYyNS41SDEyNy4zODRaTTEzMy4xMjEgMjUuNTk5QzEzMi40MDMgMjUuNTk5IDEzMS44MzQgMjUuNDM3NyAxMzEuNDE2IDI1LjExNUMxMzAuOTk4IDI0Ljc4NSAxMzAuNzg5IDI0LjM0MTMgMTMwLjc4OSAyMy43ODRIMTMyLjE0MkMxMzIuMTQyIDI0LjAxODcgMTMyLjIyNyAyNC4xOTgzIDEzMi4zOTUgMjQuMzIzQzEzMi41NzEgMjQuNDQ3NyAxMzIuODEzIDI0LjUxIDEzMy4xMjEgMjQuNTFIMTMzLjYwNUMxMzMuOTM1IDI0LjUxIDEzNC4xODggMjQuNDQ3NyAxMzQuMzY0IDI0LjMyM0MxMzQuNTQ4IDI0LjE5ODMgMTM0LjYzOSAyNC4wMTg3IDEzNC42MzkgMjMuNzg0QzEzNC42MzkgMjMuNTY0IDEzNC41NzcgMjMuNDAyNyAxMzQuNDUyIDIzLjNDMTM0LjMyOCAyMy4xOSAxMzQuMTM3IDIzLjExNjcgMTMzLjg4IDIzLjA4TDEzMi4zNzMgMjIuODgyQzEzMS44ODkgMjIuODE2IDEzMS41MTUgMjIuNjI5IDEzMS4yNTEgMjIuMzIxQzEzMC45OTUgMjIuMDEzIDEzMC44NjYgMjEuNjEzMyAxMzAuODY2IDIxLjEyMkMxMzAuODY2IDIwLjU1IDEzMS4wNTcgMjAuMTEzNyAxMzEuNDM4IDE5LjgxM0MxMzEuODIgMTkuNTA1IDEzMi4zNyAxOS4zNTEgMTMzLjA4OCAxOS4zNTFIMTMzLjU5NEMxMzQuMjY5IDE5LjM1MSAxMzQuODEyIDE5LjUwNSAxMzUuMjIyIDE5LjgxM0MxMzUuNjMzIDIwLjEyMSAxMzUuODQ2IDIwLjUzMTcgMTM1Ljg2IDIxLjA0NUgxMzQuNDk2QzEzNC40ODkgMjAuODU0MyAxMzQuNDA1IDIwLjcwNCAxMzQuMjQzIDIwLjU5NEMxMzQuMDgyIDIwLjQ3NjcgMTMzLjg2NiAyMC40MTggMTMzLjU5NCAyMC40MThIMTMzLjA4OEMxMzIuNzk1IDIwLjQxOCAxMzIuNTcxIDIwLjQ4MDMgMTMyLjQxNyAyMC42MDVDMTMyLjI2MyAyMC43MjIzIDEzMi4xODYgMjAuODgzNyAxMzIuMTg2IDIxLjA4OUMxMzIuMTg2IDIxLjI3MjMgMTMyLjI0MSAyMS40MDggMTMyLjM1MSAyMS40OTZDMTMyLjQ2OSAyMS41ODQgMTMyLjYzNyAyMS42MzkgMTMyLjg1NyAyMS42NjFMMTM0LjI3NiAyMS44NTlDMTM0LjgzNCAyMS45MjUgMTM1LjI1MiAyMi4xMjMgMTM1LjUzIDIyLjQ1M0MxMzUuODE2IDIyLjc3NTcgMTM1Ljk1OSAyMy4yMTIgMTM1Ljk1OSAyMy43NjJDMTM1Ljk1OSAyNC4zNDg3IDEzNS43NTggMjQuODAzMyAxMzUuMzU0IDI1LjEyNkMxMzQuOTU4IDI1LjQ0MTMgMTM0LjM3NSAyNS41OTkgMTMzLjYwNSAyNS41OTlIMTMzLjEyMVoiLz4mI3hhOzxkZWZzPiYjeGE7PGNsaXBQYXRoIGlkPSJjbGlwMF8xNTBfNTUyMSI+JiN4YTs8cmVjdCB0cmFuc2Zvcm09InRyYW5zbGF0ZSgxMiAxMikiIGZpbGw9IndoaXRlIiBoZWlnaHQ9IjIwIiB3aWR0aD0iMjAiLz4mI3hhOzwvY2xpcFBhdGg+JiN4YTs8L2RlZnM+JiN4YTs8L3N2Zz4=;" parent="1" vertex="1">
          <mxGeometry x="536.0039391668913" y="405.50346932246754" width="149" height="44" as="geometry" />
        </mxCell>
        <mxCell id="6Q_wfIdElCOlgVAC6Y2N-14" value="" style="shape=image;verticalLabelPosition=bottom;labelBackgroundColor=default;verticalAlign=top;aspect=fixed;imageAspect=0;image=data:image/svg+xml,PHN2ZyB4bWxucz0iaHR0cDovL3d3dy53My5vcmcvMjAwMC9zdmciIGZpbGw9Im5vbmUiIHZpZXdCb3g9IjAgMCA4OSAyMyIgaGVpZ2h0PSIyMyIgd2lkdGg9Ijg5Ij4mI3hhOzxyZWN0IGZpbGw9IiNGQ0ZDRkMiIHJ4PSIzIiBoZWlnaHQ9IjIxIiB3aWR0aD0iODciIHk9IjEiIHg9IjEiLz4mI3hhOzxyZWN0IHN0cm9rZS13aWR0aD0iMiIgc3Ryb2tlPSJibGFjayIgcng9IjMiIGhlaWdodD0iMjEiIHdpZHRoPSI4NyIgeT0iMSIgeD0iMSIvPiYjeGE7PHBhdGggZmlsbD0iYmxhY2siIGQ9Ik0xMS41NTY2IDE1LjExQzExLjAxNCAxNS4xMSAxMC41MzczIDE1LjAxNDcgMTAuMTI2NiAxNC44MjRDOS43MjMzIDE0LjYzMzMgOS40MDc5NyAxNC4zNjIgOS4xODA2MyAxNC4wMUM4Ljk2MDYzIDEzLjY1MDcgOC44NTA2MyAxMy4yMjUzIDguODUwNjMgMTIuNzM0SDEwLjIwMzZDMTAuMjAzNiAxMy4wOTMzIDEwLjMyNDYgMTMuMzc5MyAxMC41NjY2IDEzLjU5MkMxMC44MTYgMTMuODA0NyAxMS4xNDYgMTMuOTExIDExLjU1NjYgMTMuOTExQzExLjk1MjYgMTMuOTExIDEyLjI2NDMgMTMuODA4MyAxMi40OTE2IDEzLjYwM0MxMi43MjYzIDEzLjM5MDMgMTIuODQzNiAxMy4xMDggMTIuODQzNiAxMi43NTZDMTIuODQzNiAxMi40OTIgMTIuNzY2NiAxMi4yNjEgMTIuNjEyNiAxMi4wNjNDMTIuNDY2IDExLjg1NzcgMTIuMjUzMyAxMS43MTgzIDExLjk3NDYgMTEuNjQ1TDEwLjg5NjYgMTEuMzdDMTAuMzE3MyAxMS4yMjMzIDkuODU4OTcgMTAuOTQ4MyA5LjUyMTYzIDEwLjU0NUM5LjE4NDMgMTAuMTQxNyA5LjAxNTYzIDkuNjYxMzMgOS4wMTU2MyA5LjEwNEM5LjAxNTYzIDguNDIyIDkuMjM5MyA3Ljg3OTMzIDkuNjg2NjMgNy40NzZDMTAuMTM0IDcuMDY1MzMgMTAuNzMxNiA2Ljg2IDExLjQ3OTYgNi44NkMxMS45ODU2IDYuODYgMTIuNDI1NiA2Ljk1MTY3IDEyLjc5OTYgNy4xMzVDMTMuMTgxIDcuMzE4MzMgMTMuNDc0MyA3LjU3ODY3IDEzLjY3OTYgNy45MTZDMTMuODg1IDguMjQ2IDEzLjk4NzYgOC42MzQ2NyAxMy45ODc2IDkuMDgySDEyLjY0NTZDMTIuNjQ1NiA4Ljc3NCAxMi41MzkzIDguNTI0NjcgMTIuMzI2NiA4LjMzNEMxMi4xMTQgOC4xNDMzMyAxMS44MzE2IDguMDQ4IDExLjQ3OTYgOC4wNDhDMTEuMTM1IDguMDQ4IDEwLjg2IDguMTQzMzMgMTAuNjU0NiA4LjMzNEMxMC40NTY2IDguNTE3MzMgMTAuMzU3NiA4Ljc1OTMzIDEwLjM1NzYgOS4wNkMxMC4zNTc2IDkuMzA5MzMgMTAuNDI3MyA5LjUxNDY3IDEwLjU2NjYgOS42NzZDMTAuNzEzMyA5LjgzNzMzIDEwLjkxNSA5Ljk1NDY3IDExLjE3MTYgMTAuMDI4TDEyLjI4MjYgMTAuMzAzQzEyLjg3NjYgMTAuNDQ5NyAxMy4zNDIzIDEwLjc0MyAxMy42Nzk2IDExLjE4M0MxNC4wMjQzIDExLjYyMyAxNC4xOTY2IDEyLjE0NzMgMTQuMTk2NiAxMi43NTZDMTQuMTk2NiAxMy4yMzI3IDE0LjA4NjYgMTMuNjQ3IDEzLjg2NjYgMTMuOTk5QzEzLjY1NCAxNC4zNTEgMTMuMzQ5NiAxNC42MjYgMTIuOTUzNiAxNC44MjRDMTIuNTU3NiAxNS4wMTQ3IDEyLjA5MiAxNS4xMSAxMS41NTY2IDE1LjExWk0xOC4xMTkzIDE1LjA5OUMxNy4zNDIgMTUuMDk5IDE2LjcyNiAxNC44ODI3IDE2LjI3MTMgMTQuNDVDMTUuODE2NyAxNC4wMSAxNS41ODkzIDEzLjQxOTcgMTUuNTg5MyAxMi42NzlWMTEuMjcxQzE1LjU4OTMgMTAuNTIzIDE1LjgxNjcgOS45MzI2NyAxNi4yNzEzIDkuNUMxNi43MjYgOS4wNjczMyAxNy4zNDIgOC44NTEgMTguMTE5MyA4Ljg1MUMxOC44OTY3IDguODUxIDE5LjUxMjcgOS4wNjczMyAxOS45NjczIDkuNUMyMC40MjIgOS45MzI2NyAyMC42NDkzIDEwLjUyMyAyMC42NDkzIDExLjI3MVYxMi42NzlDMjAuNjQ5MyAxMy40MTk3IDIwLjQyMiAxNC4wMSAxOS45NjczIDE0LjQ1QzE5LjUxMjcgMTQuODgyNyAxOC44OTY3IDE1LjA5OSAxOC4xMTkzIDE1LjA5OVpNMTguMTE5MyAxMy45QzE4LjQ4NiAxMy45IDE4Ljc2ODMgMTMuODAxIDE4Ljk2NjMgMTMuNjAzQzE5LjE3MTcgMTMuMzk3NyAxOS4yNzQzIDEzLjEwNDMgMTkuMjc0MyAxMi43MjNWMTEuMjI3QzE5LjI3NDMgMTAuODQ1NyAxOS4xNzE3IDEwLjU1NiAxOC45NjYzIDEwLjM1OEMxOC43NjgzIDEwLjE1MjcgMTguNDg2IDEwLjA1IDE4LjExOTMgMTAuMDVDMTcuNzUyNyAxMC4wNSAxNy40NjY3IDEwLjE1MjcgMTcuMjYxMyAxMC4zNThDMTcuMDYzMyAxMC41NTYgMTYuOTY0MyAxMC44NDU3IDE2Ljk2NDMgMTEuMjI3VjEyLjcyM0MxNi45NjQzIDEzLjEwNDMgMTcuMDYzMyAxMy4zOTc3IDE3LjI2MTMgMTMuNjAzQzE3LjQ2NjcgMTMuODAxIDE3Ljc1MjcgMTMuOSAxOC4xMTkzIDEzLjlaTTI0LjcxNSAxNS4xMUMyMy45NDUgMTUuMTEgMjMuMzQgMTQuODk3MyAyMi45IDE0LjQ3MkMyMi40NiAxNC4wMzkzIDIyLjI0IDEzLjQ1MjcgMjIuMjQgMTIuNzEyVjguOTVIMjMuNjE1VjEyLjcwMUMyMy42MTUgMTMuMDgyMyAyMy43MTA0IDEzLjM3OTMgMjMuOTAxIDEzLjU5MkMyNC4wOTE3IDEzLjgwNDcgMjQuMzYzIDEzLjkxMSAyNC43MTUgMTMuOTExQzI1LjA1OTcgMTMuOTExIDI1LjMyNzQgMTMuODA0NyAyNS41MTggMTMuNTkyQzI1LjcxNiAxMy4zNzkzIDI1LjgxNSAxMy4wODIzIDI1LjgxNSAxMi43MDFWOC45NUgyNy4xOVYxMi43MTJDMjcuMTkgMTMuNDUyNyAyNi45NjY0IDE0LjAzOTMgMjYuNTE5IDE0LjQ3MkMyNi4wNzE3IDE0Ljg5NzMgMjUuNDcwNCAxNS4xMSAyNC43MTUgMTUuMTFaTTI5LjA3NzcgMTVWOC45NUgzMC40MTk3VjEwLjEyN0MzMC40OTMxIDkuNzMxIDMwLjY3MjcgOS40MTkzMyAzMC45NTg3IDkuMTkyQzMxLjI1MjEgOC45NTczMyAzMS42Mjk3IDguODQgMzIuMDkxNyA4Ljg0QzMyLjcwNzcgOC44NCAzMy4xODgxIDkuMDM4IDMzLjUzMjcgOS40MzRDMzMuODc3NCA5LjgzIDM0LjA0OTcgMTAuMzgzNyAzNC4wNDk3IDExLjA5NVYxMS42NjdIMzIuNjc0N1YxMS4xNjFDMzIuNjc0NyAxMC43OTQzIDMyLjU3OTQgMTAuNTE1NyAzMi4zODg3IDEwLjMyNUMzMi4xOTgxIDEwLjEyNyAzMS45MjY3IDEwLjAyOCAzMS41NzQ3IDEwLjAyOEMzMS4yMDgxIDEwLjAyOCAzMC45Mjk0IDEwLjEzOCAzMC43Mzg3IDEwLjM1OEMzMC41NDgxIDEwLjU3OCAzMC40NTI3IDEwLjg4OTcgMzAuNDUyNyAxMS4yOTNWMTVIMjkuMDc3N1pNMzguMDA1NCAxNS4xMUMzNy40ODQ4IDE1LjExIDM3LjAzMDEgMTUuMDE0NyAzNi42NDE0IDE0LjgyNEMzNi4yNjAxIDE0LjYyNiAzNS45NjMxIDE0LjM1MSAzNS43NTA0IDEzLjk5OUMzNS41Mzc4IDEzLjYzOTcgMzUuNDMxNCAxMy4yMTggMzUuNDMxNCAxMi43MzRWMTEuMjE2QzM1LjQzMTQgMTAuNzMyIDM1LjUzNzggMTAuMzE0IDM1Ljc1MDQgOS45NjJDMzUuOTYzMSA5LjYwMjY3IDM2LjI2MDEgOS4zMjc2NyAzNi42NDE0IDkuMTM3QzM3LjAzMDEgOC45MzkgMzcuNDg0OCA4Ljg0IDM4LjAwNTQgOC44NEMzOC43NjA4IDguODQgMzkuMzY1OCA5LjAzOCAzOS44MjA0IDkuNDM0QzQwLjI4MjQgOS44MjI2NyA0MC41MjQ0IDEwLjM1NDMgNDAuNTQ2NCAxMS4wMjlIMzkuMTkzNEMzOS4xNzE0IDEwLjcxMzcgMzkuMDUwNCAxMC40NzE3IDM4LjgzMDQgMTAuMzAzQzM4LjYxNzggMTAuMTI3IDM4LjM0MjggMTAuMDM5IDM4LjAwNTQgMTAuMDM5QzM3LjYzMTQgMTAuMDM5IDM3LjMzODEgMTAuMTQxNyAzNy4xMjU0IDEwLjM0N0MzNi45MTI4IDEwLjU0NSAzNi44MDY0IDEwLjgzMSAzNi44MDY0IDExLjIwNVYxMi43MzRDMzYuODA2NCAxMy4xMDggMzYuOTEyOCAxMy4zOTc3IDM3LjEyNTQgMTMuNjAzQzM3LjMzODEgMTMuODA4MyAzNy42MzE0IDEzLjkxMSAzOC4wMDU0IDEzLjkxMUMzOC4zNTAxIDEzLjkxMSAzOC42Mjg4IDEzLjgyNjcgMzguODQxNCAxMy42NThDMzkuMDU0MSAxMy40ODIgMzkuMTcxNCAxMy4yMzYzIDM5LjE5MzQgMTIuOTIxSDQwLjU0NjRDNDAuNTI0NCAxMy41OTU3IDQwLjI4MjQgMTQuMTMxIDM5LjgyMDQgMTQuNTI3QzM5LjM2NTggMTQuOTE1NyAzOC43NjA4IDE1LjExIDM4LjAwNTQgMTUuMTFaTTQ0LjUxMzEgMTUuMTFDNDMuOTk5OCAxNS4xMSA0My41NTI1IDE1LjAxMSA0My4xNzExIDE0LjgxM0M0Mi43ODk4IDE0LjYxNSA0Mi40OTI4IDE0LjMzNjMgNDIuMjgwMSAxMy45NzdDNDIuMDc0OCAxMy42MTAzIDQxLjk3MjEgMTMuMTgxMyA0MS45NzIxIDEyLjY5VjExLjI2QzQxLjk3MjEgMTAuNzY4NyA0Mi4wNzQ4IDEwLjM0MzMgNDIuMjgwMSA5Ljk4NEM0Mi40OTI4IDkuNjE3MzMgNDIuNzg5OCA5LjMzNSA0My4xNzExIDkuMTM3QzQzLjU1MjUgOC45MzkgNDMuOTk5OCA4Ljg0IDQ0LjUxMzEgOC44NEM0NS4wMTkxIDguODQgNDUuNDU5MSA4LjkzOSA0NS44MzMxIDkuMTM3QzQ2LjIxNDUgOS4zMzUgNDYuNTA3OCA5LjYxMzY3IDQ2LjcxMzEgOS45NzNDNDYuOTI1OCAxMC4zMjUgNDcuMDMyMSAxMC43MzkzIDQ3LjAzMjEgMTEuMjE2VjEyLjMxNkg0My4yOTIxVjEyLjczNEM0My4yOTIxIDEzLjE0NDcgNDMuMzk4NSAxMy40NTYzIDQzLjYxMTEgMTMuNjY5QzQzLjgyMzggMTMuODc0MyA0NC4xMjQ1IDEzLjk3NyA0NC41MTMxIDEzLjk3N0M0NC43OTkxIDEzLjk3NyA0NS4wNDExIDEzLjkyOTMgNDUuMjM5MSAxMy44MzRDNDUuNDQ0NSAxMy43MzEzIDQ1LjU2NTUgMTMuNTg0NyA0NS42MDIxIDEzLjM5NEg0Ni45NjYxQzQ2Ljg3MDggMTMuOTE0NyA0Ni41OTk1IDE0LjMzMjcgNDYuMTUyMSAxNC42NDhDNDUuNzA0OCAxNC45NTYgNDUuMTU4NSAxNS4xMSA0NC41MTMxIDE1LjExWk00My4yOTIxIDExLjIxNlYxMS40MjVMNDUuNzEyMSAxMS40MTRWMTEuMjA1QzQ1LjcxMjEgMTAuNzg3IDQ1LjYwOTUgMTAuNDY0MyA0NS40MDQxIDEwLjIzN0M0NS4xOTg4IDEwLjAwOTcgNDQuOTAxOCA5Ljg5NiA0NC41MTMxIDkuODk2QzQ0LjEwOTggOS44OTYgNDMuODA1NSAxMC4wMTMzIDQzLjYwMDEgMTAuMjQ4QzQzLjM5NDggMTAuNDc1MyA0My4yOTIxIDEwLjc5OCA0My4yOTIxIDExLjIxNlpNNTcuNzkyNiAxNS4xMUM1Ny4yNzE5IDE1LjExIDU2LjgxNzIgMTUuMDE0NyA1Ni40Mjg2IDE0LjgyNEM1Ni4wNDcyIDE0LjYyNiA1NS43NTAyIDE0LjM1MSA1NS41Mzc2IDEzLjk5OUM1NS4zMjQ5IDEzLjYzOTcgNTUuMjE4NiAxMy4yMTggNTUuMjE4NiAxMi43MzRWMTEuMjE2QzU1LjIxODYgMTAuNzMyIDU1LjMyNDkgMTAuMzE0IDU1LjUzNzYgOS45NjJDNTUuNzUwMiA5LjYwMjY3IDU2LjA0NzIgOS4zMjc2NyA1Ni40Mjg2IDkuMTM3QzU2LjgxNzIgOC45MzkgNTcuMjcxOSA4Ljg0IDU3Ljc5MjYgOC44NEM1OC41NDc5IDguODQgNTkuMTUyOSA5LjAzOCA1OS42MDc2IDkuNDM0QzYwLjA2OTYgOS44MjI2NyA2MC4zMTE2IDEwLjM1NDMgNjAuMzMzNiAxMS4wMjlINTguOTgwNkM1OC45NTg2IDEwLjcxMzcgNTguODM3NiAxMC40NzE3IDU4LjYxNzYgMTAuMzAzQzU4LjQwNDkgMTAuMTI3IDU4LjEyOTkgMTAuMDM5IDU3Ljc5MjYgMTAuMDM5QzU3LjQxODYgMTAuMDM5IDU3LjEyNTIgMTAuMTQxNyA1Ni45MTI2IDEwLjM0N0M1Ni42OTk5IDEwLjU0NSA1Ni41OTM2IDEwLjgzMSA1Ni41OTM2IDExLjIwNVYxMi43MzRDNTYuNTkzNiAxMy4xMDggNTYuNjk5OSAxMy4zOTc3IDU2LjkxMjYgMTMuNjAzQzU3LjEyNTIgMTMuODA4MyA1Ny40MTg2IDEzLjkxMSA1Ny43OTI2IDEzLjkxMUM1OC4xMzcyIDEzLjkxMSA1OC40MTU5IDEzLjgyNjcgNTguNjI4NiAxMy42NThDNTguODQxMiAxMy40ODIgNTguOTU4NiAxMy4yMzYzIDU4Ljk4MDYgMTIuOTIxSDYwLjMzMzZDNjAuMzExNiAxMy41OTU3IDYwLjA2OTYgMTQuMTMxIDU5LjYwNzYgMTQuNTI3QzU5LjE1MjkgMTQuOTE1NyA1OC41NDc5IDE1LjExIDU3Ljc5MjYgMTUuMTFaTTY0LjI4OTMgMTUuMDk5QzYzLjUxMTkgMTUuMDk5IDYyLjg5NTkgMTQuODgyNyA2Mi40NDEzIDE0LjQ1QzYxLjk4NjYgMTQuMDEgNjEuNzU5MyAxMy40MTk3IDYxLjc1OTMgMTIuNjc5VjExLjI3MUM2MS43NTkzIDEwLjUyMyA2MS45ODY2IDkuOTMyNjcgNjIuNDQxMyA5LjVDNjIuODk1OSA5LjA2NzMzIDYzLjUxMTkgOC44NTEgNjQuMjg5MyA4Ljg1MUM2NS4wNjY2IDguODUxIDY1LjY4MjYgOS4wNjczMyA2Ni4xMzczIDkuNUM2Ni41OTE5IDkuOTMyNjcgNjYuODE5MyAxMC41MjMgNjYuODE5MyAxMS4yNzFWMTIuNjc5QzY2LjgxOTMgMTMuNDE5NyA2Ni41OTE5IDE0LjAxIDY2LjEzNzMgMTQuNDVDNjUuNjgyNiAxNC44ODI3IDY1LjA2NjYgMTUuMDk5IDY0LjI4OTMgMTUuMDk5Wk02NC4yODkzIDEzLjlDNjQuNjU1OSAxMy45IDY0LjkzODMgMTMuODAxIDY1LjEzNjMgMTMuNjAzQzY1LjM0MTYgMTMuMzk3NyA2NS40NDQzIDEzLjEwNDMgNjUuNDQ0MyAxMi43MjNWMTEuMjI3QzY1LjQ0NDMgMTAuODQ1NyA2NS4zNDE2IDEwLjU1NiA2NS4xMzYzIDEwLjM1OEM2NC45MzgzIDEwLjE1MjcgNjQuNjU1OSAxMC4wNSA2NC4yODkzIDEwLjA1QzYzLjkyMjYgMTAuMDUgNjMuNjM2NiAxMC4xNTI3IDYzLjQzMTMgMTAuMzU4QzYzLjIzMzMgMTAuNTU2IDYzLjEzNDMgMTAuODQ1NyA2My4xMzQzIDExLjIyN1YxMi43MjNDNjMuMTM0MyAxMy4xMDQzIDYzLjIzMzMgMTMuMzk3NyA2My40MzEzIDEzLjYwM0M2My42MzY2IDEzLjgwMSA2My45MjI2IDEzLjkgNjQuMjg5MyAxMy45Wk03MC4zMzUgMTUuMTFDNjkuNzQ4MyAxNS4xMSA2OS4yNzE2IDE0LjkwMSA2OC45MDUgMTQuNDgzQzY4LjU0NTYgMTQuMDY1IDY4LjM2NiAxMy41MDQgNjguMzY2IDEyLjhWMTEuMTYxQzY4LjM2NiAxMC40NDk3IDY4LjU0NTYgOS44ODUgNjguOTA1IDkuNDY3QzY5LjI2NDMgOS4wNDkgNjkuNzQxIDguODQgNzAuMzM1IDguODRDNzAuNzUzIDguODQgNzEuMTA1IDguOTQ2MzMgNzEuMzkxIDkuMTU5QzcxLjY4NDMgOS4zNzE2NyA3MS44ODk2IDkuNjY4NjcgNzIuMDA3IDEwLjA1TDcxLjk2MyA4LjY2NFY2Ljk3SDczLjMzOFYxNUg3MS45OTZWMTMuOUM3MS44ODYgMTQuMjgxMyA3MS42ODggMTQuNTc4MyA3MS40MDIgMTQuNzkxQzcxLjExNiAxNS4wMDM3IDcwLjc2MDMgMTUuMTEgNzAuMzM1IDE1LjExWk03MC44NTIgMTMuOTIyQzcxLjIwNCAxMy45MjIgNzEuNDc1MyAxMy44MTU3IDcxLjY2NiAxMy42MDNDNzEuODY0IDEzLjM5MDMgNzEuOTYzIDEzLjA4OTcgNzEuOTYzIDEyLjcwMVYxMS4yNDlDNzEuOTYzIDEwLjg2MDMgNzEuODY0IDEwLjU1OTcgNzEuNjY2IDEwLjM0N0M3MS40NzUzIDEwLjEzNDMgNzEuMjA0IDEwLjAyOCA3MC44NTIgMTAuMDI4QzcwLjUgMTAuMDI4IDcwLjIyNSAxMC4xMjMzIDcwLjAyNyAxMC4zMTRDNjkuODM2MyAxMC41MDQ3IDY5Ljc0MSAxMC43OTggNjkuNzQxIDExLjE5NFYxMi43NTZDNjkuNzQxIDEzLjE1MiA2OS44MzYzIDEzLjQ0NTMgNzAuMDI3IDEzLjYzNkM3MC4yMjUgMTMuODI2NyA3MC41IDEzLjkyMiA3MC44NTIgMTMuOTIyWk03Ny40OTE3IDE1LjExQzc2Ljk3ODMgMTUuMTEgNzYuNTMxIDE1LjAxMSA3Ni4xNDk3IDE0LjgxM0M3NS43NjgzIDE0LjYxNSA3NS40NzEzIDE0LjMzNjMgNzUuMjU4NyAxMy45NzdDNzUuMDUzMyAxMy42MTAzIDc0Ljk1MDcgMTMuMTgxMyA3NC45NTA3IDEyLjY5VjExLjI2Qzc0Ljk1MDcgMTAuNzY4NyA3NS4wNTMzIDEwLjM0MzMgNzUuMjU4NyA5Ljk4NEM3NS40NzEzIDkuNjE3MzMgNzUuNzY4MyA5LjMzNSA3Ni4xNDk3IDkuMTM3Qzc2LjUzMSA4LjkzOSA3Ni45NzgzIDguODQgNzcuNDkxNyA4Ljg0Qzc3Ljk5NzcgOC44NCA3OC40Mzc3IDguOTM5IDc4LjgxMTcgOS4xMzdDNzkuMTkzIDkuMzM1IDc5LjQ4NjMgOS42MTM2NyA3OS42OTE3IDkuOTczQzc5LjkwNDMgMTAuMzI1IDgwLjAxMDcgMTAuNzM5MyA4MC4wMTA3IDExLjIxNlYxMi4zMTZINzYuMjcwN1YxMi43MzRDNzYuMjcwNyAxMy4xNDQ3IDc2LjM3NyAxMy40NTYzIDc2LjU4OTcgMTMuNjY5Qzc2LjgwMjMgMTMuODc0MyA3Ny4xMDMgMTMuOTc3IDc3LjQ5MTcgMTMuOTc3Qzc3Ljc3NzcgMTMuOTc3IDc4LjAxOTcgMTMuOTI5MyA3OC4yMTc3IDEzLjgzNEM3OC40MjMgMTMuNzMxMyA3OC41NDQgMTMuNTg0NyA3OC41ODA3IDEzLjM5NEg3OS45NDQ3Qzc5Ljg0OTMgMTMuOTE0NyA3OS41NzggMTQuMzMyNyA3OS4xMzA3IDE0LjY0OEM3OC42ODMzIDE0Ljk1NiA3OC4xMzcgMTUuMTEgNzcuNDkxNyAxNS4xMVpNNzYuMjcwNyAxMS4yMTZWMTEuNDI1TDc4LjY5MDcgMTEuNDE0VjExLjIwNUM3OC42OTA3IDEwLjc4NyA3OC41ODggMTAuNDY0MyA3OC4zODI3IDEwLjIzN0M3OC4xNzczIDEwLjAwOTcgNzcuODgwMyA5Ljg5NiA3Ny40OTE3IDkuODk2Qzc3LjA4ODMgOS44OTYgNzYuNzg0IDEwLjAxMzMgNzYuNTc4NyAxMC4yNDhDNzYuMzczMyAxMC40NzUzIDc2LjI3MDcgMTAuNzk4IDc2LjI3MDcgMTEuMjE2WiIvPiYjeGE7PC9zdmc+;" parent="1" vertex="1">
          <mxGeometry x="116.00255985654621" y="248.49760725350217" width="89" height="23" as="geometry" />
        </mxCell>
        <mxCell id="6Q_wfIdElCOlgVAC6Y2N-15" value="" style="endArrow=none;html=1;rounded=0;exitX=0;exitY=0.5;exitDx=0;exitDy=0;entryX=0.5;entryY=1;entryDx=0;entryDy=0;endFill=0;strokeWidth=2;edgeStyle=orthogonalEdgeStyle;targetPerimeterSpacing=0;sourcePerimeterSpacing=0;jumpSize=6;dashed=1;" parent="1" source="6Q_wfIdElCOlgVAC6Y2N-13" target="6Q_wfIdElCOlgVAC6Y2N-10" edge="1">
          <mxGeometry width="50" height="50" relative="1" as="geometry">
            <mxPoint x="374.51" y="438.10999999999996" as="sourcePoint" />
            <mxPoint x="528.51" y="438.10999999999996" as="targetPoint" />
          </mxGeometry>
        </mxCell>
        <mxCell id="6Q_wfIdElCOlgVAC6Y2N-24" value="&lt;b&gt;&lt;font data-font-src=&quot;https://fonts.googleapis.com/css?family=Jetbrains+Mono&quot; face=&quot;Jetbrains Mono&quot;&gt;&amp;nbsp;Authenticates&amp;nbsp;&lt;/font&gt;&lt;/b&gt;" style="edgeLabel;html=1;align=center;verticalAlign=middle;resizable=0;points=[];" parent="6Q_wfIdElCOlgVAC6Y2N-15" vertex="1" connectable="0">
          <mxGeometry x="0.562" y="1" relative="1" as="geometry">
            <mxPoint x="81" y="-1" as="offset" />
          </mxGeometry>
        </mxCell>
        <mxCell id="6Q_wfIdElCOlgVAC6Y2N-16" value="" style="shape=image;verticalLabelPosition=bottom;labelBackgroundColor=default;verticalAlign=top;aspect=fixed;imageAspect=0;image=data:image/svg+xml,PHN2ZyB4bWxucz0iaHR0cDovL3d3dy53My5vcmcvMjAwMC9zdmciIGZpbGw9Im5vbmUiIHZpZXdCb3g9IjAgMCAxMTUgMjMiIGhlaWdodD0iMjMiIHdpZHRoPSIxMTUiPiYjeGE7PHJlY3QgZmlsbD0iI0ZDRkNGQyIgcng9IjMiIGhlaWdodD0iMjEiIHdpZHRoPSIxMTMiIHk9IjEiIHg9IjEiLz4mI3hhOzxyZWN0IHN0cm9rZS13aWR0aD0iMiIgc3Ryb2tlPSJibGFjayIgcng9IjMiIGhlaWdodD0iMjEiIHdpZHRoPSIxMTMiIHk9IjEiIHg9IjEiLz4mI3hhOzxwYXRoIGZpbGw9ImJsYWNrIiBkPSJNOC44MjQyMyAxNVY2Ljk3SDEwLjUwNzJMMTIuNzQwMiAxMy40NkMxMi43MTgyIDEzLjIyNTMgMTIuNjk2MiAxMi45NTAzIDEyLjY3NDIgMTIuNjM1QzEyLjY1MjIgMTIuMzEyMyAxMi42MzAyIDExLjk4NiAxMi42MDgyIDExLjY1NkMxMi41OTM2IDExLjMyNiAxMi41ODYyIDExLjAzMjcgMTIuNTg2MiAxMC43NzZWNi45N0gxMy44NDAyVjE1SDEyLjE1NzJMOS45NDYyMyA4LjUxQzkuOTYwODkgOC43MjI2NyA5Ljk3OTIzIDguOTc5MzMgMTAuMDAxMiA5LjI4QzEwLjAyMzIgOS41ODA2NyAxMC4wNDE2IDkuODg4NjcgMTAuMDU2MiAxMC4yMDRDMTAuMDcwOSAxMC41MTkzIDEwLjA3ODIgMTAuODA5IDEwLjA3ODIgMTEuMDczVjE1SDguODI0MjNaTTE3LjkyNzkgMTUuMTFDMTcuMTU3OSAxNS4xMSAxNi41NDU2IDE0Ljg5IDE2LjA5MDkgMTQuNDVDMTUuNjQzNiAxNC4wMSAxNS40MTk5IDEzLjQwMTMgMTUuNDE5OSAxMi42MjRWOS4zNDZDMTUuNDE5OSA4LjU2ODY3IDE1LjY0MzYgNy45NiAxNi4wOTA5IDcuNTJDMTYuNTQ1NiA3LjA4IDE3LjE1NzkgNi44NiAxNy45Mjc5IDYuODZDMTguNjk3OSA2Ljg2IDE5LjMwNjYgNy4wOCAxOS43NTM5IDcuNTJDMjAuMjA4NiA3Ljk2IDIwLjQzNTkgOC41NjUgMjAuNDM1OSA5LjMzNVYxMi42MjRDMjAuNDM1OSAxMy40MDEzIDIwLjIwODYgMTQuMDEgMTkuNzUzOSAxNC40NUMxOS4zMDY2IDE0Ljg5IDE4LjY5NzkgMTUuMTEgMTcuOTI3OSAxNS4xMVpNMTcuOTI3OSAxMy45QzE4LjMwMTkgMTMuOSAxOC41ODQzIDEzLjgwMSAxOC43NzQ5IDEzLjYwM0MxOC45NjU2IDEzLjM5NzcgMTkuMDYwOSAxMy4xMDggMTkuMDYwOSAxMi43MzRWOS4yMzZDMTkuMDYwOSA4Ljg2MiAxOC45NjU2IDguNTc2IDE4Ljc3NDkgOC4zNzhDMTguNTg0MyA4LjE3MjY3IDE4LjMwMTkgOC4wNyAxNy45Mjc5IDguMDdDMTcuNTUzOSA4LjA3IDE3LjI3MTYgOC4xNzI2NyAxNy4wODA5IDguMzc4QzE2Ljg5MDMgOC41NzYgMTYuNzk0OSA4Ljg2MiAxNi43OTQ5IDkuMjM2VjEyLjczNEMxNi43OTQ5IDEzLjEwOCAxNi44OTAzIDEzLjM5NzcgMTcuMDgwOSAxMy42MDNDMTcuMjcxNiAxMy44MDEgMTcuNTUzOSAxMy45IDE3LjkyNzkgMTMuOVpNMjIuMDQ4NiAxNVY2Ljk3SDI0LjQzNTZDMjQuOTc4MyA2Ljk3IDI1LjQ0NzYgNy4wNzYzMyAyNS44NDM2IDcuMjg5QzI2LjI0NyA3LjQ5NDMzIDI2LjU1ODYgNy43ODQgMjYuNzc4NiA4LjE1OEMyNi45OTg2IDguNTMyIDI3LjEwODYgOC45NzIgMjcuMTA4NiA5LjQ3OFYxMi40ODFDMjcuMTA4NiAxMi45ODcgMjYuOTk4NiAxMy40MzA3IDI2Ljc3ODYgMTMuODEyQzI2LjU1ODYgMTQuMTg2IDI2LjI0NyAxNC40NzkzIDI1Ljg0MzYgMTQuNjkyQzI1LjQ0NzYgMTQuODk3MyAyNC45NzgzIDE1IDI0LjQzNTYgMTVIMjIuMDQ4NlpNMjMuNDIzNiAxMy43NjhIMjQuNDM1NkMyNC44MzE2IDEzLjc2OCAyNS4xNDcgMTMuNjU0MyAyNS4zODE2IDEzLjQyN0MyNS42MTYzIDEzLjE5MjMgMjUuNzMzNiAxMi44NzcgMjUuNzMzNiAxMi40ODFWOS40NzhDMjUuNzMzNiA5LjA4OTMzIDI1LjYxNjMgOC43ODEzMyAyNS4zODE2IDguNTU0QzI1LjE0NyA4LjMxOTMzIDI0LjgzMTYgOC4yMDIgMjQuNDM1NiA4LjIwMkgyMy40MjM2VjEzLjc2OFpNMjguNzg3MyAxNVY2Ljk3SDMzLjYwNTNWOC4xOEgzMC4xNDAzVjEwLjI3SDMzLjIyMDNWMTEuNDM2SDMwLjE0MDNWMTMuNzlIMzMuNjA1M1YxNUgyOC43ODczWk0zNS4wNzUgMTYuNTE4VjE1LjI3NUg0MC4zNTVWMTYuNTE4SDM1LjA3NVpNNDEuMzk1NyAxNUw0My40MTk3IDYuOTdINDUuMTkwN0w0Ny4yMjU3IDE1SDQ1LjgxNzdMNDUuMzc3NyAxMy4wNTNINDMuMjQzN0w0Mi44MDM3IDE1SDQxLjM5NTdaTTQzLjQ5NjcgMTEuOTMxSDQ1LjEyNDdMNDQuNjQwNyA5Ljc3NUM0NC41NjAxIDkuNDE1NjcgNDQuNDkwNCA5LjA5MyA0NC40MzE3IDguODA3QzQ0LjM3MzEgOC41MTM2NyA0NC4zMzI3IDguMzAxIDQ0LjMxMDcgOC4xNjlDNDQuMjg4NyA4LjMwMSA0NC4yNDg0IDguNTEzNjcgNDQuMTg5NyA4LjgwN0M0NC4xMzExIDkuMDkzIDQ0LjA2MTQgOS40MTIgNDMuOTgwNyA5Ljc2NEw0My40OTY3IDExLjkzMVpNNTAuOTA2NCAxNS4xMUM1MC4xMjE4IDE1LjExIDQ5LjUwNTggMTQuODk3MyA0OS4wNTg0IDE0LjQ3MkM0OC42MTg0IDE0LjAzOTMgNDguMzk4NCAxMy40NTI3IDQ4LjM5ODQgMTIuNzEyVjYuOTdINDkuNzg0NFYxMi43MDFDNDkuNzg0NCAxMy4wODIzIDQ5Ljg3OTggMTMuMzc5MyA1MC4wNzA0IDEzLjU5MkM1MC4yNjExIDEzLjgwNDcgNTAuNTM5OCAxMy45MTEgNTAuOTA2NCAxMy45MTFDNTEuMjY1OCAxMy45MTEgNTEuNTQwOCAxMy44MDQ3IDUxLjczMTQgMTMuNTkyQzUxLjkyOTQgMTMuMzc5MyA1Mi4wMjg0IDEzLjA4MjMgNTIuMDI4NCAxMi43MDFWNi45N0g1My40MTQ0VjEyLjcxMkM1My40MTQ0IDEzLjQ1MjcgNTMuMTk0NCAxNC4wMzkzIDUyLjc1NDQgMTQuNDcyQzUyLjMxNDQgMTQuODk3MyA1MS42OTg0IDE1LjExIDUwLjkwNjQgMTUuMTFaTTU2LjgwOTEgMTVWOC4yMTNINTQuNzA4MVY2Ljk3SDYwLjI5NjFWOC4yMTNINTguMTk1MVYxNUg1Ni44MDkxWk02MS42NDQ5IDE1VjYuOTdINjMuMDE5OVYxMC4yMjZINjUuMTc1OVY2Ljk3SDY2LjU1MDlWMTVINjUuMTc1OVYxMS40NjlINjMuMDE5OVYxNUg2MS42NDQ5Wk02OC4wNTM2IDE2LjUxOFYxNS4yNzVINzMuMzMzNlYxNi41MThINjguMDUzNlpNNzYuNTk2MyAxNVY4LjIxM0g3NC40OTUzVjYuOTdIODAuMDgzM1Y4LjIxM0g3Ny45ODIzVjE1SDc2LjU5NjNaTTgzLjg4NSAxNS4xMUM4My4xMTUgMTUuMTEgODIuNTAyNiAxNC44OSA4Mi4wNDggMTQuNDVDODEuNjAwNiAxNC4wMSA4MS4zNzcgMTMuNDAxMyA4MS4zNzcgMTIuNjI0VjkuMzQ2QzgxLjM3NyA4LjU2ODY3IDgxLjYwMDYgNy45NiA4Mi4wNDggNy41MkM4Mi41MDI2IDcuMDggODMuMTE1IDYuODYgODMuODg1IDYuODZDODQuNjU1IDYuODYgODUuMjYzNiA3LjA4IDg1LjcxMSA3LjUyQzg2LjE2NTYgNy45NiA4Ni4zOTMgOC41NjUgODYuMzkzIDkuMzM1VjEyLjYyNEM4Ni4zOTMgMTMuNDAxMyA4Ni4xNjU2IDE0LjAxIDg1LjcxMSAxNC40NUM4NS4yNjM2IDE0Ljg5IDg0LjY1NSAxNS4xMSA4My44ODUgMTUuMTFaTTgzLjg4NSAxMy45Qzg0LjI1OSAxMy45IDg0LjU0MTMgMTMuODAxIDg0LjczMiAxMy42MDNDODQuOTIyNiAxMy4zOTc3IDg1LjAxOCAxMy4xMDggODUuMDE4IDEyLjczNFY5LjIzNkM4NS4wMTggOC44NjIgODQuOTIyNiA4LjU3NiA4NC43MzIgOC4zNzhDODQuNTQxMyA4LjE3MjY3IDg0LjI1OSA4LjA3IDgzLjg4NSA4LjA3QzgzLjUxMSA4LjA3IDgzLjIyODYgOC4xNzI2NyA4My4wMzggOC4zNzhDODIuODQ3MyA4LjU3NiA4Mi43NTIgOC44NjIgODIuNzUyIDkuMjM2VjEyLjczNEM4Mi43NTIgMTMuMTA4IDgyLjg0NzMgMTMuMzk3NyA4My4wMzggMTMuNjAzQzgzLjIyODYgMTMuODAxIDgzLjUxMSAxMy45IDgzLjg4NSAxMy45Wk04OC4wMTY3IDE1VjYuOTdIODkuMzkxN1YxMC4yNDhIOTAuMzM3N0w5MS44NjY3IDYuOTdIOTMuMzUxN0w5MS41NDc3IDEwLjc5OEw5My40Mzk3IDE1SDkxLjkxMDdMOTAuMzI2NyAxMS40NDdIODkuMzkxN1YxNUg4OC4wMTY3Wk05NC43NDQ0IDE1VjYuOTdIOTkuNTYyNFY4LjE4SDk2LjA5NzRWMTAuMjdIOTkuMTc3NFYxMS40MzZIOTYuMDk3NFYxMy43OUg5OS41NjI0VjE1SDk0Ljc0NDRaTTEwMS4xNjQgMTVWNi45N0gxMDIuODQ3TDEwNS4wOCAxMy40NkMxMDUuMDU4IDEzLjIyNTMgMTA1LjAzNiAxMi45NTAzIDEwNS4wMTQgMTIuNjM1QzEwNC45OTIgMTIuMzEyMyAxMDQuOTcgMTEuOTg2IDEwNC45NDggMTEuNjU2QzEwNC45MzMgMTEuMzI2IDEwNC45MjYgMTEuMDMyNyAxMDQuOTI2IDEwLjc3NlY2Ljk3SDEwNi4xOFYxNUgxMDQuNDk3TDEwMi4yODYgOC41MUMxMDIuMzAxIDguNzIyNjcgMTAyLjMxOSA4Ljk3OTMzIDEwMi4zNDEgOS4yOEMxMDIuMzYzIDkuNTgwNjcgMTAyLjM4MSA5Ljg4ODY3IDEwMi4zOTYgMTAuMjA0QzEwMi40MTEgMTAuNTE5MyAxMDIuNDE4IDEwLjgwOSAxMDIuNDE4IDExLjA3M1YxNUgxMDEuMTY0WiIvPiYjeGE7PC9zdmc+;" parent="1" vertex="1">
          <mxGeometry x="399.99921752929686" y="438.9989526367186" width="115" height="23" as="geometry" />
        </mxCell>
        <mxCell id="6Q_wfIdElCOlgVAC6Y2N-17" value="" style="endArrow=classic;html=1;rounded=0;exitX=1;exitY=0.5;exitDx=0;exitDy=0;entryX=0;entryY=0.5;entryDx=0;entryDy=0;fontFamily=Jetbrains Mono;fontSource=https%3A%2F%2Ffonts.googleapis.com%2Fcss%3Ffamily%3DJetbrains%2BMono;strokeWidth=2;" parent="1" source="6Q_wfIdElCOlgVAC6Y2N-14" target="6Q_wfIdElCOlgVAC6Y2N-3" edge="1">
          <mxGeometry width="50" height="50" relative="1" as="geometry">
            <mxPoint x="386" y="240" as="sourcePoint" />
            <mxPoint x="436" y="190" as="targetPoint" />
          </mxGeometry>
        </mxCell>
        <mxCell id="6Q_wfIdElCOlgVAC6Y2N-23" value="&amp;nbsp;Push&amp;nbsp;" style="edgeLabel;html=1;align=center;verticalAlign=middle;resizable=0;points=[];fontFamily=Jetbrains Mono;fontSource=https%3A%2F%2Ffonts.googleapis.com%2Fcss%3Ffamily%3DJetbrains%2BMono;fontStyle=1" parent="6Q_wfIdElCOlgVAC6Y2N-17" vertex="1" connectable="0">
          <mxGeometry x="-0.1603" y="1" relative="1" as="geometry">
            <mxPoint x="9" y="1" as="offset" />
          </mxGeometry>
        </mxCell>
      </root>
    </mxGraphModel>
  </diagram>
</mxfile>
